<?xml version="1.0" standalone="no"?><!DOCTYPE svg PUBLIC "-//W3C//DTD SVG 1.1//EN" "http://www.w3.org/Graphics/SVG/1.1/DTD/svg11.dtd" ><svg version="1.1" xmlns="http://www.w3.org/2000/svg"><defs><font horiz-adv-x="0" id="font"><font-face ascent="750" bbox="-76 -250 1257 950" cap-height="680" descent="-250" font-family="Agile Light" font-stretch="normal" font-style="normal" font-weight="500" units-per-em="1000" x-height="500" /><missing-glyph d="M499 946H500V945H499ZM476 948H477V949H476ZM495 947V945H494V947ZM505 946H506V949H505ZM488 948H491V947H488ZM488 946H491V945H488ZM488 950H491V949H488ZM463 948H468V947H463ZM509 950V945H508V950ZM511 950V945H510V950ZM513 950V945H512V950ZM474 950V945H473V950ZM463 946H468V945H463ZM472 950V945H471V950ZM470 950V945H469V950ZM463 950H468V949H463ZM479 950H480V946H481V945H479ZM496 950H499V949H498V945H497V949H496ZM503 950V949H502V946H503V945H501V950ZM493 947V945H492V950H495V948H494V949H493V948H494V947ZM478 950V945H477V947H476V945H475V950ZM504 950H507V945H504ZM487 950V945H486V947H485V945H484V949H483V945H482V949H481V950H485V948H486V950ZM505 -141 928 286V432L504 8L407 84L745 424V570L321 146L224 222L563 562V708L139 284L50 354L51 207Z" horiz-adv-x="991" /><glyph d="M194 268H451L323 626H320ZM611 4 549 -4 471 213H174L98 -4L39 4L279 680H369Z" glyph-name="A" horiz-adv-x="652" unicode="A" /><glyph d="M176 221H387L283 500H280ZM533 4 471 -4 407 167H156L92 -4L36 4L240 546H328Z" glyph-name="A.sc" horiz-adv-x="568" unicode="&#63329;" /><glyph d="M225 258H475L413 625H408ZM776 625H473L516 378H771V324H525L572 55H838V0H518L484 204H198L95 -3L35 2L372 680H776Z" glyph-name="AE" horiz-adv-x="862" unicode="&#198;" /><glyph d="M215 218H416L366 492H361ZM677 492H428L462 309H673V255H472L508 54H731V0H455L425 164H186L98 -3L39 2L329 546H677Z" glyph-name="AE.sc" horiz-adv-x="761" unicode="&#63462;" /><glyph d="M601 827Q534 798 470 782Q406 766 337 758L332 806Q396 815 456.5 832Q517 849 580 878ZM225 258H475L413 625H408ZM776 625H473L516 378H771V324H525L572 55H838V0H518L484 204H198L95 -3L35 2L372 680H776Z" glyph-name="AEacute" horiz-adv-x="862" unicode="&#508;" /><glyph d="M527 702Q465 666 407 648.5Q349 631 286 623L281 670Q337 678 390.5 697.5Q444 717 502 750ZM215 218H416L366 492H361ZM677 492H428L462 309H673V255H472L508 54H731V0H455L425 164H186L98 -3L39 2L329 546H677Z" glyph-name="AEacute.sc" horiz-adv-x="761" unicode="&#63012;" /><glyph d="M466 827Q399 798 335 782Q271 766 202 758L197 806Q261 815 321.5 832Q382 849 445 878ZM194 268H451L323 626H320ZM611 4 549 -4 471 213H174L98 -4L39 4L279 680H369Z" glyph-name="Aacute" horiz-adv-x="652" unicode="&#193;" /><glyph d="M415 702Q353 666 295 648.5Q237 631 174 623L169 670Q225 678 278.5 697.5Q332 717 390 750ZM176 221H387L283 500H280ZM533 4 471 -4 407 167H156L92 -4L36 4L240 546H328Z" glyph-name="Aacute.sc" horiz-adv-x="568" unicode="&#63457;" /><glyph d="M250 869Q252 836 272.5 819.5Q293 803 323 803Q352 803 373 820Q394 837 396 869L450 864Q447 837 436 817Q425 797 408 783.5Q391 770 369 763.5Q347 757 322 757Q267 757 234 784Q201 811 196 865ZM194 268H451L323 626H320ZM611 4 549 -4 471 213H174L98 -4L39 4L279 680H369Z" glyph-name="Abreve" horiz-adv-x="652" unicode="&#258;" /><glyph d="M220 718Q222 691 237 675Q252 659 280 659Q306 659 322 676Q338 693 340 717L394 710Q390 665 360 638Q330 611 280 611Q229 611 200 636.5Q171 662 167 708ZM176 221H387L283 500H280ZM533 4 471 -4 407 167H156L92 -4L36 4L240 546H328Z" glyph-name="Abreve.sc" horiz-adv-x="568" unicode="&#63040;" /><glyph d="M487 763 448 739 320 833 200 739 160 763 298 883H345ZM194 268H451L323 626H320ZM611 4 549 -4 471 213H174L98 -4L39 4L279 680H369Z" glyph-name="Acircumflex" horiz-adv-x="652" unicode="&#194;" /><glyph d="M430 630 392 607 285 704 177 608 142 630 263 751H311ZM176 221H387L283 500H280ZM533 4 471 -4 407 167H156L92 -4L36 4L240 546H328Z" glyph-name="Acircumflex.sc" horiz-adv-x="568" unicode="&#63458;" /><glyph d="M426 851Q442 851 452 841.5Q462 832 462 815Q462 797 451.5 785.5Q441 774 424 774Q410 774 399.5 784Q389 794 389 814Q389 829 398.5 840Q408 851 426 851ZM219 851Q234 851 244 841.5Q254 832 254 814Q254 797 243.5 785.5Q233 774 216 774Q202 774 191.5 783.5Q181 793 181 813Q181 829 190.5 840Q200 851 219 851ZM194 268H451L323 626H320ZM611 4 549 -4 471 213H174L98 -4L39 4L279 680H369Z" glyph-name="Adieresis" horiz-adv-x="652" unicode="&#196;" /><glyph d="M393 739Q408 739 418.5 729.5Q429 720 429 703Q429 685 418.5 673.5Q408 662 391 662Q377 662 366 672Q355 682 355 702Q355 717 365 728Q375 739 393 739ZM178 739Q193 739 203.5 729.5Q214 720 214 702Q214 685 203.5 673.5Q193 662 176 662Q162 662 151.5 671.5Q141 681 141 701Q141 717 150.5 728Q160 739 178 739ZM176 221H387L283 500H280ZM533 4 471 -4 407 167H156L92 -4L36 4L240 546H328Z" glyph-name="Adieresis.sc" horiz-adv-x="568" unicode="&#63460;" /><glyph d="M438 758Q371 766 311 781.5Q251 797 191 824L211 873Q268 847 324 830.5Q380 814 444 804ZM194 268H451L323 626H320ZM611 4 549 -4 471 213H174L98 -4L39 4L279 680H369Z" glyph-name="Agrave" horiz-adv-x="652" unicode="&#192;" /><glyph d="M383 616Q317 628 263.5 649Q210 670 159 703L186 750Q233 718 283 696.5Q333 675 392 661ZM176 221H387L283 500H280ZM533 4 471 -4 407 167H156L92 -4L36 4L240 546H328Z" glyph-name="Agrave.sc" horiz-adv-x="568" unicode="&#63456;" /><glyph d="M466 792H186V842H466ZM194 268H451L323 626H320ZM611 4 549 -4 471 213H174L98 -4L39 4L279 680H369Z" glyph-name="Amacron" horiz-adv-x="652" unicode="&#256;" /><glyph d="M439 653H139V703H439ZM176 221H387L283 500H280ZM533 4 471 -4 407 167H156L92 -4L36 4L240 546H328Z" glyph-name="Amacron.sc" horiz-adv-x="568" unicode="&#63041;" /><glyph d="M194 268H451L323 626H320ZM616 -12Q575 -27 546.5 -42Q518 -57 500.5 -72.5Q483 -88 475 -103Q467 -118 467 -132Q467 -150 479 -162.5Q491 -175 527 -175Q550 -175 570.5 -171.5Q591 -168 614 -163L625 -209Q597 -216 571 -219Q545 -222 522 -222Q459 -222 434.5 -197.5Q410 -173 410 -139Q410 -102 441.5 -65Q473 -28 547 2L471 213H174L98 -4L39 4L279 680H369Z" glyph-name="Aogonek" horiz-adv-x="652" unicode="&#260;" /><glyph d="M176 221H387L283 500H280ZM539 -12Q463 -39 430 -71.5Q397 -104 397 -130Q397 -148 409.5 -161.5Q422 -175 457 -175Q480 -175 501 -172Q522 -169 545 -164L556 -209Q528 -217 502 -220Q476 -223 453 -223Q421 -223 399 -216Q377 -209 364 -197Q351 -185 345.5 -169.5Q340 -154 340 -137Q340 -102 369 -66Q398 -30 469 0L407 167H156L92 -4L36 4L240 546H328Z" glyph-name="Aogonek.sc" horiz-adv-x="568" unicode="&#63042;" /><glyph d="M320 882Q294 882 280 866Q266 850 266 827Q266 801 281.5 785.5Q297 770 321 770Q347 770 361.5 786Q376 802 376 828Q376 850 361 866Q346 882 320 882ZM320 919Q342 919 360 911.5Q378 904 390 891Q402 878 408.5 862Q415 846 415 830Q415 788 389 761Q363 734 321 734Q277 733 252 761Q227 789 227 827Q227 845 233 861.5Q239 878 251 890.5Q263 903 280 911Q297 919 320 919ZM194 268H451L323 626H320ZM611 4 549 -4 471 213H174L98 -4L39 4L279 680H369Z" glyph-name="Aring" horiz-adv-x="652" unicode="&#197;" /><glyph d="M282 744Q257 744 245 729Q233 714 233 692Q233 668 246.5 653Q260 638 282 638Q307 638 319.5 654Q332 670 332 694Q332 714 318.5 729Q305 744 282 744ZM282 784Q325 784 349.5 757.5Q374 731 374 695Q374 651 348.5 625Q323 599 282 598Q241 598 216 624.5Q191 651 191 692Q191 730 215 757Q239 784 282 784ZM176 221H387L283 500H280ZM533 4 471 -4 407 167H156L92 -4L36 4L240 546H328Z" glyph-name="Aring.sc" horiz-adv-x="568" unicode="&#63461;" /><glyph d="M463 838Q452 812 431.5 796.5Q411 781 379 781Q360 781 345.5 786.5Q331 792 318.5 798Q306 804 294 809.5Q282 815 267 815Q250 815 239.5 807.5Q229 800 219 785L182 806Q193 829 215 845.5Q237 862 265 862Q286 862 300 856.5Q314 851 326 845Q338 839 349.5 833.5Q361 828 376 828Q409 828 425 859ZM194 268H451L323 626H320ZM611 4 549 -4 471 213H174L98 -4L39 4L279 680H369Z" glyph-name="Atilde" horiz-adv-x="652" unicode="&#195;" /><glyph d="M428 713Q416 675 394 657.5Q372 640 338 640Q317 640 301.5 646Q286 652 273.5 658.5Q261 665 249.5 671Q238 677 226 677Q206 677 194 666.5Q182 656 177 640L136 654Q145 687 168 705.5Q191 724 223 724Q245 724 260.5 718Q276 712 288.5 705.5Q301 699 312.5 693Q324 687 338 687Q358 687 368.5 696Q379 705 385 725ZM176 221H387L283 500H280ZM533 4 471 -4 407 167H156L92 -4L36 4L240 546H328Z" glyph-name="Atilde.sc" horiz-adv-x="568" unicode="&#63459;" /><glyph d="M231 369Q340 369 393 400Q446 431 446 503Q446 561 403.5 596Q361 631 267 630Q232 630 208.5 628.5Q185 627 159 625V369ZM159 53Q189 51 215.5 49.5Q242 48 274 48Q364 48 417 79.5Q470 111 470 185Q470 249 418.5 282.5Q367 316 253 316H159ZM96 676Q139 681 177 683Q215 685 264 685Q393 685 451 636.5Q509 588 509 503Q509 441 477 402Q445 363 376 346Q451 332 492 293Q533 254 533 186Q533 134 514.5 97.5Q496 61 462 37.5Q428 14 380 3.5Q332 -7 272 -7Q225 -7 185 -6Q145 -5 96 -1Z" glyph-name="B" horiz-adv-x="590" unicode="B" /><glyph d="M155 301H211Q302 301 345 326Q388 351 388 407Q388 495 242 495Q213 495 195 494Q177 493 155 491ZM155 53Q181 51 200.5 50Q220 49 247 49Q325 49 366.5 71Q408 93 408 149Q408 198 366 223.5Q324 249 230 249H155ZM93 543Q129 546 163 548Q197 550 239 550Q350 550 400 512.5Q450 475 450 410Q450 309 340 280Q401 267 436 235.5Q471 204 471 150Q471 108 455 79Q439 50 409.5 31Q380 12 338.5 3.5Q297 -5 245 -5Q205 -5 170.5 -4Q136 -3 93 -1Z" glyph-name="B.sc" horiz-adv-x="529" unicode="&#63330;" /><glyph d="M509 595Q463 613 419 623.5Q375 634 325 634Q278 634 238 618.5Q198 603 169.5 569.5Q141 536 125 483.5Q109 431 109 357Q109 198 165 121.5Q221 45 316 45Q376 45 426.5 66Q477 87 520 115L546 66Q500 34 442.5 11Q385 -12 314 -12Q184 -12 115.5 80.5Q47 173 46 357Q46 445 67.5 508.5Q89 572 126.5 612.5Q164 653 215 672Q266 691 325 691Q385 691 434.5 679Q484 667 529 647Z" glyph-name="C" horiz-adv-x="573" unicode="C" /><glyph d="M445 470Q406 484 369 492Q332 500 289 500Q210 500 161 449Q112 398 112 286Q112 168 158.5 106.5Q205 45 282 45Q333 45 375 61Q417 77 453 98L480 52Q440 27 390 9Q340 -9 280 -9Q168 -9 109 64.5Q50 138 50 283Q50 353 68 404.5Q86 456 118.5 489.5Q151 523 194.5 539Q238 555 289 555Q341 555 384 545.5Q427 536 465 520Z" glyph-name="C.sc" horiz-adv-x="513" unicode="&#63331;" /><glyph d="M458 827Q391 798 327 782Q263 766 194 758L189 806Q253 815 313.5 832Q374 849 437 878ZM509 595Q463 613 419 623.5Q375 634 325 634Q278 634 238 618.5Q198 603 169.5 569.5Q141 536 125 483.5Q109 431 109 357Q109 198 165 121.5Q221 45 316 45Q376 45 426.5 66Q477 87 520 115L546 66Q500 34 442.5 11Q385 -12 314 -12Q184 -12 115.5 80.5Q47 173 46 357Q46 445 67.5 508.5Q89 572 126.5 612.5Q164 653 215 672Q266 691 325 691Q385 691 434.5 679Q484 667 529 647Z" glyph-name="Cacute" horiz-adv-x="573" unicode="&#262;" /><glyph d="M410 702Q348 666 290 648.5Q232 631 169 623L164 670Q220 678 273.5 697.5Q327 717 385 750ZM445 470Q406 484 369 492Q332 500 289 500Q210 500 161 449Q112 398 112 286Q112 168 158.5 106.5Q205 45 282 45Q333 45 375 61Q417 77 453 98L480 52Q440 27 390 9Q340 -9 280 -9Q168 -9 109 64.5Q50 138 50 283Q50 353 68 404.5Q86 456 118.5 489.5Q151 523 194.5 539Q238 555 289 555Q341 555 384 545.5Q427 536 465 520Z" glyph-name="Cacute.sc" horiz-adv-x="513" unicode="&#63043;" /><glyph d="M475 869 336 752H289L147 869L186 893L314 797L436 892ZM509 595Q463 613 419 623.5Q375 634 325 634Q278 634 238 618.5Q198 603 169.5 569.5Q141 536 125 483.5Q109 431 109 357Q109 198 165 121.5Q221 45 316 45Q376 45 426.5 66Q477 87 520 115L546 66Q500 34 442.5 11Q385 -12 314 -12Q184 -12 115.5 80.5Q47 173 46 357Q46 445 67.5 508.5Q89 572 126.5 612.5Q164 653 215 672Q266 691 325 691Q385 691 434.5 679Q484 667 529 647Z" glyph-name="Ccaron" horiz-adv-x="573" unicode="&#268;" /><glyph d="M427 721 308 600H260L139 721L177 744L285 646L392 743ZM445 470Q406 484 369 492Q332 500 289 500Q210 500 161 449Q112 398 112 286Q112 168 158.5 106.5Q205 45 282 45Q333 45 375 61Q417 77 453 98L480 52Q440 27 390 9Q340 -9 280 -9Q168 -9 109 64.5Q50 138 50 283Q50 353 68 404.5Q86 456 118.5 489.5Q151 523 194.5 539Q238 555 289 555Q341 555 384 545.5Q427 536 465 520Z" glyph-name="Ccaron.sc" horiz-adv-x="513" unicode="&#63044;" /><glyph d="M509 595Q463 613 419 623.5Q375 634 325 634Q278 634 238 618.5Q198 603 169.5 569.5Q141 536 125 483.5Q109 431 109 357Q109 198 165 121.5Q221 45 316 45Q376 45 426.5 66Q477 87 520 115L546 66Q503 37 450.5 14.5Q398 -8 334 -11L324 -59Q379 -76 404.5 -95Q430 -114 430 -150Q430 -196 391 -213.5Q352 -231 262 -231L258 -185Q294 -185 316 -183.5Q338 -182 351 -178Q364 -174 368.5 -167.5Q373 -161 373 -151Q373 -134 355.5 -123Q338 -112 290 -101L275 -73L289 -11Q171 -3 109 89.5Q47 182 46 357Q46 445 67.5 508.5Q89 572 126.5 612.5Q164 653 215 672Q266 691 325 691Q385 691 434.5 679Q484 667 529 647Z" glyph-name="Ccedilla" horiz-adv-x="573" unicode="&#199;" /><glyph d="M445 470Q406 484 369 492Q332 500 289 500Q210 500 161 449Q112 398 112 286Q112 168 158.5 106.5Q205 45 282 45Q333 45 375 61Q417 77 453 98L480 52Q444 29 399.5 12.5Q355 -4 302 -8L290 -59Q346 -76 371 -95.5Q396 -115 396 -150Q396 -196 357.5 -213.5Q319 -231 228 -231L224 -185Q260 -185 282 -183.5Q304 -182 317 -178Q330 -174 334.5 -167.5Q339 -161 339 -151Q339 -134 321.5 -123Q304 -112 256 -101L241 -73L256 -8Q156 0 103 73Q50 146 50 283Q50 353 68 404.5Q86 456 118.5 489.5Q151 523 194.5 539Q238 555 289 555Q341 555 384 545.5Q427 536 465 520Z" glyph-name="Ccedilla.sc" horiz-adv-x="513" unicode="&#63463;" /><glyph d="M495 763 456 739 328 833 208 739 168 763 306 883H353ZM509 595Q463 613 419 623.5Q375 634 325 634Q278 634 238 618.5Q198 603 169.5 569.5Q141 536 125 483.5Q109 431 109 357Q109 198 165 121.5Q221 45 316 45Q376 45 426.5 66Q477 87 520 115L546 66Q500 34 442.5 11Q385 -12 314 -12Q184 -12 115.5 80.5Q47 173 46 357Q46 445 67.5 508.5Q89 572 126.5 612.5Q164 653 215 672Q266 691 325 691Q385 691 434.5 679Q484 667 529 647Z" glyph-name="Ccircumflex" horiz-adv-x="573" unicode="&#264;" /><glyph d="M439 630 401 607 294 704 186 608 151 630 272 751H320ZM445 470Q406 484 369 492Q332 500 289 500Q210 500 161 449Q112 398 112 286Q112 168 158.5 106.5Q205 45 282 45Q333 45 375 61Q417 77 453 98L480 52Q440 27 390 9Q340 -9 280 -9Q168 -9 109 64.5Q50 138 50 283Q50 353 68 404.5Q86 456 118.5 489.5Q151 523 194.5 539Q238 555 289 555Q341 555 384 545.5Q427 536 465 520Z" glyph-name="Ccircumflex.sc" horiz-adv-x="513" unicode="&#63016;" /><glyph d="M313 865Q330 865 342 854.5Q354 844 354 824Q354 802 341.5 789.5Q329 777 310 777Q293 777 281 787.5Q269 798 269 821Q269 840 280 852.5Q291 865 313 865ZM509 595Q463 613 419 623.5Q375 634 325 634Q278 634 238 618.5Q198 603 169.5 569.5Q141 536 125 483.5Q109 431 109 357Q109 198 165 121.5Q221 45 316 45Q376 45 426.5 66Q477 87 520 115L546 66Q500 34 442.5 11Q385 -12 314 -12Q184 -12 115.5 80.5Q47 173 46 357Q46 445 67.5 508.5Q89 572 126.5 612.5Q164 653 215 672Q266 691 325 691Q385 691 434.5 679Q484 667 529 647Z" glyph-name="Cdotaccent" horiz-adv-x="573" unicode="&#266;" /><glyph d="M291 726Q309 726 321 715.5Q333 705 333 685Q333 663 320.5 650.5Q308 638 289 638Q272 638 260 649Q248 660 248 683Q248 701 259 713.5Q270 726 291 726ZM445 470Q406 484 369 492Q332 500 289 500Q210 500 161 449Q112 398 112 286Q112 168 158.5 106.5Q205 45 282 45Q333 45 375 61Q417 77 453 98L480 52Q440 27 390 9Q340 -9 280 -9Q168 -9 109 64.5Q50 138 50 283Q50 353 68 404.5Q86 456 118.5 489.5Q151 523 194.5 539Q238 555 289 555Q341 555 384 545.5Q427 536 465 520Z" glyph-name="Cdotaccent.sc" horiz-adv-x="513" unicode="&#63017;" /><glyph d="M290 630Q252 630 222 628.5Q192 627 164 625V52Q201 48 233 47Q265 46 295 46Q368 46 418 69.5Q468 93 499.5 135Q531 177 545 236Q559 295 559 367Q559 442 537.5 492Q516 542 479 573Q442 604 393.5 617Q345 630 290 630ZM101 679Q126 681 147.5 682.5Q169 684 191 685Q213 686 237 686.5Q261 687 290 687Q358 687 418.5 671Q479 655 524.5 617.5Q570 580 596.5 519Q623 458 623 367Q623 286 605 217Q587 148 548 97.5Q509 47 447 18Q385 -11 297 -11Q270 -11 247 -10.5Q224 -10 201 -8.5Q178 -7 153.5 -5.5Q129 -4 101 -1Z" glyph-name="D" horiz-adv-x="676" unicode="D" /><glyph d="M260 497Q231 497 206 496Q181 495 158 493V50Q187 47 213 46Q239 45 264 45Q325 45 366.5 62.5Q408 80 434 112.5Q460 145 471.5 191Q483 237 483 294Q483 349 465.5 388Q448 427 418 451Q388 475 347.5 486Q307 497 260 497ZM97 545Q118 546 137 547.5Q156 549 175 550Q194 551 214.5 551.5Q235 552 260 552Q318 552 370 539Q422 526 461 495.5Q500 465 522.5 415.5Q545 366 545 294Q545 230 530 174.5Q515 119 481.5 78.5Q448 38 394.5 14.5Q341 -9 265 -9Q242 -9 222 -8.5Q202 -8 182.5 -7Q163 -6 142 -4.5Q121 -3 97 -1Z" glyph-name="D.sc" horiz-adv-x="601" unicode="&#63332;" /><glyph d="M495 869 356 752H309L167 869L206 893L334 797L456 892ZM290 630Q252 630 222 628.5Q192 627 164 625V52Q201 48 233 47Q265 46 295 46Q368 46 418 69.5Q468 93 499.5 135Q531 177 545 236Q559 295 559 367Q559 442 537.5 492Q516 542 479 573Q442 604 393.5 617Q345 630 290 630ZM101 679Q126 681 147.5 682.5Q169 684 191 685Q213 686 237 686.5Q261 687 290 687Q358 687 418.5 671Q479 655 524.5 617.5Q570 580 596.5 519Q623 458 623 367Q623 286 605 217Q587 148 548 97.5Q509 47 447 18Q385 -11 297 -11Q270 -11 247 -10.5Q224 -10 201 -8.5Q178 -7 153.5 -5.5Q129 -4 101 -1Z" glyph-name="Dcaron" horiz-adv-x="676" unicode="&#270;" /><glyph d="M441 721 322 600H274L153 721L191 744L299 646L406 743ZM260 497Q231 497 206 496Q181 495 158 493V50Q187 47 213 46Q239 45 264 45Q325 45 366.5 62.5Q408 80 434 112.5Q460 145 471.5 191Q483 237 483 294Q483 349 465.5 388Q448 427 418 451Q388 475 347.5 486Q307 497 260 497ZM97 545Q118 546 137 547.5Q156 549 175 550Q194 551 214.5 551.5Q235 552 260 552Q318 552 370 539Q422 526 461 495.5Q500 465 522.5 415.5Q545 366 545 294Q545 230 530 174.5Q515 119 481.5 78.5Q448 38 394.5 14.5Q341 -9 265 -9Q242 -9 222 -8.5Q202 -8 182.5 -7Q163 -6 142 -4.5Q121 -3 97 -1Z" glyph-name="Dcaron.sc" horiz-adv-x="601" unicode="&#63045;" /><glyph d="M300 630Q262 630 232 628.5Q202 627 174 625V368H282V314H174V52Q211 48 243 47Q275 46 305 46Q378 46 428 69.5Q478 93 509.5 135Q541 177 555 236Q569 295 569 367Q569 442 547.5 492Q526 542 489 573Q452 604 403.5 617Q355 630 300 630ZM111 368V679Q136 681 157.5 682.5Q179 684 201.5 685Q224 686 248 686.5Q272 687 301 687Q368 687 428.5 671Q489 655 534.5 617.5Q580 580 606.5 519Q633 458 633 367Q633 286 615 217Q597 148 558 97.5Q519 47 457 18Q395 -11 307 -11Q280 -11 257 -10.5Q234 -10 211 -8.5Q188 -7 163.5 -5.5Q139 -4 111 -1V314H7V368Z" glyph-name="Dcroat" horiz-adv-x="686" unicode="&#272;" /><glyph d="M269 497Q239 497 214.5 496.5Q190 496 168 495V293H261V239H168V49Q197 47 222.5 46Q248 45 273 45Q334 45 376 62.5Q418 80 444 112.5Q470 145 481.5 191Q493 237 493 294Q493 349 475.5 388Q458 427 428 451Q398 475 357 486Q316 497 269 497ZM106 293V545H107Q128 546 146.5 547.5Q165 549 184 550Q203 551 223.5 551.5Q244 552 269 552Q328 552 380 539Q432 526 470.5 495.5Q509 465 531.5 415.5Q554 366 554 294Q554 230 539 174.5Q524 119 490.5 78.5Q457 38 404 14.5Q351 -9 275 -9Q252 -9 232.5 -8.5Q213 -8 193 -7Q173 -6 152 -4.5Q131 -3 107 -1H106V239H22V293Z" glyph-name="Dcroat.sc" horiz-adv-x="610" unicode="&#63046;" /><glyph d="M118 55H528L323 625H320ZM612 0H38L278 680H370Z" glyph-name="Delta" horiz-adv-x="652" unicode="&#8710;" /><glyph d="M446 324H164V55H483V0H101V680H483V625H164V377H446Z" glyph-name="E" horiz-adv-x="507" unicode="E" /><glyph d="M393 254H158V54H426V0H97V546H425V492H158V308H393Z" glyph-name="E.sc" horiz-adv-x="456" unicode="&#63333;" /><glyph d="M440 827Q373 798 309 782Q245 766 176 758L171 806Q235 815 295.5 832Q356 849 419 878ZM446 324H164V55H483V0H101V680H483V625H164V377H446Z" glyph-name="Eacute" horiz-adv-x="507" unicode="&#201;" /><glyph d="M388 702Q326 666 268 648.5Q210 631 147 623L142 670Q198 678 251.5 697.5Q305 717 363 750ZM393 254H158V54H426V0H97V546H425V492H158V308H393Z" glyph-name="Eacute.sc" horiz-adv-x="456" unicode="&#63465;" /><glyph d="M221 869Q223 836 243.5 819.5Q264 803 294 803Q323 803 344 820Q365 837 367 869L421 864Q418 837 407 817Q396 797 379 783.5Q362 770 340 763.5Q318 757 293 757Q238 757 205 784Q172 811 167 865ZM446 324H164V55H483V0H101V680H483V625H164V377H446Z" glyph-name="Ebreve" horiz-adv-x="507" unicode="&#276;" /><glyph d="M200 718Q202 691 217 675Q232 659 260 659Q286 659 302 676Q318 693 320 717L374 710Q370 665 340 638Q310 611 260 611Q209 611 180 636.5Q151 662 147 708ZM393 254H158V54H426V0H97V546H425V492H158V308H393Z" glyph-name="Ebreve.sc" horiz-adv-x="456" unicode="&#63018;" /><glyph d="M457 865 318 748H271L129 865L168 889L296 793L418 888ZM446 324H164V55H483V0H101V680H483V625H164V377H446Z" glyph-name="Ecaron" horiz-adv-x="507" unicode="&#282;" /><glyph d="M411 721 292 600H244L123 721L161 744L269 646L376 743ZM393 254H158V54H426V0H97V546H425V492H158V308H393Z" glyph-name="Ecaron.sc" horiz-adv-x="456" unicode="&#63047;" /><glyph d="M462 763 423 739 295 833 175 739 135 763 273 883H320ZM446 324H164V55H483V0H101V680H483V625H164V377H446Z" glyph-name="Ecircumflex" horiz-adv-x="507" unicode="&#202;" /><glyph d="M410 634 372 611 265 708 157 612 122 634 243 755H291ZM393 254H158V54H426V0H97V546H425V492H158V308H393Z" glyph-name="Ecircumflex.sc" horiz-adv-x="456" unicode="&#63466;" /><glyph d="M396 851Q412 851 422 841.5Q432 832 432 815Q432 797 421.5 785.5Q411 774 394 774Q380 774 369.5 784Q359 794 359 814Q359 829 368.5 840Q378 851 396 851ZM189 851Q204 851 214 841.5Q224 832 224 814Q224 797 213.5 785.5Q203 774 186 774Q172 774 161.5 783.5Q151 793 151 813Q151 829 160.5 840Q170 851 189 851ZM446 324H164V55H483V0H101V680H483V625H164V377H446Z" glyph-name="Edieresis" horiz-adv-x="507" unicode="&#203;" /><glyph d="M370 736Q385 736 395.5 726.5Q406 717 406 700Q406 682 395.5 670.5Q385 659 368 659Q354 659 343 669Q332 679 332 699Q332 714 342 725Q352 736 370 736ZM155 736Q170 736 180.5 726.5Q191 717 191 699Q191 682 180.5 670.5Q170 659 153 659Q139 659 128.5 668.5Q118 678 118 698Q118 714 127.5 725Q137 736 155 736ZM393 254H158V54H426V0H97V546H425V492H158V308H393Z" glyph-name="Edieresis.sc" horiz-adv-x="456" unicode="&#63467;" /><glyph d="M301 865Q318 865 330 854.5Q342 844 342 824Q342 802 329.5 789.5Q317 777 298 777Q281 777 269 787.5Q257 798 257 821Q257 840 268 852.5Q279 865 301 865ZM446 324H164V55H483V0H101V680H483V625H164V377H446Z" glyph-name="Edotaccent" horiz-adv-x="507" unicode="&#278;" /><glyph d="M265 733Q283 733 295 722.5Q307 712 307 692Q307 670 294.5 657.5Q282 645 263 645Q246 645 234 656Q222 667 222 690Q222 708 233 720.5Q244 733 265 733ZM393 254H158V54H426V0H97V546H425V492H158V308H393Z" glyph-name="Edotaccent.sc" horiz-adv-x="456" unicode="&#63048;" /><glyph d="M410 758Q343 766 283 781.5Q223 797 163 824L183 873Q240 847 296 830.5Q352 814 416 804ZM446 324H164V55H483V0H101V680H483V625H164V377H446Z" glyph-name="Egrave" horiz-adv-x="507" unicode="&#200;" /><glyph d="M365 616Q299 628 245.5 649Q192 670 141 703L168 750Q215 718 265 696.5Q315 675 374 661ZM393 254H158V54H426V0H97V546H425V492H158V308H393Z" glyph-name="Egrave.sc" horiz-adv-x="456" unicode="&#63464;" /><glyph d="M432 792H152V842H432ZM446 324H164V55H483V0H101V680H483V625H164V377H446Z" glyph-name="Emacron" horiz-adv-x="507" unicode="&#274;" /><glyph d="M411 653H111V703H411ZM393 254H158V54H426V0H97V546H425V492H158V308H393Z" glyph-name="Emacron.sc" horiz-adv-x="456" unicode="&#63049;" /><glyph d="M591 -30Q591 -87 582 -127Q573 -167 554.5 -192Q536 -217 506.5 -228.5Q477 -240 437 -240Q414 -240 393 -237.5Q372 -235 350 -230L357 -179Q397 -187 436 -187Q485 -187 507.5 -157Q530 -127 530 -67V-51L164 616H161V0H101V677L198 683L528 85L530 81V680H591Z" glyph-name="Eng" horiz-adv-x="692" unicode="&#330;" /><glyph d="M518 -26Q518 -117 487 -153.5Q456 -190 386 -190Q349 -190 311 -182L317 -131Q334 -134 350.5 -136Q367 -138 384 -138Q427 -138 445 -117.5Q463 -97 463 -59V-47L153 477H151V0H97V544L184 549L461 78L463 74V546H518Z" glyph-name="Eng.sc" horiz-adv-x="615" unicode="&#63019;" /><glyph d="M446 324H164V55H483V0Q410 -29 372 -60.5Q334 -92 334 -118Q334 -136 346 -149.5Q358 -163 394 -163Q417 -163 437.5 -160Q458 -157 481 -152L492 -197Q464 -205 438.5 -208Q413 -211 389 -211Q357 -211 335.5 -204Q314 -197 301 -185Q288 -173 282.5 -157.5Q277 -142 277 -125Q277 -93 305.5 -61.5Q334 -30 394 0H101V680H483V625H164V377H446Z" glyph-name="Eogonek" horiz-adv-x="507" unicode="&#280;" /><glyph d="M393 254H158V54H426V0Q348 -32 315 -63.5Q282 -95 282 -123Q282 -141 294 -152Q306 -163 341 -163Q364 -163 385 -160Q406 -157 429 -152L440 -197Q412 -205 386 -208Q360 -211 337 -211Q274 -211 249 -187.5Q224 -164 224 -130Q224 -96 248 -64Q272 -32 332 0H97V546H425V492H158V308H393Z" glyph-name="Eogonek.sc" horiz-adv-x="456" unicode="&#63050;" /><glyph d="M300 630Q262 630 232 628.5Q202 627 174 625V368H282V314H174V52Q211 48 243 47Q275 46 305 46Q378 46 428 69.5Q478 93 509.5 135Q541 177 555 236Q569 295 569 367Q569 442 547.5 492Q526 542 489 573Q452 604 403.5 617Q355 630 300 630ZM111 368V679Q136 681 157.5 682.5Q179 684 201.5 685Q224 686 248 686.5Q272 687 301 687Q368 687 428.5 671Q489 655 534.5 617.5Q580 580 606.5 519Q633 458 633 367Q633 286 615 217Q597 148 558 97.5Q519 47 457 18Q395 -11 307 -11Q280 -11 257 -10.5Q234 -10 211 -8.5Q188 -7 163.5 -5.5Q139 -4 111 -1V314H7V368Z" glyph-name="Eth" horiz-adv-x="686" unicode="&#208;" /><glyph d="M269 497Q239 497 214.5 496.5Q190 496 168 495V293H261V239H168V49Q197 47 222.5 46Q248 45 273 45Q334 45 376 62.5Q418 80 444 112.5Q470 145 481.5 191Q493 237 493 294Q493 349 475.5 388Q458 427 428 451Q398 475 357 486Q316 497 269 497ZM106 293V545H107Q128 546 146.5 547.5Q165 549 184 550Q203 551 223.5 551.5Q244 552 269 552Q328 552 380 539Q432 526 470.5 495.5Q509 465 531.5 415.5Q554 366 554 294Q554 230 539 174.5Q524 119 490.5 78.5Q457 38 404 14.5Q351 -9 275 -9Q252 -9 232.5 -8.5Q213 -8 193 -7Q173 -6 152 -4.5Q131 -3 107 -1H106V239H22V293Z" glyph-name="Eth.sc" horiz-adv-x="610" unicode="&#63472;" /><glyph d="M468 222H151Q169 126 218 84.5Q267 43 345 43Q375 43 399 48Q423 53 445 61.5Q467 70 487.5 81.5Q508 93 529 107L556 60Q510 28 461.5 8Q413 -12 343 -12Q238 -12 173.5 44Q109 100 89 222H35V275H83Q80 306 80 343V371H35V424H85Q94 488 118 532.5Q142 577 176.5 605Q211 633 254 645.5Q297 658 345 658Q373 658 396 655.5Q419 653 440.5 648.5Q462 644 483.5 637.5Q505 631 530 622L512 571Q468 586 431 594.5Q394 603 345 603Q268 603 215.5 562.5Q163 522 147 424H468V371H141V343Q141 324 141 307.5Q141 291 143 275H468Z" glyph-name="Euro" horiz-adv-x="580" unicode="&#8364;" /><glyph d="M486 236H148Q184 43 342 43Q402 43 448 61.5Q494 80 537 107L564 59Q518 27 464.5 7.5Q411 -12 340 -12Q129 -12 87 236H31V290H80Q77 326 77 366V393H31V446H82Q91 511 115 557.5Q139 604 173.5 634Q208 664 251 678Q294 692 343 692Q399 692 443.5 683Q488 674 538 655L520 604Q476 619 434.5 627.5Q393 636 343 636Q264 636 211.5 591.5Q159 547 143 446H486V393H138V366Q138 324 141 290H486Z" glyph-name="Euro.cap" horiz-adv-x="580" unicode="&#59734;" /><glyph d="M490 625H169V366H442V311H169V0H106V680H490Z" glyph-name="F" horiz-adv-x="497" unicode="F" /><glyph d="M432 492H162V302H390V248H162V0H101V546H432Z" glyph-name="F.sc" horiz-adv-x="448" unicode="&#63334;" /><glyph d="M545 591Q500 608 451.5 621Q403 634 342 634Q231 634 169.5 565.5Q108 497 108 355Q108 209 164 127Q220 45 339 45Q433 45 509 83L506 310H302V365H565L572 50H571Q522 21 462.5 4.5Q403 -12 337 -12Q260 -12 205 13.5Q150 39 114.5 87Q79 135 62 203Q45 271 45 355Q45 437 66 500Q87 563 126 605.5Q165 648 220 669.5Q275 691 343 691Q412 691 467 676.5Q522 662 565 645Z" glyph-name="G" horiz-adv-x="661" unicode="G" /><glyph d="M477 467Q439 481 397 490.5Q355 500 304 500Q210 500 160 444Q110 388 110 285Q110 169 157 107Q204 45 301 45Q377 45 439 70L435 238H270V291H496L501 39Q459 16 407.5 3.5Q356 -9 299 -9Q233 -9 185.5 11.5Q138 32 108 70.5Q78 109 63.5 163Q49 217 49 284Q49 349 67 399.5Q85 450 118.5 484.5Q152 519 199.5 537Q247 555 305 555Q364 555 411.5 543.5Q459 532 496 518Z" glyph-name="G.sc" horiz-adv-x="584" unicode="&#63335;" /><glyph d="M268 869Q270 836 290.5 819.5Q311 803 341 803Q370 803 391 820Q412 837 414 869L468 864Q465 837 454 817Q443 797 426 783.5Q409 770 387 763.5Q365 757 340 757Q285 757 252 784Q219 811 214 865ZM545 591Q500 608 451.5 621Q403 634 342 634Q231 634 169.5 565.5Q108 497 108 355Q108 209 164 127Q220 45 339 45Q433 45 509 83L506 310H302V365H565L572 50H571Q522 21 462.5 4.5Q403 -12 337 -12Q260 -12 205 13.5Q150 39 114.5 87Q79 135 62 203Q45 271 45 355Q45 437 66 500Q87 563 126 605.5Q165 648 220 669.5Q275 691 343 691Q412 691 467 676.5Q522 662 565 645Z" glyph-name="Gbreve" horiz-adv-x="661" unicode="&#286;" /><glyph d="M240 718Q242 691 257 675Q272 659 300 659Q326 659 342 676Q358 693 360 717L414 710Q410 665 380 638Q350 611 300 611Q249 611 220 636.5Q191 662 187 708ZM477 467Q439 481 397 490.5Q355 500 304 500Q210 500 160 444Q110 388 110 285Q110 169 157 107Q204 45 301 45Q377 45 439 70L435 238H270V291H496L501 39Q459 16 407.5 3.5Q356 -9 299 -9Q233 -9 185.5 11.5Q138 32 108 70.5Q78 109 63.5 163Q49 217 49 284Q49 349 67 399.5Q85 450 118.5 484.5Q152 519 199.5 537Q247 555 305 555Q364 555 411.5 543.5Q459 532 496 518Z" glyph-name="Gbreve.sc" horiz-adv-x="584" unicode="&#63051;" /><glyph d="M507 763 468 739 340 833 220 739 180 763 318 883H365ZM545 591Q500 608 451.5 621Q403 634 342 634Q231 634 169.5 565.5Q108 497 108 355Q108 209 164 127Q220 45 339 45Q433 45 509 83L506 310H302V365H565L572 50H571Q522 21 462.5 4.5Q403 -12 337 -12Q260 -12 205 13.5Q150 39 114.5 87Q79 135 62 203Q45 271 45 355Q45 437 66 500Q87 563 126 605.5Q165 648 220 669.5Q275 691 343 691Q412 691 467 676.5Q522 662 565 645Z" glyph-name="Gcircumflex" horiz-adv-x="661" unicode="&#284;" /><glyph d="M451 630 413 607 306 704 198 608 163 630 284 751H332ZM477 467Q439 481 397 490.5Q355 500 304 500Q210 500 160 444Q110 388 110 285Q110 169 157 107Q204 45 301 45Q377 45 439 70L435 238H270V291H496L501 39Q459 16 407.5 3.5Q356 -9 299 -9Q233 -9 185.5 11.5Q138 32 108 70.5Q78 109 63.5 163Q49 217 49 284Q49 349 67 399.5Q85 450 118.5 484.5Q152 519 199.5 537Q247 555 305 555Q364 555 411.5 543.5Q459 532 496 518Z" glyph-name="Gcircumflex.sc" horiz-adv-x="584" unicode="&#63020;" /><glyph d="M280 -244Q301 -206 309.5 -181.5Q318 -157 318 -140Q318 -124 309.5 -115.5Q301 -107 274 -102L285 -52Q333 -58 352.5 -76.5Q372 -95 372 -128Q372 -157 361 -187Q350 -217 332 -250ZM545 591Q500 608 451.5 621Q403 634 342 634Q231 634 169.5 565.5Q108 497 108 355Q108 209 164 127Q220 45 339 45Q433 45 509 83L506 310H302V365H565L572 50H571Q522 21 462.5 4.5Q403 -12 337 -12Q260 -12 205 13.5Q150 39 114.5 87Q79 135 62 203Q45 271 45 355Q45 437 66 500Q87 563 126 605.5Q165 648 220 669.5Q275 691 343 691Q412 691 467 676.5Q522 662 565 645Z" glyph-name="Gcommaaccent" horiz-adv-x="661" unicode="&#290;" /><glyph d="M256 -244Q277 -206 285.5 -181.5Q294 -157 294 -140Q294 -124 285.5 -115.5Q277 -107 250 -102L261 -52Q309 -58 328.5 -76.5Q348 -95 348 -128Q348 -157 337 -187Q326 -217 308 -250ZM477 467Q439 481 397 490.5Q355 500 304 500Q210 500 160 444Q110 388 110 285Q110 169 157 107Q204 45 301 45Q377 45 439 70L435 238H270V291H496L501 39Q459 16 407.5 3.5Q356 -9 299 -9Q233 -9 185.5 11.5Q138 32 108 70.5Q78 109 63.5 163Q49 217 49 284Q49 349 67 399.5Q85 450 118.5 484.5Q152 519 199.5 537Q247 555 305 555Q364 555 411.5 543.5Q459 532 496 518Z" glyph-name="Gcommaaccent.sc" horiz-adv-x="584" unicode="&#63052;" /><glyph d="M341 865Q358 865 370 854.5Q382 844 382 824Q382 802 369.5 789.5Q357 777 338 777Q321 777 309 787.5Q297 798 297 821Q297 840 308 852.5Q319 865 341 865ZM545 591Q500 608 451.5 621Q403 634 342 634Q231 634 169.5 565.5Q108 497 108 355Q108 209 164 127Q220 45 339 45Q433 45 509 83L506 310H302V365H565L572 50H571Q522 21 462.5 4.5Q403 -12 337 -12Q260 -12 205 13.5Q150 39 114.5 87Q79 135 62 203Q45 271 45 355Q45 437 66 500Q87 563 126 605.5Q165 648 220 669.5Q275 691 343 691Q412 691 467 676.5Q522 662 565 645Z" glyph-name="Gdotaccent" horiz-adv-x="661" unicode="&#288;" /><glyph d="M305 731Q323 731 335 720.5Q347 710 347 690Q347 668 334.5 655.5Q322 643 303 643Q286 643 274 654Q262 665 262 688Q262 706 273 718.5Q284 731 305 731ZM477 467Q439 481 397 490.5Q355 500 304 500Q210 500 160 444Q110 388 110 285Q110 169 157 107Q204 45 301 45Q377 45 439 70L435 238H270V291H496L501 39Q459 16 407.5 3.5Q356 -9 299 -9Q233 -9 185.5 11.5Q138 32 108 70.5Q78 109 63.5 163Q49 217 49 284Q49 349 67 399.5Q85 450 118.5 484.5Q152 519 199.5 537Q247 555 305 555Q364 555 411.5 543.5Q459 532 496 518Z" glyph-name="Gdotaccent.sc" horiz-adv-x="584" unicode="&#63021;" /><glyph d="M565 0H503V321H164V0H101V680H164V376H503V680H565Z" glyph-name="H" horiz-adv-x="666" unicode="H" /><glyph d="M496 0H435V253H158V0H97V546H158V307H435V546H496Z" glyph-name="H.sc" horiz-adv-x="593" unicode="&#63336;" /><glyph d="M174 337H513V499H174ZM643 499H575V0H513V282H174V0H111V499H43V550H111V680H174V550H513V680H575V550H643Z" glyph-name="Hbar" horiz-adv-x="686" unicode="&#294;" /><glyph d="M166 269H444V397H166ZM563 397H505V0H444V215H166V0H105V397H47V447H105V546H166V447H444V546H505V447H563Z" glyph-name="Hbar.sc" horiz-adv-x="610" unicode="&#63022;" /><glyph d="M496 763 457 739 329 833 209 739 169 763 307 883H354ZM565 0H503V321H164V0H101V680H164V376H503V680H565Z" glyph-name="Hcircumflex" horiz-adv-x="666" unicode="&#292;" /><glyph d="M440 634 402 611 295 708 187 612 152 634 273 755H321ZM496 0H435V253H158V0H97V546H158V307H435V546H496Z" glyph-name="Hcircumflex.sc" horiz-adv-x="593" unicode="&#63023;" /><glyph d="M165 0H101V680H165Z" glyph-name="I" horiz-adv-x="266" unicode="I" /><glyph d="M158 0H97V546H158Z" glyph-name="I.sc" horiz-adv-x="254" unicode="&#63337;" /><glyph d="M552 167Q552 71 509.5 29Q467 -13 392 -13Q360 -13 333.5 -9Q307 -5 278 1L287 54Q341 42 391 42Q439 42 464 70Q489 98 489 165V680H552ZM165 0H101V680H165Z" glyph-name="IJ" horiz-adv-x="657" unicode="&#306;" /><glyph d="M448 183Q448 133 434.5 96Q421 59 396 35Q371 11 336 -1Q301 -13 259 -13Q207 -13 165 -6Q123 1 92 8L102 65Q131 59 171.5 51.5Q212 44 258 44Q316 44 350.5 76.5Q385 109 385 180V680H448ZM165 166H101V680H165Z" glyph-name="IJ.alt" horiz-adv-x="553" unicode="&#59530;" /><glyph d="M487 133Q487 58 450.5 24Q414 -10 349 -10Q323 -10 299.5 -7.5Q276 -5 251 0L260 53Q306 44 348 44Q387 44 406.5 65Q426 86 426 137V547H487ZM158 0H97V546H158Z" glyph-name="IJ.sc" horiz-adv-x="588" unicode="&#63025;" /><glyph d="M158 132H97V546H158ZM480 156Q480 67 431.5 28.5Q383 -10 291 -10Q231 -10 183.5 -2.5Q136 5 91 15L100 69Q146 59 189.5 51.5Q233 44 290 44Q361 44 390 70.5Q419 97 419 160V547H480Z" glyph-name="IJ.sc.alt" horiz-adv-x="582" unicode="&#59690;" /><glyph d="M278 827Q211 798 147 782Q83 766 14 758L9 806Q73 815 133.5 832Q194 849 257 878ZM165 0H101V680H165Z" glyph-name="Iacute" horiz-adv-x="266" unicode="&#205;" /><glyph d="M254 702Q192 666 134 648.5Q76 631 13 623L8 670Q64 678 117.5 697.5Q171 717 229 750ZM158 0H97V546H158Z" glyph-name="Iacute.sc" horiz-adv-x="254" unicode="&#63469;" /><glyph d="M61 869Q63 836 83.5 819.5Q104 803 134 803Q163 803 184 820Q205 837 207 869L261 864Q258 837 247 817Q236 797 219 783.5Q202 770 180 763.5Q158 757 133 757Q78 757 45 784Q12 811 7 865ZM165 0H101V680H165Z" glyph-name="Ibreve" horiz-adv-x="266" unicode="&#300;" /><glyph d="M65 718Q67 691 82 675Q97 659 125 659Q151 659 167 676Q183 693 185 717L239 710Q235 665 205 638Q175 611 125 611Q74 611 45 636.5Q16 662 12 708ZM158 0H97V546H158Z" glyph-name="Ibreve.sc" horiz-adv-x="254" unicode="&#63024;" /><glyph d="M299 763 260 739 132 833 12 739 -28 763 110 883H157ZM165 0H101V680H165Z" glyph-name="Icircumflex" horiz-adv-x="266" unicode="&#206;" /><glyph d="M270 634 232 611 125 708 17 612 -18 634 103 755H151ZM158 0H97V546H158Z" glyph-name="Icircumflex.sc" horiz-adv-x="254" unicode="&#63470;" /><glyph d="M236 851Q252 851 262 841.5Q272 832 272 815Q272 797 261.5 785.5Q251 774 234 774Q220 774 209.5 784Q199 794 199 814Q199 829 208.5 840Q218 851 236 851ZM29 851Q44 851 54 841.5Q64 832 64 814Q64 797 53.5 785.5Q43 774 26 774Q12 774 1.5 783.5Q-9 793 -9 813Q-9 829 0.5 840Q10 851 29 851ZM165 0H101V680H165Z" glyph-name="Idieresis" horiz-adv-x="266" unicode="&#207;" /><glyph d="M235 739Q250 739 260.5 729.5Q271 720 271 703Q271 685 260.5 673.5Q250 662 233 662Q219 662 208 672Q197 682 197 702Q197 717 207 728Q217 739 235 739ZM20 739Q35 739 45.5 729.5Q56 720 56 702Q56 685 45.5 673.5Q35 662 18 662Q4 662 -6.5 671.5Q-17 681 -17 701Q-17 717 -7.5 728Q2 739 20 739ZM158 0H97V546H158Z" glyph-name="Idieresis.sc" horiz-adv-x="254" unicode="&#63471;" /><glyph d="M135 865Q152 865 164 854.5Q176 844 176 824Q176 802 163.5 789.5Q151 777 132 777Q115 777 103 787.5Q91 798 91 821Q91 840 102 852.5Q113 865 135 865ZM165 0H101V680H165Z" glyph-name="Idotaccent" horiz-adv-x="266" unicode="&#304;" /><glyph d="M128 726Q146 726 158 715.5Q170 705 170 685Q170 663 157.5 650.5Q145 638 126 638Q109 638 97 649Q85 660 85 683Q85 701 96 713.5Q107 726 128 726ZM158 0H97V546H158Z" glyph-name="Idotaccent.sc" horiz-adv-x="254" unicode="&#63078;" /><glyph d="M248 758Q181 766 121 781.5Q61 797 1 824L21 873Q78 847 134 830.5Q190 814 254 804ZM165 0H101V680H165Z" glyph-name="Igrave" horiz-adv-x="266" unicode="&#204;" /><glyph d="M232 616Q166 628 112.5 649Q59 670 8 703L35 750Q82 718 132 696.5Q182 675 241 661ZM158 0H97V546H158Z" glyph-name="Igrave.sc" horiz-adv-x="254" unicode="&#63468;" /><glyph d="M273 792H-7V842H273ZM165 0H101V680H165Z" glyph-name="Imacron" horiz-adv-x="266" unicode="&#298;" /><glyph d="M277 653H-23V703H277ZM158 0H97V546H158Z" glyph-name="Imacron.sc" horiz-adv-x="254" unicode="&#63053;" /><glyph d="M165 -1Q92 -30 60.5 -61.5Q29 -93 29 -119Q29 -137 41 -150.5Q53 -164 89 -164Q112 -164 132.5 -161Q153 -158 176 -153L187 -198Q159 -206 133.5 -209Q108 -212 84 -212Q52 -212 30.5 -205Q9 -198 -4 -186Q-17 -174 -22.5 -158.5Q-28 -143 -28 -126Q-28 -91 0.5 -55.5Q29 -20 101 13V680H165Z" glyph-name="Iogonek" horiz-adv-x="266" unicode="&#302;" /><glyph d="M97 546H158V0Q118 -15 92.5 -30Q67 -45 52.5 -60Q38 -75 32.5 -89.5Q27 -104 27 -117Q27 -135 39 -149Q51 -163 84 -163Q107 -163 124.5 -160Q142 -157 165 -152L175 -197Q147 -205 124.5 -208Q102 -211 79 -211Q18 -211 -6 -185.5Q-30 -160 -30 -124Q-30 -106 -24 -87.5Q-18 -69 -3.5 -51Q11 -33 35.5 -15Q60 3 97 20Z" glyph-name="Iogonek.sc" horiz-adv-x="254" unicode="&#63054;" /><glyph d="M275 838Q264 812 243.5 796.5Q223 781 191 781Q172 781 157.5 786.5Q143 792 130.5 798Q118 804 106 809.5Q94 815 79 815Q62 815 51.5 807.5Q41 800 31 785L-6 806Q5 829 27 845.5Q49 862 77 862Q98 862 112 856.5Q126 851 138 845Q150 839 161.5 833.5Q173 828 188 828Q221 828 237 859ZM165 0H101V680H165Z" glyph-name="Itilde" horiz-adv-x="266" unicode="&#296;" /><glyph d="M273 713Q261 675 239 657.5Q217 640 183 640Q162 640 146.5 646Q131 652 118.5 658.5Q106 665 94.5 671Q83 677 71 677Q51 677 39 666.5Q27 656 22 640L-19 654Q-10 687 13 705.5Q36 724 68 724Q90 724 105.5 718Q121 712 133.5 705.5Q146 699 157.5 693Q169 687 183 687Q203 687 213.5 696Q224 705 230 725ZM158 0H97V546H158Z" glyph-name="Itilde.sc" horiz-adv-x="254" unicode="&#63026;" /><glyph d="M286 167Q286 71 243.5 29Q201 -13 126 -13Q94 -13 67.5 -9Q41 -5 12 1L21 54Q75 42 125 42Q173 42 198 70Q223 98 223 165V680H286Z" glyph-name="J" horiz-adv-x="391" unicode="J" /><glyph d="M256 133Q256 58 219.5 24Q183 -10 118 -10Q92 -10 68.5 -7.5Q45 -5 20 0L29 53Q75 44 117 44Q156 44 175.5 65Q195 86 195 137V547H256Z" glyph-name="J.sc" horiz-adv-x="356" unicode="&#63338;" /><glyph d="M420 763 381 739 253 833 133 739 93 763 231 883H278ZM286 167Q286 71 243.5 29Q201 -13 126 -13Q94 -13 67.5 -9Q41 -5 12 1L21 54Q75 42 125 42Q173 42 198 70Q223 98 223 165V680H286Z" glyph-name="Jcircumflex" horiz-adv-x="391" unicode="&#308;" /><glyph d="M372 630 334 607 227 704 119 608 84 630 205 751H253ZM256 133Q256 58 219.5 24Q183 -10 118 -10Q92 -10 68.5 -7.5Q45 -5 20 0L29 53Q75 44 117 44Q156 44 175.5 65Q195 86 195 137V547H256Z" glyph-name="Jcircumflex.sc" horiz-adv-x="356" unicode="&#63027;" /><glyph d="M539 671Q498 593 467 536Q436 479 410.5 439.5Q385 400 362.5 375Q340 350 317 336L576 11L510 -6L257 313Q237 309 214 308Q191 307 164 307V0H101V680H164V361Q199 361 225 363.5Q251 366 272.5 376Q294 386 313.5 406.5Q333 427 356.5 463.5Q380 500 410 554Q440 608 481 686Z" glyph-name="K" horiz-adv-x="588" unicode="K" /><glyph d="M492 537Q459 480 433 436.5Q407 393 385 360.5Q363 328 344 305.5Q325 283 306 269L527 5L459 -5L252 241Q215 231 158 231V0H97V546H158V284Q188 284 210.5 287.5Q233 291 252.5 300.5Q272 310 290.5 328Q309 346 330 375.5Q351 405 377 448.5Q403 492 438 553Z" glyph-name="K.sc" horiz-adv-x="547" unicode="&#63339;" /><glyph d="M263 -244Q284 -206 292.5 -181.5Q301 -157 301 -140Q301 -124 292.5 -115.5Q284 -107 257 -102L268 -52Q316 -58 335.5 -76.5Q355 -95 355 -128Q355 -157 344 -187Q333 -217 315 -250ZM539 671Q498 593 467 536Q436 479 410.5 439.5Q385 400 362.5 375Q340 350 317 336L576 11L510 -6L257 313Q237 309 214 308Q191 307 164 307V0H101V680H164V361Q199 361 225 363.5Q251 366 272.5 376Q294 386 313.5 406.5Q333 427 356.5 463.5Q380 500 410 554Q440 608 481 686Z" glyph-name="Kcommaaccent" horiz-adv-x="588" unicode="&#310;" /><glyph d="M235 -244Q256 -206 264.5 -181.5Q273 -157 273 -140Q273 -124 264.5 -115.5Q256 -107 229 -102L240 -52Q288 -58 307.5 -76.5Q327 -95 327 -128Q327 -157 316 -187Q305 -217 287 -250ZM492 537Q459 480 433 436.5Q407 393 385 360.5Q363 328 344 305.5Q325 283 306 269L527 5L459 -5L252 241Q215 231 158 231V0H97V546H158V284Q188 284 210.5 287.5Q233 291 252.5 300.5Q272 310 290.5 328Q309 346 330 375.5Q351 405 377 448.5Q403 492 438 553Z" glyph-name="Kcommaaccent.sc" horiz-adv-x="547" unicode="&#63055;" /><glyph d="M166 55H484V0H103V680H166Z" glyph-name="L" horiz-adv-x="491" unicode="L" /><glyph d="M160 54H427V0H99V546H160Z" glyph-name="L.sc" horiz-adv-x="442" unicode="&#63340;" /><glyph d="M313 827Q246 798 182 782Q118 766 49 758L44 806Q108 815 168.5 832Q229 849 292 878ZM166 55H484V0H103V680H166Z" glyph-name="Lacute" horiz-adv-x="491" unicode="&#313;" /><glyph d="M284 702Q222 666 164 648.5Q106 631 43 623L38 670Q94 678 147.5 697.5Q201 717 259 750ZM160 54H427V0H99V546H160Z" glyph-name="Lacute.sc" horiz-adv-x="442" unicode="&#63056;" /><glyph d="M231 586Q254 633 261.5 656.5Q269 680 269 694Q269 713 260.5 722Q252 731 233 736L248 785Q287 775 305.5 756Q324 737 324 705Q324 680 313.5 651Q303 622 280 575ZM166 55H484V0H103V680H166Z" glyph-name="Lcaron" horiz-adv-x="491" unicode="&#317;" /><glyph d="M210 478Q233 525 240.5 548.5Q248 572 248 586Q248 605 239.5 614Q231 623 212 628L227 677Q266 667 284.5 648Q303 629 303 597Q303 572 292.5 543Q282 514 259 467ZM160 54H427V0H99V546H160Z" glyph-name="Lcaron.sc" horiz-adv-x="442" unicode="&#63057;" /><glyph d="M243 -244Q264 -206 272.5 -181.5Q281 -157 281 -140Q281 -124 272.5 -115.5Q264 -107 237 -102L248 -52Q296 -58 315.5 -76.5Q335 -95 335 -128Q335 -157 324 -187Q313 -217 295 -250ZM166 55H484V0H103V680H166Z" glyph-name="Lcommaaccent" horiz-adv-x="491" unicode="&#315;" /><glyph d="M215 -244Q236 -206 244.5 -181.5Q253 -157 253 -140Q253 -124 244.5 -115.5Q236 -107 209 -102L220 -52Q268 -58 287.5 -76.5Q307 -95 307 -128Q307 -157 296 -187Q285 -217 267 -250ZM160 54H427V0H99V546H160Z" glyph-name="Lcommaaccent.sc" horiz-adv-x="442" unicode="&#63058;" /><glyph d="M373 375Q390 375 402 365.5Q414 356 414 336Q414 314 402 301.5Q390 289 371 289Q355 289 343 299.5Q331 310 331 332Q331 349 342 362Q353 375 373 375ZM166 55H484V0H103V680H166Z" glyph-name="Ldot" horiz-adv-x="491" unicode="&#319;" /><glyph d="M342 333Q359 333 371 323.5Q383 314 383 294Q383 272 371 259.5Q359 247 340 247Q324 247 312 257.5Q300 268 300 290Q300 307 311 320Q322 333 342 333ZM160 54H427V0H99V546H160Z" glyph-name="Ldot.sc" horiz-adv-x="442" unicode="&#63028;" /><glyph d="M336 439 176 351V55H494V0H113V316L34 273L30 336L113 381V680H176V416L332 501Z" glyph-name="Lslash" horiz-adv-x="501" unicode="&#321;" /><glyph d="M311 348 168 277V54H435V0H107V247L40 214L36 271L107 306V546H168V336L307 405Z" glyph-name="Lslash.sc" horiz-adv-x="450" unicode="&#63225;" /><glyph d="M788 3 728 -3 672 599H670L457 54H394L178 602H177L125 -3L68 3L129 678L209 683L426 133H427L644 682L722 679Z" glyph-name="M" horiz-adv-x="857" unicode="M" /><glyph d="M683 2 622 -4 570 468H569L404 40H334L174 470L120 -3L64 2L128 544L207 549L372 106L539 548L621 543Z" glyph-name="M.sc" horiz-adv-x="748" unicode="&#63341;" /><glyph d="M591 3 492 -4 164 616H161V0H101V677L198 683L529 58H530V680H591Z" glyph-name="N" horiz-adv-x="692" unicode="N" /><glyph d="M518 2 429 -3 153 477H151V0H97V544L184 549L462 64H464V546H518Z" glyph-name="N.sc" horiz-adv-x="615" unicode="&#63342;" /><glyph d="M477 827Q410 798 346 782Q282 766 213 758L208 806Q272 815 332.5 832Q393 849 456 878ZM591 3 492 -4 164 616H161V0H101V677L198 683L529 58H530V680H591Z" glyph-name="Nacute" horiz-adv-x="692" unicode="&#323;" /><glyph d="M438 702Q376 666 318 648.5Q260 631 197 623L192 670Q248 678 301.5 697.5Q355 717 413 750ZM518 2 429 -3 153 477H151V0H97V544L184 549L462 64H464V546H518Z" glyph-name="Nacute.sc" horiz-adv-x="615" unicode="&#63059;" /><glyph d="M504 869 365 752H318L176 869L215 893L343 797L465 892ZM591 3 492 -4 164 616H161V0H101V677L198 683L529 58H530V680H591Z" glyph-name="Ncaron" horiz-adv-x="692" unicode="&#327;" /><glyph d="M461 721 342 600H294L173 721L211 744L319 646L426 743ZM518 2 429 -3 153 477H151V0H97V544L184 549L462 64H464V546H518Z" glyph-name="Ncaron.sc" horiz-adv-x="615" unicode="&#63060;" /><glyph d="M291 -244Q312 -206 320.5 -181.5Q329 -157 329 -140Q329 -124 320.5 -115.5Q312 -107 285 -102L296 -52Q344 -58 363.5 -76.5Q383 -95 383 -128Q383 -157 372 -187Q361 -217 343 -250ZM591 3 492 -4 164 616H161V0H101V677L198 683L529 58H530V680H591Z" glyph-name="Ncommaaccent" horiz-adv-x="692" unicode="&#325;" /><glyph d="M256 -244Q277 -206 285.5 -181.5Q294 -157 294 -140Q294 -124 285.5 -115.5Q277 -107 250 -102L261 -52Q309 -58 328.5 -76.5Q348 -95 348 -128Q348 -157 337 -187Q326 -217 308 -250ZM518 2 429 -3 153 477H151V0H97V544L184 549L462 64H464V546H518Z" glyph-name="Ncommaaccent.sc" horiz-adv-x="615" unicode="&#63061;" /><glyph d="M496 838Q485 812 464.5 796.5Q444 781 412 781Q393 781 378.5 786.5Q364 792 351.5 798Q339 804 327 809.5Q315 815 300 815Q283 815 272.5 807.5Q262 800 252 785L215 806Q226 829 248 845.5Q270 862 298 862Q319 862 333 856.5Q347 851 359 845Q371 839 382.5 833.5Q394 828 409 828Q442 828 458 859ZM591 3 492 -4 164 616H161V0H101V677L198 683L529 58H530V680H591Z" glyph-name="Ntilde" horiz-adv-x="692" unicode="&#209;" /><glyph d="M460 713Q448 675 426 657.5Q404 640 370 640Q349 640 333.5 646Q318 652 305.5 658.5Q293 665 281.5 671Q270 677 258 677Q238 677 226 666.5Q214 656 209 640L168 654Q177 687 200 705.5Q223 724 255 724Q277 724 292.5 718Q308 712 320.5 705.5Q333 699 344.5 693Q356 687 370 687Q390 687 400.5 696Q411 705 417 725ZM518 2 429 -3 153 477H151V0H97V544L184 549L462 64H464V546H518Z" glyph-name="Ntilde.sc" horiz-adv-x="615" unicode="&#63473;" /><glyph d="M346 636Q235 636 176 564Q117 492 117 339Q117 195 175.5 118.5Q234 42 345 42Q454 42 511 121Q568 200 568 362Q568 428 552 479Q536 530 507 565Q478 600 437 618Q396 636 346 636ZM346 692Q415 692 468 668.5Q521 645 558 602Q595 559 614 498Q633 437 633 362Q633 275 615 205Q597 135 561 86.5Q525 38 471.5 12Q418 -14 347 -14Q199 -14 126 78.5Q53 171 53 339Q53 422 71.5 487.5Q90 553 126.5 598.5Q163 644 218 668Q273 692 346 692Z" glyph-name="O" horiz-adv-x="686" unicode="O" /><glyph d="M304 501Q211 501 162.5 443.5Q114 386 114 271Q114 164 162.5 104Q211 44 303 44Q394 44 441.5 106Q489 168 489 291Q489 340 475.5 379Q462 418 437 445Q412 472 378 486.5Q344 501 304 501ZM304 555Q363 555 409 536Q455 517 486.5 482.5Q518 448 534.5 399Q551 350 551 290Q551 221 535.5 165Q520 109 489 70Q458 31 412 10Q366 -11 305 -11Q178 -11 115 64Q52 139 52 272Q52 404 117 479.5Q182 555 304 555Z" glyph-name="O.sc" horiz-adv-x="603" unicode="&#63343;" /><glyph d="M337 636Q225 636 167.5 564.5Q110 493 110 339Q110 195 168.5 118.5Q227 42 337 42Q382 42 420 57V620Q384 636 337 636ZM794 625H482V378H761V324H482V55L797 53V-1L435 0Q390 -14 339 -14Q192 -14 118.5 78.5Q45 171 45 339Q45 422 63 487.5Q81 553 117.5 598.5Q154 644 209 668Q264 692 337 692Q385 692 426 680H794Z" glyph-name="OE" horiz-adv-x="818" unicode="&#338;" /><glyph d="M300 501Q111 501 111 273Q111 165 159.5 104.5Q208 44 300 44Q342 44 371 55V489Q338 501 300 501ZM693 492H432V309H664V255H432V55L696 54V0H383Q345 -11 302 -11Q175 -11 112 64Q49 139 49 272Q49 404 111.5 479.5Q174 555 300 555Q321 555 340 552.5Q359 550 376 546H693Z" glyph-name="OE.sc" horiz-adv-x="724" unicode="&#63226;" /><glyph d="M470 827Q403 798 339 782Q275 766 206 758L201 806Q265 815 325.5 832Q386 849 449 878ZM346 636Q235 636 176 564Q117 492 117 339Q117 195 175.5 118.5Q234 42 345 42Q454 42 511 121Q568 200 568 362Q568 428 552 479Q536 530 507 565Q478 600 437 618Q396 636 346 636ZM346 692Q415 692 468 668.5Q521 645 558 602Q595 559 614 498Q633 437 633 362Q633 275 615 205Q597 135 561 86.5Q525 38 471.5 12Q418 -14 347 -14Q199 -14 126 78.5Q53 171 53 339Q53 422 71.5 487.5Q90 553 126.5 598.5Q163 644 218 668Q273 692 346 692Z" glyph-name="Oacute" horiz-adv-x="686" unicode="&#211;" /><glyph d="M428 702Q366 666 308 648.5Q250 631 187 623L182 670Q238 678 291.5 697.5Q345 717 403 750ZM304 501Q211 501 162.5 443.5Q114 386 114 271Q114 164 162.5 104Q211 44 303 44Q394 44 441.5 106Q489 168 489 291Q489 340 475.5 379Q462 418 437 445Q412 472 378 486.5Q344 501 304 501ZM304 555Q363 555 409 536Q455 517 486.5 482.5Q518 448 534.5 399Q551 350 551 290Q551 221 535.5 165Q520 109 489 70Q458 31 412 10Q366 -11 305 -11Q178 -11 115 64Q52 139 52 272Q52 404 117 479.5Q182 555 304 555Z" glyph-name="Oacute.sc" horiz-adv-x="603" unicode="&#63475;" /><glyph d="M271 869Q273 836 293.5 819.5Q314 803 344 803Q373 803 394 820Q415 837 417 869L471 864Q468 837 457 817Q446 797 429 783.5Q412 770 390 763.5Q368 757 343 757Q288 757 255 784Q222 811 217 865ZM346 636Q235 636 176 564Q117 492 117 339Q117 195 175.5 118.5Q234 42 345 42Q454 42 511 121Q568 200 568 362Q568 428 552 479Q536 530 507 565Q478 600 437 618Q396 636 346 636ZM346 692Q415 692 468 668.5Q521 645 558 602Q595 559 614 498Q633 437 633 362Q633 275 615 205Q597 135 561 86.5Q525 38 471.5 12Q418 -14 347 -14Q199 -14 126 78.5Q53 171 53 339Q53 422 71.5 487.5Q90 553 126.5 598.5Q163 644 218 668Q273 692 346 692Z" glyph-name="Obreve" horiz-adv-x="686" unicode="&#334;" /><glyph d="M241 725Q243 698 258 682Q273 666 301 666Q327 666 343 683Q359 700 361 724L415 717Q411 672 381 645Q351 618 301 618Q250 618 221 643.5Q192 669 188 715ZM304 501Q211 501 162.5 443.5Q114 386 114 271Q114 164 162.5 104Q211 44 303 44Q394 44 441.5 106Q489 168 489 291Q489 340 475.5 379Q462 418 437 445Q412 472 378 486.5Q344 501 304 501ZM304 555Q363 555 409 536Q455 517 486.5 482.5Q518 448 534.5 399Q551 350 551 290Q551 221 535.5 165Q520 109 489 70Q458 31 412 10Q366 -11 305 -11Q178 -11 115 64Q52 139 52 272Q52 404 117 479.5Q182 555 304 555Z" glyph-name="Obreve.sc" horiz-adv-x="603" unicode="&#63029;" /><glyph d="M506 763 467 739 339 833 219 739 179 763 317 883H364ZM346 636Q235 636 176 564Q117 492 117 339Q117 195 175.5 118.5Q234 42 345 42Q454 42 511 121Q568 200 568 362Q568 428 552 479Q536 530 507 565Q478 600 437 618Q396 636 346 636ZM346 692Q415 692 468 668.5Q521 645 558 602Q595 559 614 498Q633 437 633 362Q633 275 615 205Q597 135 561 86.5Q525 38 471.5 12Q418 -14 347 -14Q199 -14 126 78.5Q53 171 53 339Q53 422 71.5 487.5Q90 553 126.5 598.5Q163 644 218 668Q273 692 346 692Z" glyph-name="Ocircumflex" horiz-adv-x="686" unicode="&#212;" /><glyph d="M454 634 416 611 309 708 201 612 166 634 287 755H335ZM304 501Q211 501 162.5 443.5Q114 386 114 271Q114 164 162.5 104Q211 44 303 44Q394 44 441.5 106Q489 168 489 291Q489 340 475.5 379Q462 418 437 445Q412 472 378 486.5Q344 501 304 501ZM304 555Q363 555 409 536Q455 517 486.5 482.5Q518 448 534.5 399Q551 350 551 290Q551 221 535.5 165Q520 109 489 70Q458 31 412 10Q366 -11 305 -11Q178 -11 115 64Q52 139 52 272Q52 404 117 479.5Q182 555 304 555Z" glyph-name="Ocircumflex.sc" horiz-adv-x="603" unicode="&#63476;" /><glyph d="M450 851Q466 851 476 841.5Q486 832 486 815Q486 797 475.5 785.5Q465 774 448 774Q434 774 423.5 784Q413 794 413 814Q413 829 422.5 840Q432 851 450 851ZM243 851Q258 851 268 841.5Q278 832 278 814Q278 797 267.5 785.5Q257 774 240 774Q226 774 215.5 783.5Q205 793 205 813Q205 829 214.5 840Q224 851 243 851ZM346 636Q235 636 176 564Q117 492 117 339Q117 195 175.5 118.5Q234 42 345 42Q454 42 511 121Q568 200 568 362Q568 428 552 479Q536 530 507 565Q478 600 437 618Q396 636 346 636ZM346 692Q415 692 468 668.5Q521 645 558 602Q595 559 614 498Q633 437 633 362Q633 275 615 205Q597 135 561 86.5Q525 38 471.5 12Q418 -14 347 -14Q199 -14 126 78.5Q53 171 53 339Q53 422 71.5 487.5Q90 553 126.5 598.5Q163 644 218 668Q273 692 346 692Z" glyph-name="Odieresis" horiz-adv-x="686" unicode="&#214;" /><glyph d="M411 739Q426 739 436.5 729.5Q447 720 447 703Q447 685 436.5 673.5Q426 662 409 662Q395 662 384 672Q373 682 373 702Q373 717 383 728Q393 739 411 739ZM196 739Q211 739 221.5 729.5Q232 720 232 702Q232 685 221.5 673.5Q211 662 194 662Q180 662 169.5 671.5Q159 681 159 701Q159 717 168.5 728Q178 739 196 739ZM304 501Q211 501 162.5 443.5Q114 386 114 271Q114 164 162.5 104Q211 44 303 44Q394 44 441.5 106Q489 168 489 291Q489 340 475.5 379Q462 418 437 445Q412 472 378 486.5Q344 501 304 501ZM304 555Q363 555 409 536Q455 517 486.5 482.5Q518 448 534.5 399Q551 350 551 290Q551 221 535.5 165Q520 109 489 70Q458 31 412 10Q366 -11 305 -11Q178 -11 115 64Q52 139 52 272Q52 404 117 479.5Q182 555 304 555Z" glyph-name="Odieresis.sc" horiz-adv-x="603" unicode="&#63478;" /><glyph d="M468 758Q401 766 341 781.5Q281 797 221 824L241 873Q298 847 354 830.5Q410 814 474 804ZM346 636Q235 636 176 564Q117 492 117 339Q117 195 175.5 118.5Q234 42 345 42Q454 42 511 121Q568 200 568 362Q568 428 552 479Q536 530 507 565Q478 600 437 618Q396 636 346 636ZM346 692Q415 692 468 668.5Q521 645 558 602Q595 559 614 498Q633 437 633 362Q633 275 615 205Q597 135 561 86.5Q525 38 471.5 12Q418 -14 347 -14Q199 -14 126 78.5Q53 171 53 339Q53 422 71.5 487.5Q90 553 126.5 598.5Q163 644 218 668Q273 692 346 692Z" glyph-name="Ograve" horiz-adv-x="686" unicode="&#210;" /><glyph d="M397 616Q331 628 277.5 649Q224 670 173 703L200 750Q247 718 297 696.5Q347 675 406 661ZM304 501Q211 501 162.5 443.5Q114 386 114 271Q114 164 162.5 104Q211 44 303 44Q394 44 441.5 106Q489 168 489 291Q489 340 475.5 379Q462 418 437 445Q412 472 378 486.5Q344 501 304 501ZM304 555Q363 555 409 536Q455 517 486.5 482.5Q518 448 534.5 399Q551 350 551 290Q551 221 535.5 165Q520 109 489 70Q458 31 412 10Q366 -11 305 -11Q178 -11 115 64Q52 139 52 272Q52 404 117 479.5Q182 555 304 555Z" glyph-name="Ograve.sc" horiz-adv-x="603" unicode="&#63474;" /><glyph d="M407 880Q385 857 366.5 839.5Q348 822 330.5 805.5Q313 789 294.5 773.5Q276 758 254 740L223 773Q244 791 262.5 807.5Q281 824 298 840.5Q315 857 333 875Q351 893 371 916ZM580 877Q556 856 535.5 837.5Q515 819 495.5 802.5Q476 786 455.5 770Q435 754 412 738L383 773Q405 790 425 806Q445 822 464.5 839.5Q484 857 504 875.5Q524 894 546 915ZM346 636Q235 636 176 564Q117 492 117 339Q117 195 175.5 118.5Q234 42 345 42Q454 42 511 121Q568 200 568 362Q568 428 552 479Q536 530 507 565Q478 600 437 618Q396 636 346 636ZM346 692Q415 692 468 668.5Q521 645 558 602Q595 559 614 498Q633 437 633 362Q633 275 615 205Q597 135 561 86.5Q525 38 471.5 12Q418 -14 347 -14Q199 -14 126 78.5Q53 171 53 339Q53 422 71.5 487.5Q90 553 126.5 598.5Q163 644 218 668Q273 692 346 692Z" glyph-name="Ohungarumlaut" horiz-adv-x="686" unicode="&#336;" /><glyph d="M371 757Q353 732 337 711.5Q321 691 306 672.5Q291 654 275 636Q259 618 240 598L205 626Q222 645 237.5 663.5Q253 682 268.5 701.5Q284 721 299.5 742.5Q315 764 332 789ZM548 752Q526 728 507.5 708Q489 688 470.5 669.5Q452 651 433.5 633.5Q415 616 393 598L361 630Q402 667 436.5 703Q471 739 511 786ZM304 501Q211 501 162.5 443.5Q114 386 114 271Q114 164 162.5 104Q211 44 303 44Q394 44 441.5 106Q489 168 489 291Q489 340 475.5 379Q462 418 437 445Q412 472 378 486.5Q344 501 304 501ZM304 555Q363 555 409 536Q455 517 486.5 482.5Q518 448 534.5 399Q551 350 551 290Q551 221 535.5 165Q520 109 489 70Q458 31 412 10Q366 -11 305 -11Q178 -11 115 64Q52 139 52 272Q52 404 117 479.5Q182 555 304 555Z" glyph-name="Ohungarumlaut.sc" horiz-adv-x="603" unicode="&#63062;" /><glyph d="M483 792H203V842H483ZM346 636Q235 636 176 564Q117 492 117 339Q117 195 175.5 118.5Q234 42 345 42Q454 42 511 121Q568 200 568 362Q568 428 552 479Q536 530 507 565Q478 600 437 618Q396 636 346 636ZM346 692Q415 692 468 668.5Q521 645 558 602Q595 559 614 498Q633 437 633 362Q633 275 615 205Q597 135 561 86.5Q525 38 471.5 12Q418 -14 347 -14Q199 -14 126 78.5Q53 171 53 339Q53 422 71.5 487.5Q90 553 126.5 598.5Q163 644 218 668Q273 692 346 692Z" glyph-name="Omacron" horiz-adv-x="686" unicode="&#332;" /><glyph d="M456 653H156V703H456ZM304 501Q211 501 162.5 443.5Q114 386 114 271Q114 164 162.5 104Q211 44 303 44Q394 44 441.5 106Q489 168 489 291Q489 340 475.5 379Q462 418 437 445Q412 472 378 486.5Q344 501 304 501ZM304 555Q363 555 409 536Q455 517 486.5 482.5Q518 448 534.5 399Q551 350 551 290Q551 221 535.5 165Q520 109 489 70Q458 31 412 10Q366 -11 305 -11Q178 -11 115 64Q52 139 52 272Q52 404 117 479.5Q182 555 304 555Z" glyph-name="Omacron.sc" horiz-adv-x="603" unicode="&#63063;" /><glyph d="M609 0H390V51Q468 88 514.5 167.5Q561 247 561 381Q561 433 547.5 479Q534 525 506.5 560Q479 595 437 615.5Q395 636 338 636Q276 636 232.5 615Q189 594 162 557Q135 520 122.5 469.5Q110 419 110 359Q110 252 153 175Q196 98 266 51V0H48V51H177Q107 107 76 190.5Q45 274 45 368Q45 432 61.5 491Q78 550 113 594.5Q148 639 204 665.5Q260 692 339 692Q414 692 468.5 667Q523 642 557.5 598.5Q592 555 608.5 497.5Q625 440 625 376Q625 264 588.5 184.5Q552 105 480 51H609Z" glyph-name="Omega" horiz-adv-x="671" unicode="&#937;" /><glyph d="M568 362Q568 430 551 482Q534 534 503 569L229 71Q278 42 345 42Q454 42 511 121.5Q568 201 568 362ZM346 636Q235 636 176 564Q117 492 117 339Q117 181 189 104L463 603Q413 636 346 636ZM346 692Q388 692 424.5 682.5Q461 673 492 656L548 758L594 735L534 626Q582 583 607.5 516Q633 449 633 362Q633 275 615 205Q597 135 561 86.5Q525 38 471.5 12Q418 -14 347 -14Q262 -14 200 18L143 -87L97 -64L157 46Q104 91 78.5 164.5Q53 238 53 339Q53 422 71.5 487.5Q90 553 126.5 598.5Q163 644 218 668Q273 692 346 692Z" glyph-name="Oslash" horiz-adv-x="686" unicode="&#216;" /><glyph d="M489 291Q489 340 475.5 379Q462 418 437 445L212 64Q252 44 303 44Q394 44 441.5 106Q489 168 489 291ZM304 501Q210 501 162 443.5Q114 386 114 271Q114 155 170 96L396 478Q355 501 304 501ZM304 555Q339 555 369 548Q399 541 425 528L472 607L519 583L469 499Q509 464 530 411Q551 358 551 290Q551 221 535.5 165Q520 109 489 70Q458 31 412 10Q366 -11 305 -11Q269 -11 239 -4.5Q209 2 183 13L135 -68L87 -45L138 41Q94 77 73 135.5Q52 194 52 272Q52 404 117 479.5Q182 555 304 555Z" glyph-name="Oslash.sc" horiz-adv-x="603" unicode="&#63480;" /><glyph d="M568 362Q568 430 551 482Q534 534 503 569L229 71Q278 42 345 42Q454 42 511 121.5Q568 201 568 362ZM346 636Q235 636 176 564Q117 492 117 339Q117 181 189 104L463 603Q413 636 346 636ZM346 692Q388 692 424.5 682.5Q461 673 492 656L548 758L594 735L534 626Q582 583 607.5 516Q633 449 633 362Q633 275 615 205Q597 135 561 86.5Q525 38 471.5 12Q418 -14 347 -14Q262 -14 200 18L143 -87L97 -64L157 46Q104 91 78.5 164.5Q53 238 53 339Q53 422 71.5 487.5Q90 553 126.5 598.5Q163 644 218 668Q273 692 346 692ZM481 827Q414 798 350 782Q286 766 217 758L212 806Q276 815 336.5 832Q397 849 460 878Z" glyph-name="Oslashacute" horiz-adv-x="686" unicode="&#510;" /><glyph d="M429 702Q367 666 309 648.5Q251 631 188 623L183 670Q239 678 292.5 697.5Q346 717 404 750ZM489 291Q489 340 475.5 379Q462 418 437 445L212 64Q252 44 303 44Q394 44 441.5 106Q489 168 489 291ZM304 501Q210 501 162 443.5Q114 386 114 271Q114 155 170 96L396 478Q355 501 304 501ZM304 555Q339 555 369 548Q399 541 425 528L472 607L519 583L469 499Q509 464 530 411Q551 358 551 290Q551 221 535.5 165Q520 109 489 70Q458 31 412 10Q366 -11 305 -11Q269 -11 239 -4.5Q209 2 183 13L135 -68L87 -45L138 41Q94 77 73 135.5Q52 194 52 272Q52 404 117 479.5Q182 555 304 555Z" glyph-name="Oslashacute.sc" horiz-adv-x="603" unicode="&#63015;" /><glyph d="M477 838Q466 812 445.5 796.5Q425 781 393 781Q374 781 359.5 786.5Q345 792 332.5 798Q320 804 308 809.5Q296 815 281 815Q264 815 253.5 807.5Q243 800 233 785L196 806Q207 829 229 845.5Q251 862 279 862Q300 862 314 856.5Q328 851 340 845Q352 839 363.5 833.5Q375 828 390 828Q423 828 439 859ZM346 636Q235 636 176 564Q117 492 117 339Q117 195 175.5 118.5Q234 42 345 42Q454 42 511 121Q568 200 568 362Q568 428 552 479Q536 530 507 565Q478 600 437 618Q396 636 346 636ZM346 692Q415 692 468 668.5Q521 645 558 602Q595 559 614 498Q633 437 633 362Q633 275 615 205Q597 135 561 86.5Q525 38 471.5 12Q418 -14 347 -14Q199 -14 126 78.5Q53 171 53 339Q53 422 71.5 487.5Q90 553 126.5 598.5Q163 644 218 668Q273 692 346 692Z" glyph-name="Otilde" horiz-adv-x="686" unicode="&#213;" /><glyph d="M449 713Q437 675 415 657.5Q393 640 359 640Q338 640 322.5 646Q307 652 294.5 658.5Q282 665 270.5 671Q259 677 247 677Q227 677 215 666.5Q203 656 198 640L157 654Q166 687 189 705.5Q212 724 244 724Q266 724 281.5 718Q297 712 309.5 705.5Q322 699 333.5 693Q345 687 359 687Q379 687 389.5 696Q400 705 406 725ZM304 501Q211 501 162.5 443.5Q114 386 114 271Q114 164 162.5 104Q211 44 303 44Q394 44 441.5 106Q489 168 489 291Q489 340 475.5 379Q462 418 437 445Q412 472 378 486.5Q344 501 304 501ZM304 555Q363 555 409 536Q455 517 486.5 482.5Q518 448 534.5 399Q551 350 551 290Q551 221 535.5 165Q520 109 489 70Q458 31 412 10Q366 -11 305 -11Q178 -11 115 64Q52 139 52 272Q52 404 117 479.5Q182 555 304 555Z" glyph-name="Otilde.sc" horiz-adv-x="603" unicode="&#63477;" /><glyph d="M164 295H218Q333 293 394.5 334.5Q456 376 456 474Q456 548 407.5 590Q359 632 264 632Q233 632 211.5 630Q190 628 164 624ZM101 0V674Q123 677 142 679Q161 681 179.5 682.5Q198 684 217.5 685Q237 686 260 686Q387 686 452.5 628Q518 570 518 472Q518 410 496.5 366Q475 322 436 294Q397 266 341.5 253Q286 240 217 240H164V0Z" glyph-name="P" horiz-adv-x="529" unicode="P" /><glyph d="M159 250 197 249Q296 247 344.5 278Q393 309 393 376Q393 431 353 463.5Q313 496 237 496Q211 496 195 494.5Q179 493 159 491ZM97 0V542Q116 544 132.5 546Q149 548 164.5 549Q180 550 196.5 550.5Q213 551 233 551Q342 551 398.5 505Q455 459 455 381Q455 287 388.5 241Q322 195 204 195H159V0Z" glyph-name="P.sc" horiz-adv-x="475" unicode="&#63344;" /><glyph d="M346 637Q239 637 178 564.5Q117 492 117 339Q117 195 176.5 118.5Q236 42 345 42Q452 42 510 121.5Q568 201 568 362Q568 428 552 479.5Q536 531 507 566Q478 601 437 619Q396 637 346 637ZM346 692Q415 692 468 669Q521 646 558 603Q595 560 614 499Q633 438 633 362Q633 253 605.5 172.5Q578 92 522 45Q536 16 552.5 -1.5Q569 -19 589 -29.5Q609 -40 634 -43.5Q659 -47 690 -47H708L703 -103H679Q646 -103 617 -98.5Q588 -94 562.5 -81.5Q537 -69 514.5 -46.5Q492 -24 473 13Q446 0 414.5 -7Q383 -14 347 -14Q200 -14 126.5 78Q53 170 53 338Q53 421 72 487Q91 553 127.5 598.5Q164 644 219 668Q274 692 346 692Z" glyph-name="Q" horiz-adv-x="686" unicode="Q" /><glyph d="M301 501Q207 501 159 443.5Q111 386 111 271Q111 164 159 104Q207 44 300 44Q390 44 438 106Q486 168 486 291Q486 340 472 379Q458 418 433.5 445Q409 472 375 486.5Q341 501 301 501ZM301 555Q360 555 406 536Q452 517 483.5 482.5Q515 448 531.5 399.5Q548 351 548 291Q548 203 524 138.5Q500 74 452 36Q476 -9 511 -22.5Q546 -36 597 -36H612L608 -90H587Q523 -90 478 -70Q433 -50 401 6Q356 -11 302 -11Q175 -11 112 64Q49 139 49 272Q49 404 114 479.5Q179 555 301 555Z" glyph-name="Q.sc" horiz-adv-x="599" unicode="&#63345;" /><glyph d="M164 321H238Q285 321 324.5 328.5Q364 336 393 355Q422 374 438.5 406.5Q455 439 455 489Q455 557 409.5 594.5Q364 632 268 632Q235 632 213.5 630.5Q192 629 164 625ZM487 -8 309 271Q292 269 274.5 268Q257 267 238 267H164V0H101V675Q122 678 141 680Q160 682 179.5 683.5Q199 685 221 685.5Q243 686 270 686Q392 686 455 632.5Q518 579 518 487Q518 406 479.5 357Q441 308 373 286L550 8Z" glyph-name="R" horiz-adv-x="590" unicode="R" /><glyph d="M159 267H215Q300 267 346.5 294.5Q393 322 393 388Q393 440 356 468Q319 496 241 496Q215 496 198.5 495Q182 494 159 491ZM422 -7 289 218Q256 212 220 212H159V0H97V542Q115 544 131.5 546Q148 548 164.5 549Q181 550 199.5 550.5Q218 551 242 551Q347 551 401 509Q455 467 455 392Q455 331 424.5 291.5Q394 252 342 232L482 7Z" glyph-name="R.sc" horiz-adv-x="528" unicode="&#63346;" /><glyph d="M435 827Q368 798 304 782Q240 766 171 758L166 806Q230 815 290.5 832Q351 849 414 878ZM164 321H238Q285 321 324.5 328.5Q364 336 393 355Q422 374 438.5 406.5Q455 439 455 489Q455 557 409.5 594.5Q364 632 268 632Q235 632 213.5 630.5Q192 629 164 625ZM487 -8 309 271Q292 269 274.5 268Q257 267 238 267H164V0H101V675Q122 678 141 680Q160 682 179.5 683.5Q199 685 221 685.5Q243 686 270 686Q392 686 455 632.5Q518 579 518 487Q518 406 479.5 357Q441 308 373 286L550 8Z" glyph-name="Racute" horiz-adv-x="590" unicode="&#340;" /><glyph d="M398 702Q336 666 278 648.5Q220 631 157 623L152 670Q208 678 261.5 697.5Q315 717 373 750ZM159 267H215Q300 267 346.5 294.5Q393 322 393 388Q393 440 356 468Q319 496 241 496Q215 496 198.5 495Q182 494 159 491ZM422 -7 289 218Q256 212 220 212H159V0H97V542Q115 544 131.5 546Q148 548 164.5 549Q181 550 199.5 550.5Q218 551 242 551Q347 551 401 509Q455 467 455 392Q455 331 424.5 291.5Q394 252 342 232L482 7Z" glyph-name="Racute.sc" horiz-adv-x="528" unicode="&#63064;" /><glyph d="M445 869 306 752H259L117 869L156 893L284 797L406 892ZM164 321H238Q285 321 324.5 328.5Q364 336 393 355Q422 374 438.5 406.5Q455 439 455 489Q455 557 409.5 594.5Q364 632 268 632Q235 632 213.5 630.5Q192 629 164 625ZM487 -8 309 271Q292 269 274.5 268Q257 267 238 267H164V0H101V675Q122 678 141 680Q160 682 179.5 683.5Q199 685 221 685.5Q243 686 270 686Q392 686 455 632.5Q518 579 518 487Q518 406 479.5 357Q441 308 373 286L550 8Z" glyph-name="Rcaron" horiz-adv-x="590" unicode="&#344;" /><glyph d="M404 721 285 600H237L116 721L154 744L262 646L369 743ZM159 267H215Q300 267 346.5 294.5Q393 322 393 388Q393 440 356 468Q319 496 241 496Q215 496 198.5 495Q182 494 159 491ZM422 -7 289 218Q256 212 220 212H159V0H97V542Q115 544 131.5 546Q148 548 164.5 549Q181 550 199.5 550.5Q218 551 242 551Q347 551 401 509Q455 467 455 392Q455 331 424.5 291.5Q394 252 342 232L482 7Z" glyph-name="Rcaron.sc" horiz-adv-x="528" unicode="&#63065;" /><glyph d="M254 -244Q275 -206 283.5 -181.5Q292 -157 292 -140Q292 -124 283.5 -115.5Q275 -107 248 -102L259 -52Q307 -58 326.5 -76.5Q346 -95 346 -128Q346 -157 335 -187Q324 -217 306 -250ZM164 321H238Q285 321 324.5 328.5Q364 336 393 355Q422 374 438.5 406.5Q455 439 455 489Q455 557 409.5 594.5Q364 632 268 632Q235 632 213.5 630.5Q192 629 164 625ZM487 -8 309 271Q292 269 274.5 268Q257 267 238 267H164V0H101V675Q122 678 141 680Q160 682 179.5 683.5Q199 685 221 685.5Q243 686 270 686Q392 686 455 632.5Q518 579 518 487Q518 406 479.5 357Q441 308 373 286L550 8Z" glyph-name="Rcommaaccent" horiz-adv-x="590" unicode="&#342;" /><glyph d="M228 -244Q249 -206 257.5 -181.5Q266 -157 266 -140Q266 -124 257.5 -115.5Q249 -107 222 -102L233 -52Q281 -58 300.5 -76.5Q320 -95 320 -128Q320 -157 309 -187Q298 -217 280 -250ZM159 267H215Q300 267 346.5 294.5Q393 322 393 388Q393 440 356 468Q319 496 241 496Q215 496 198.5 495Q182 494 159 491ZM422 -7 289 218Q256 212 220 212H159V0H97V542Q115 544 131.5 546Q148 548 164.5 549Q181 550 199.5 550.5Q218 551 242 551Q347 551 401 509Q455 467 455 392Q455 331 424.5 291.5Q394 252 342 232L482 7Z" glyph-name="Rcommaaccent.sc" horiz-adv-x="528" unicode="&#63066;" /><glyph d="M438 613Q391 624 349.5 631Q308 638 257 638Q188 638 148.5 609.5Q109 581 109 523Q109 499 115.5 479.5Q122 460 140 443.5Q158 427 190.5 412Q223 397 275 382Q325 367 364 350Q403 333 429.5 311Q456 289 470 260Q484 231 484 192Q484 157 473.5 120.5Q463 84 437 54Q411 24 367.5 5Q324 -14 259 -14Q190 -14 134 0Q78 14 28 34L46 90Q70 81 93.5 72.5Q117 64 142 57Q167 50 195.5 46Q224 42 259 42Q302 42 333 53.5Q364 65 383 84.5Q402 104 411 130.5Q420 157 420 188Q420 217 407 238.5Q394 260 369.5 276.5Q345 293 309 306Q273 319 227 332Q171 348 135.5 368Q100 388 80 412Q60 436 52.5 463Q45 490 45 520Q45 596 99 644Q153 692 258 692Q318 692 363 684Q408 676 450 668Z" glyph-name="S" horiz-adv-x="517" unicode="S" /><glyph d="M386 481Q346 490 310.5 495.5Q275 501 231 501Q174 501 142.5 478Q111 455 111 416Q111 400 115.5 386Q120 372 134 359Q148 346 175.5 334Q203 322 248 309Q291 297 324.5 282.5Q358 268 380.5 250Q403 232 414.5 208.5Q426 185 426 154Q426 127 417 97.5Q408 68 386 44Q364 20 326.5 4.5Q289 -11 233 -11Q173 -11 125 0Q77 11 34 26L49 81Q90 66 132 54.5Q174 43 233 43Q304 43 333.5 73.5Q363 104 363 148Q363 171 353 187Q343 203 323.5 215.5Q304 228 274 238Q244 248 205 259Q159 272 128.5 287.5Q98 303 80 322Q62 341 55 363Q48 385 48 412Q48 442 60 468Q72 494 95.5 513.5Q119 533 153 544Q187 555 232 555Q283 555 322 549Q361 543 397 537Z" glyph-name="S.sc" horiz-adv-x="465" unicode="&#63347;" /><glyph d="M394 827Q327 798 263 782Q199 766 130 758L125 806Q189 815 249.5 832Q310 849 373 878ZM438 613Q391 624 349.5 631Q308 638 257 638Q188 638 148.5 609.5Q109 581 109 523Q109 499 115.5 479.5Q122 460 140 443.5Q158 427 190.5 412Q223 397 275 382Q325 367 364 350Q403 333 429.5 311Q456 289 470 260Q484 231 484 192Q484 157 473.5 120.5Q463 84 437 54Q411 24 367.5 5Q324 -14 259 -14Q190 -14 134 0Q78 14 28 34L46 90Q70 81 93.5 72.5Q117 64 142 57Q167 50 195.5 46Q224 42 259 42Q302 42 333 53.5Q364 65 383 84.5Q402 104 411 130.5Q420 157 420 188Q420 217 407 238.5Q394 260 369.5 276.5Q345 293 309 306Q273 319 227 332Q171 348 135.5 368Q100 388 80 412Q60 436 52.5 463Q45 490 45 520Q45 596 99 644Q153 692 258 692Q318 692 363 684Q408 676 450 668Z" glyph-name="Sacute" horiz-adv-x="517" unicode="&#346;" /><glyph d="M361 702Q299 666 241 648.5Q183 631 120 623L115 670Q171 678 224.5 697.5Q278 717 336 750ZM386 481Q346 490 310.5 495.5Q275 501 231 501Q174 501 142.5 478Q111 455 111 416Q111 400 115.5 386Q120 372 134 359Q148 346 175.5 334Q203 322 248 309Q291 297 324.5 282.5Q358 268 380.5 250Q403 232 414.5 208.5Q426 185 426 154Q426 127 417 97.5Q408 68 386 44Q364 20 326.5 4.5Q289 -11 233 -11Q173 -11 125 0Q77 11 34 26L49 81Q90 66 132 54.5Q174 43 233 43Q304 43 333.5 73.5Q363 104 363 148Q363 171 353 187Q343 203 323.5 215.5Q304 228 274 238Q244 248 205 259Q159 272 128.5 287.5Q98 303 80 322Q62 341 55 363Q48 385 48 412Q48 442 60 468Q72 494 95.5 513.5Q119 533 153 544Q187 555 232 555Q283 555 322 549Q361 543 397 537Z" glyph-name="Sacute.sc" horiz-adv-x="465" unicode="&#63067;" /><glyph d="M428 869 289 752H242L100 869L139 893L267 797L389 892ZM438 613Q391 624 349.5 631Q308 638 257 638Q188 638 148.5 609.5Q109 581 109 523Q109 499 115.5 479.5Q122 460 140 443.5Q158 427 190.5 412Q223 397 275 382Q325 367 364 350Q403 333 429.5 311Q456 289 470 260Q484 231 484 192Q484 157 473.5 120.5Q463 84 437 54Q411 24 367.5 5Q324 -14 259 -14Q190 -14 134 0Q78 14 28 34L46 90Q70 81 93.5 72.5Q117 64 142 57Q167 50 195.5 46Q224 42 259 42Q302 42 333 53.5Q364 65 383 84.5Q402 104 411 130.5Q420 157 420 188Q420 217 407 238.5Q394 260 369.5 276.5Q345 293 309 306Q273 319 227 332Q171 348 135.5 368Q100 388 80 412Q60 436 52.5 463Q45 490 45 520Q45 596 99 644Q153 692 258 692Q318 692 363 684Q408 676 450 668Z" glyph-name="Scaron" horiz-adv-x="517" unicode="&#352;" /><glyph d="M377 721 258 600H210L89 721L127 744L235 646L342 743ZM386 481Q346 490 310.5 495.5Q275 501 231 501Q174 501 142.5 478Q111 455 111 416Q111 400 115.5 386Q120 372 134 359Q148 346 175.5 334Q203 322 248 309Q291 297 324.5 282.5Q358 268 380.5 250Q403 232 414.5 208.5Q426 185 426 154Q426 127 417 97.5Q408 68 386 44Q364 20 326.5 4.5Q289 -11 233 -11Q173 -11 125 0Q77 11 34 26L49 81Q90 66 132 54.5Q174 43 233 43Q304 43 333.5 73.5Q363 104 363 148Q363 171 353 187Q343 203 323.5 215.5Q304 228 274 238Q244 248 205 259Q159 272 128.5 287.5Q98 303 80 322Q62 341 55 363Q48 385 48 412Q48 442 60 468Q72 494 95.5 513.5Q119 533 153 544Q187 555 232 555Q283 555 322 549Q361 543 397 537Z" glyph-name="Scaron.sc" horiz-adv-x="465" unicode="&#63229;" /><glyph d="M438 613Q391 624 349.5 631Q308 638 257 638Q188 638 148.5 609.5Q109 581 109 523Q109 499 115.5 479.5Q122 460 140 443.5Q158 427 190.5 412Q223 397 275 382Q325 367 364 350Q403 333 429.5 311Q456 289 470 260Q484 231 484 192Q484 157 473.5 120.5Q463 84 437 54Q411 24 367.5 5Q324 -14 259 -14H256L246 -59Q301 -76 326.5 -95Q352 -114 352 -150Q352 -196 313 -213.5Q274 -231 184 -231L180 -185Q216 -185 238 -183.5Q260 -182 273 -178Q286 -174 290.5 -167.5Q295 -161 295 -151Q295 -134 277.5 -123Q260 -112 212 -101L197 -73L211 -12Q158 -7 113.5 5Q69 17 28 34L46 90Q70 81 93.5 72.5Q117 64 142 57Q167 50 195.5 46Q224 42 259 42Q302 42 333 53.5Q364 65 383 84.5Q402 104 411 130.5Q420 157 420 188Q420 217 407 238.5Q394 260 369.5 276.5Q345 293 309 306Q273 319 227 332Q171 348 135.5 368Q100 388 80 412Q60 436 52.5 463Q45 490 45 520Q45 596 99 644Q153 692 258 692Q318 692 363 684Q408 676 450 668Z" glyph-name="Scedilla" horiz-adv-x="517" unicode="&#350;" /><glyph d="M386 481Q346 490 310.5 495.5Q275 501 231 501Q174 501 142.5 478Q111 455 111 416Q111 400 115.5 386Q120 372 134 359Q148 346 175.5 334Q203 322 248 309Q291 297 324.5 282.5Q358 268 380.5 250Q403 232 414.5 208.5Q426 185 426 154Q426 127 417.5 99Q409 71 388 47Q367 23 332 7Q297 -9 245 -11L234 -59Q289 -76 314.5 -95Q340 -114 340 -150Q340 -196 301 -213.5Q262 -231 172 -231L168 -185Q204 -185 226 -183.5Q248 -182 261 -178Q274 -174 278.5 -167.5Q283 -161 283 -151Q283 -134 265.5 -123Q248 -112 200 -101L185 -73L200 -10Q151 -7 111 3Q71 13 34 26L49 81Q90 66 132 54.5Q174 43 233 43Q304 43 333.5 73.5Q363 104 363 148Q363 171 353 187Q343 203 323.5 215.5Q304 228 274 238Q244 248 205 259Q159 272 128.5 287.5Q98 303 80 322Q62 341 55 363Q48 385 48 412Q48 442 60 468Q72 494 95.5 513.5Q119 533 153 544Q187 555 232 555Q283 555 322 549Q361 543 397 537Z" glyph-name="Scedilla.sc" horiz-adv-x="465" unicode="&#63068;" /><glyph d="M431 763 392 739 264 833 144 739 104 763 242 883H289ZM438 613Q391 624 349.5 631Q308 638 257 638Q188 638 148.5 609.5Q109 581 109 523Q109 499 115.5 479.5Q122 460 140 443.5Q158 427 190.5 412Q223 397 275 382Q325 367 364 350Q403 333 429.5 311Q456 289 470 260Q484 231 484 192Q484 157 473.5 120.5Q463 84 437 54Q411 24 367.5 5Q324 -14 259 -14Q190 -14 134 0Q78 14 28 34L46 90Q70 81 93.5 72.5Q117 64 142 57Q167 50 195.5 46Q224 42 259 42Q302 42 333 53.5Q364 65 383 84.5Q402 104 411 130.5Q420 157 420 188Q420 217 407 238.5Q394 260 369.5 276.5Q345 293 309 306Q273 319 227 332Q171 348 135.5 368Q100 388 80 412Q60 436 52.5 463Q45 490 45 520Q45 596 99 644Q153 692 258 692Q318 692 363 684Q408 676 450 668Z" glyph-name="Scircumflex" horiz-adv-x="517" unicode="&#348;" /><glyph d="M394 634 356 611 249 708 141 612 106 634 227 755H275ZM386 481Q346 490 310.5 495.5Q275 501 231 501Q174 501 142.5 478Q111 455 111 416Q111 400 115.5 386Q120 372 134 359Q148 346 175.5 334Q203 322 248 309Q291 297 324.5 282.5Q358 268 380.5 250Q403 232 414.5 208.5Q426 185 426 154Q426 127 417 97.5Q408 68 386 44Q364 20 326.5 4.5Q289 -11 233 -11Q173 -11 125 0Q77 11 34 26L49 81Q90 66 132 54.5Q174 43 233 43Q304 43 333.5 73.5Q363 104 363 148Q363 171 353 187Q343 203 323.5 215.5Q304 228 274 238Q244 248 205 259Q159 272 128.5 287.5Q98 303 80 322Q62 341 55 363Q48 385 48 412Q48 442 60 468Q72 494 95.5 513.5Q119 533 153 544Q187 555 232 555Q283 555 322 549Q361 543 397 537Z" glyph-name="Scircumflex.sc" horiz-adv-x="465" unicode="&#63030;" /><glyph d="M212 -244Q233 -206 241.5 -181.5Q250 -157 250 -140Q250 -124 241.5 -115.5Q233 -107 206 -102L217 -52Q265 -58 284.5 -76.5Q304 -95 304 -128Q304 -157 293 -187Q282 -217 264 -250ZM438 613Q391 624 349.5 631Q308 638 257 638Q188 638 148.5 609.5Q109 581 109 523Q109 499 115.5 479.5Q122 460 140 443.5Q158 427 190.5 412Q223 397 275 382Q325 367 364 350Q403 333 429.5 311Q456 289 470 260Q484 231 484 192Q484 157 473.5 120.5Q463 84 437 54Q411 24 367.5 5Q324 -14 259 -14Q190 -14 134 0Q78 14 28 34L46 90Q70 81 93.5 72.5Q117 64 142 57Q167 50 195.5 46Q224 42 259 42Q302 42 333 53.5Q364 65 383 84.5Q402 104 411 130.5Q420 157 420 188Q420 217 407 238.5Q394 260 369.5 276.5Q345 293 309 306Q273 319 227 332Q171 348 135.5 368Q100 388 80 412Q60 436 52.5 463Q45 490 45 520Q45 596 99 644Q153 692 258 692Q318 692 363 684Q408 676 450 668Z" glyph-name="Scommaaccent" horiz-adv-x="517" unicode="&#536;" /><glyph d="M188 -244Q209 -206 217.5 -181.5Q226 -157 226 -140Q226 -124 217.5 -115.5Q209 -107 182 -102L193 -52Q241 -58 260.5 -76.5Q280 -95 280 -128Q280 -157 269 -187Q258 -217 240 -250ZM386 481Q346 490 310.5 495.5Q275 501 231 501Q174 501 142.5 478Q111 455 111 416Q111 400 115.5 386Q120 372 134 359Q148 346 175.5 334Q203 322 248 309Q291 297 324.5 282.5Q358 268 380.5 250Q403 232 414.5 208.5Q426 185 426 154Q426 127 417 97.5Q408 68 386 44Q364 20 326.5 4.5Q289 -11 233 -11Q173 -11 125 0Q77 11 34 26L49 81Q90 66 132 54.5Q174 43 233 43Q304 43 333.5 73.5Q363 104 363 148Q363 171 353 187Q343 203 323.5 215.5Q304 228 274 238Q244 248 205 259Q159 272 128.5 287.5Q98 303 80 322Q62 341 55 363Q48 385 48 412Q48 442 60 468Q72 494 95.5 513.5Q119 533 153 544Q187 555 232 555Q283 555 322 549Q361 543 397 537Z" glyph-name="Scommaaccent.sc" horiz-adv-x="465" unicode="&#63069;" /><glyph d="M461 680V625H264V0H201V625H3V680Z" glyph-name="T" horiz-adv-x="463" unicode="T" /><glyph d="M406 546V492H241V0H179V492H12V546Z" glyph-name="T.sc" horiz-adv-x="419" unicode="&#63348;" /><glyph d="M461 680V625H264V376H392V321H264V0H201V321H72V376H201V625H3V680Z" glyph-name="Tbar" horiz-adv-x="463" unicode="&#358;" /><glyph d="M406 546V492H241V301H347V249H241V0H179V249H73V301H179V492H12V546Z" glyph-name="Tbar.sc" horiz-adv-x="419" unicode="&#63031;" /><glyph d="M396 869 257 752H210L68 869L107 893L235 797L357 892ZM461 680V625H264V0H201V625H3V680Z" glyph-name="Tcaron" horiz-adv-x="463" unicode="&#356;" /><glyph d="M352 721 233 600H185L64 721L102 744L210 646L317 743ZM406 546V492H241V0H179V492H12V546Z" glyph-name="Tcaron.sc" horiz-adv-x="419" unicode="&#63070;" /><glyph d="M186 -244Q207 -206 215.5 -181.5Q224 -157 224 -140Q224 -124 215.5 -115.5Q207 -107 180 -102L191 -52Q239 -58 258.5 -76.5Q278 -95 278 -128Q278 -157 267 -187Q256 -217 238 -250ZM461 680V625H264V0H201V625H3V680Z" glyph-name="Tcommaaccent" horiz-adv-x="463" unicode="&#354;" /><glyph d="M165 -244Q186 -206 194.5 -181.5Q203 -157 203 -140Q203 -124 194.5 -115.5Q186 -107 159 -102L170 -52Q218 -58 237.5 -76.5Q257 -95 257 -128Q257 -157 246 -187Q235 -217 217 -250ZM406 546V492H241V0H179V492H12V546Z" glyph-name="Tcommaaccent.sc" horiz-adv-x="419" unicode="&#63071;" /><glyph d="M164 175 218 174Q333 172 394.5 213Q456 254 456 353Q456 428 407.5 469.5Q359 511 264 511Q233 511 211.5 509Q190 507 164 503ZM101 0V680H164V557Q187 560 210.5 562.5Q234 565 260 565Q388 565 453 508.5Q518 452 518 352Q518 289 496.5 245Q475 201 436 173Q397 145 341.5 132.5Q286 120 217 120H164V0Z" glyph-name="Thorn" horiz-adv-x="578" unicode="&#222;" /><glyph d="M237 398Q211 398 195 396.5Q179 395 157 392V152H197Q297 152 345 181Q393 210 393 281Q393 335 355.5 366.5Q318 398 237 398ZM97 0V547H158L157 450Q175 452 192.5 452.5Q210 453 233 453Q347 453 401 407.5Q455 362 455 284Q455 235 437 199.5Q419 164 385 141.5Q351 119 303.5 108Q256 97 197 97H157L158 0Z" glyph-name="Thorn.sc" horiz-adv-x="475" unicode="&#63486;" /><glyph d="M583 232Q583 178 566.5 133Q550 88 518.5 55.5Q487 23 441 4.5Q395 -14 337 -14Q269 -14 222 5Q175 24 146 58Q117 92 103.5 137Q90 182 90 235V680H152V233Q152 190 162.5 154.5Q173 119 195.5 94Q218 69 253 55.5Q288 42 337 42Q424 42 472.5 93.5Q521 145 521 233V680H583Z" glyph-name="U" horiz-adv-x="675" unicode="U" /><glyph d="M512 181Q512 139 497.5 103.5Q483 68 456 42.5Q429 17 389.5 3Q350 -11 300 -11Q242 -11 201.5 4Q161 19 135.5 45Q110 71 98.5 106.5Q87 142 87 183V546H148V188Q148 123 183 83Q218 43 300 43Q372 43 411.5 84Q451 125 451 188V546H512Z" glyph-name="U.sc" horiz-adv-x="600" unicode="&#63349;" /><glyph d="M479 827Q412 798 348 782Q284 766 215 758L210 806Q274 815 334.5 832Q395 849 458 878ZM583 232Q583 178 566.5 133Q550 88 518.5 55.5Q487 23 441 4.5Q395 -14 337 -14Q269 -14 222 5Q175 24 146 58Q117 92 103.5 137Q90 182 90 235V680H152V233Q152 190 162.5 154.5Q173 119 195.5 94Q218 69 253 55.5Q288 42 337 42Q424 42 472.5 93.5Q521 145 521 233V680H583Z" glyph-name="Uacute" horiz-adv-x="675" unicode="&#218;" /><glyph d="M432 702Q370 666 312 648.5Q254 631 191 623L186 670Q242 678 295.5 697.5Q349 717 407 750ZM512 181Q512 139 497.5 103.5Q483 68 456 42.5Q429 17 389.5 3Q350 -11 300 -11Q242 -11 201.5 4Q161 19 135.5 45Q110 71 98.5 106.5Q87 142 87 183V546H148V188Q148 123 183 83Q218 43 300 43Q372 43 411.5 84Q451 125 451 188V546H512Z" glyph-name="Uacute.sc" horiz-adv-x="600" unicode="&#63482;" /><glyph d="M263 869Q265 836 285.5 819.5Q306 803 336 803Q365 803 386 820Q407 837 409 869L463 864Q460 837 449 817Q438 797 421 783.5Q404 770 382 763.5Q360 757 335 757Q280 757 247 784Q214 811 209 865ZM583 232Q583 178 566.5 133Q550 88 518.5 55.5Q487 23 441 4.5Q395 -14 337 -14Q269 -14 222 5Q175 24 146 58Q117 92 103.5 137Q90 182 90 235V680H152V233Q152 190 162.5 154.5Q173 119 195.5 94Q218 69 253 55.5Q288 42 337 42Q424 42 472.5 93.5Q521 145 521 233V680H583Z" glyph-name="Ubreve" horiz-adv-x="675" unicode="&#364;" /><glyph d="M239 718Q241 691 256 675Q271 659 299 659Q325 659 341 676Q357 693 359 717L413 710Q409 665 379 638Q349 611 299 611Q248 611 219 636.5Q190 662 186 708ZM512 181Q512 139 497.5 103.5Q483 68 456 42.5Q429 17 389.5 3Q350 -11 300 -11Q242 -11 201.5 4Q161 19 135.5 45Q110 71 98.5 106.5Q87 142 87 183V546H148V188Q148 123 183 83Q218 43 300 43Q372 43 411.5 84Q451 125 451 188V546H512Z" glyph-name="Ubreve.sc" horiz-adv-x="600" unicode="&#63032;" /><glyph d="M500 763 461 739 333 833 213 739 173 763 311 883H358ZM583 232Q583 178 566.5 133Q550 88 518.5 55.5Q487 23 441 4.5Q395 -14 337 -14Q269 -14 222 5Q175 24 146 58Q117 92 103.5 137Q90 182 90 235V680H152V233Q152 190 162.5 154.5Q173 119 195.5 94Q218 69 253 55.5Q288 42 337 42Q424 42 472.5 93.5Q521 145 521 233V680H583Z" glyph-name="Ucircumflex" horiz-adv-x="675" unicode="&#219;" /><glyph d="M449 630 411 607 304 704 196 608 161 630 282 751H330ZM512 181Q512 139 497.5 103.5Q483 68 456 42.5Q429 17 389.5 3Q350 -11 300 -11Q242 -11 201.5 4Q161 19 135.5 45Q110 71 98.5 106.5Q87 142 87 183V546H148V188Q148 123 183 83Q218 43 300 43Q372 43 411.5 84Q451 125 451 188V546H512Z" glyph-name="Ucircumflex.sc" horiz-adv-x="600" unicode="&#63483;" /><glyph d="M439 851Q455 851 465 841.5Q475 832 475 815Q475 797 464.5 785.5Q454 774 437 774Q423 774 412.5 784Q402 794 402 814Q402 829 411.5 840Q421 851 439 851ZM232 851Q247 851 257 841.5Q267 832 267 814Q267 797 256.5 785.5Q246 774 229 774Q215 774 204.5 783.5Q194 793 194 813Q194 829 203.5 840Q213 851 232 851ZM583 232Q583 178 566.5 133Q550 88 518.5 55.5Q487 23 441 4.5Q395 -14 337 -14Q269 -14 222 5Q175 24 146 58Q117 92 103.5 137Q90 182 90 235V680H152V233Q152 190 162.5 154.5Q173 119 195.5 94Q218 69 253 55.5Q288 42 337 42Q424 42 472.5 93.5Q521 145 521 233V680H583Z" glyph-name="Udieresis" horiz-adv-x="675" unicode="&#220;" /><glyph d="M408 739Q423 739 433.5 729.5Q444 720 444 703Q444 685 433.5 673.5Q423 662 406 662Q392 662 381 672Q370 682 370 702Q370 717 380 728Q390 739 408 739ZM193 739Q208 739 218.5 729.5Q229 720 229 702Q229 685 218.5 673.5Q208 662 191 662Q177 662 166.5 671.5Q156 681 156 701Q156 717 165.5 728Q175 739 193 739ZM512 181Q512 139 497.5 103.5Q483 68 456 42.5Q429 17 389.5 3Q350 -11 300 -11Q242 -11 201.5 4Q161 19 135.5 45Q110 71 98.5 106.5Q87 142 87 183V546H148V188Q148 123 183 83Q218 43 300 43Q372 43 411.5 84Q451 125 451 188V546H512Z" glyph-name="Udieresis.sc" horiz-adv-x="600" unicode="&#63484;" /><glyph d="M448 758Q381 766 321 781.5Q261 797 201 824L221 873Q278 847 334 830.5Q390 814 454 804ZM583 232Q583 178 566.5 133Q550 88 518.5 55.5Q487 23 441 4.5Q395 -14 337 -14Q269 -14 222 5Q175 24 146 58Q117 92 103.5 137Q90 182 90 235V680H152V233Q152 190 162.5 154.5Q173 119 195.5 94Q218 69 253 55.5Q288 42 337 42Q424 42 472.5 93.5Q521 145 521 233V680H583Z" glyph-name="Ugrave" horiz-adv-x="675" unicode="&#217;" /><glyph d="M399 620Q333 632 279.5 653Q226 674 175 707L202 754Q249 722 299 700.5Q349 679 408 665ZM512 181Q512 139 497.5 103.5Q483 68 456 42.5Q429 17 389.5 3Q350 -11 300 -11Q242 -11 201.5 4Q161 19 135.5 45Q110 71 98.5 106.5Q87 142 87 183V546H148V188Q148 123 183 83Q218 43 300 43Q372 43 411.5 84Q451 125 451 188V546H512Z" glyph-name="Ugrave.sc" horiz-adv-x="600" unicode="&#63481;" /><glyph d="M406 880Q384 857 365.5 839.5Q347 822 329.5 805.5Q312 789 293.5 773.5Q275 758 253 740L222 773Q243 791 261.5 807.5Q280 824 297 840.5Q314 857 332 875Q350 893 370 916ZM579 877Q555 856 534.5 837.5Q514 819 494.5 802.5Q475 786 454.5 770Q434 754 411 738L382 773Q404 790 424 806Q444 822 463.5 839.5Q483 857 503 875.5Q523 894 545 915ZM583 232Q583 178 566.5 133Q550 88 518.5 55.5Q487 23 441 4.5Q395 -14 337 -14Q269 -14 222 5Q175 24 146 58Q117 92 103.5 137Q90 182 90 235V680H152V233Q152 190 162.5 154.5Q173 119 195.5 94Q218 69 253 55.5Q288 42 337 42Q424 42 472.5 93.5Q521 145 521 233V680H583Z" glyph-name="Uhungarumlaut" horiz-adv-x="675" unicode="&#368;" /><glyph d="M360 757Q342 732 326 711.5Q310 691 295 672.5Q280 654 264 636Q248 618 229 598L194 626Q211 645 226.5 663.5Q242 682 257.5 701.5Q273 721 288.5 742.5Q304 764 321 789ZM537 752Q515 728 496.5 708Q478 688 459.5 669.5Q441 651 422.5 633.5Q404 616 382 598L350 630Q391 667 425.5 703Q460 739 500 786ZM512 181Q512 139 497.5 103.5Q483 68 456 42.5Q429 17 389.5 3Q350 -11 300 -11Q242 -11 201.5 4Q161 19 135.5 45Q110 71 98.5 106.5Q87 142 87 183V546H148V188Q148 123 183 83Q218 43 300 43Q372 43 411.5 84Q451 125 451 188V546H512Z" glyph-name="Uhungarumlaut.sc" horiz-adv-x="600" unicode="&#63072;" /><glyph d="M477 792H197V842H477ZM583 232Q583 178 566.5 133Q550 88 518.5 55.5Q487 23 441 4.5Q395 -14 337 -14Q269 -14 222 5Q175 24 146 58Q117 92 103.5 137Q90 182 90 235V680H152V233Q152 190 162.5 154.5Q173 119 195.5 94Q218 69 253 55.5Q288 42 337 42Q424 42 472.5 93.5Q521 145 521 233V680H583Z" glyph-name="Umacron" horiz-adv-x="675" unicode="&#362;" /><glyph d="M450 653H150V703H450ZM512 181Q512 139 497.5 103.5Q483 68 456 42.5Q429 17 389.5 3Q350 -11 300 -11Q242 -11 201.5 4Q161 19 135.5 45Q110 71 98.5 106.5Q87 142 87 183V546H148V188Q148 123 183 83Q218 43 300 43Q372 43 411.5 84Q451 125 451 188V546H512Z" glyph-name="Umacron.sc" horiz-adv-x="600" unicode="&#63073;" /><glyph d="M583 232Q583 194 574 158Q565 122 547 92Q529 62 501.5 38.5Q474 15 437 2Q397 -12 370.5 -28Q344 -44 328.5 -60.5Q313 -77 307 -92.5Q301 -108 301 -121Q301 -139 313 -152.5Q325 -166 361 -166Q384 -166 404.5 -163Q425 -160 448 -155L459 -200Q431 -208 405 -211Q379 -214 356 -214Q324 -214 302.5 -207Q281 -200 268 -188.5Q255 -177 249.5 -161Q244 -145 244 -127Q244 -94 266.5 -64.5Q289 -35 333 -13Q330 -13 326 -13.5Q322 -14 319 -14Q253 -12 209 9.5Q165 31 138.5 65Q112 99 101 143Q90 187 90 235V680H152V233Q152 190 162.5 154.5Q173 119 195.5 94Q218 69 253 55.5Q288 42 337 42Q424 42 472.5 93.5Q521 145 521 233V680H583Z" glyph-name="Uogonek" horiz-adv-x="675" unicode="&#370;" /><glyph d="M512 181Q512 119 481.5 72.5Q451 26 392 4Q356 -10 331 -26Q306 -42 290.5 -58Q275 -74 268.5 -89.5Q262 -105 262 -118Q262 -137 274 -150Q286 -163 321 -163Q344 -163 365 -160Q386 -157 409 -152L420 -197Q392 -205 366 -208Q340 -211 317 -211Q285 -211 263 -204Q241 -197 228 -185Q215 -173 209.5 -157.5Q204 -142 204 -125Q204 -91 227.5 -60.5Q251 -30 296 -10Q294 -10 291 -10.5Q288 -11 285 -11Q249 -11 213.5 -0.5Q178 10 150 33Q122 56 104.5 93Q87 130 87 183V546H148V188Q148 123 183 83Q218 43 300 43Q372 43 411.5 84Q451 125 451 188V546H512Z" glyph-name="Uogonek.sc" horiz-adv-x="600" unicode="&#63074;" /><glyph d="M339 882Q313 882 299 866Q285 850 285 827Q285 801 300.5 785.5Q316 770 340 770Q366 770 380.5 786Q395 802 395 828Q395 850 380 866Q365 882 339 882ZM339 919Q361 919 379 911.5Q397 904 409 891Q421 878 427.5 862Q434 846 434 830Q434 788 408 761Q382 734 340 734Q296 733 271 761Q246 789 246 827Q246 845 252 861.5Q258 878 270 890.5Q282 903 299 911Q316 919 339 919ZM583 232Q583 178 566.5 133Q550 88 518.5 55.5Q487 23 441 4.5Q395 -14 337 -14Q269 -14 222 5Q175 24 146 58Q117 92 103.5 137Q90 182 90 235V680H152V233Q152 190 162.5 154.5Q173 119 195.5 94Q218 69 253 55.5Q288 42 337 42Q424 42 472.5 93.5Q521 145 521 233V680H583Z" glyph-name="Uring" horiz-adv-x="675" unicode="&#366;" /><glyph d="M299 744Q274 744 262 729Q250 714 250 692Q250 668 263.5 653Q277 638 299 638Q324 638 336.5 654Q349 670 349 694Q349 714 335.5 729Q322 744 299 744ZM299 784Q342 784 366.5 757.5Q391 731 391 695Q391 651 365.5 625Q340 599 299 598Q258 598 233 624.5Q208 651 208 692Q208 730 232 757Q256 784 299 784ZM512 181Q512 139 497.5 103.5Q483 68 456 42.5Q429 17 389.5 3Q350 -11 300 -11Q242 -11 201.5 4Q161 19 135.5 45Q110 71 98.5 106.5Q87 142 87 183V546H148V188Q148 123 183 83Q218 43 300 43Q372 43 411.5 84Q451 125 451 188V546H512Z" glyph-name="Uring.sc" horiz-adv-x="600" unicode="&#63075;" /><glyph d="M473 838Q462 812 441.5 796.5Q421 781 389 781Q370 781 355.5 786.5Q341 792 328.5 798Q316 804 304 809.5Q292 815 277 815Q260 815 249.5 807.5Q239 800 229 785L192 806Q203 829 225 845.5Q247 862 275 862Q296 862 310 856.5Q324 851 336 845Q348 839 359.5 833.5Q371 828 386 828Q419 828 435 859ZM583 232Q583 178 566.5 133Q550 88 518.5 55.5Q487 23 441 4.5Q395 -14 337 -14Q269 -14 222 5Q175 24 146 58Q117 92 103.5 137Q90 182 90 235V680H152V233Q152 190 162.5 154.5Q173 119 195.5 94Q218 69 253 55.5Q288 42 337 42Q424 42 472.5 93.5Q521 145 521 233V680H583Z" glyph-name="Utilde" horiz-adv-x="675" unicode="&#360;" /><glyph d="M446 713Q434 675 412 657.5Q390 640 356 640Q335 640 319.5 646Q304 652 291.5 658.5Q279 665 267.5 671Q256 677 244 677Q224 677 212 666.5Q200 656 195 640L154 654Q163 687 186 705.5Q209 724 241 724Q263 724 278.5 718Q294 712 306.5 705.5Q319 699 330.5 693Q342 687 356 687Q376 687 386.5 696Q397 705 403 725ZM512 181Q512 139 497.5 103.5Q483 68 456 42.5Q429 17 389.5 3Q350 -11 300 -11Q242 -11 201.5 4Q161 19 135.5 45Q110 71 98.5 106.5Q87 142 87 183V546H148V188Q148 123 183 83Q218 43 300 43Q372 43 411.5 84Q451 125 451 188V546H512Z" glyph-name="Utilde.sc" horiz-adv-x="600" unicode="&#63033;" /><glyph d="M362 0H269L38 678L102 683L316 58H319L530 683L591 678Z" glyph-name="V" horiz-adv-x="630" unicode="V" /><glyph d="M316 0H245L42 544L105 549L283 62H284L460 548L518 544Z" glyph-name="V.sc" horiz-adv-x="562" unicode="&#63350;" /><glyph d="M721 3 641 -3 455 551H453L267 -3L188 3L48 676L107 683L233 80H235L420 628H492L678 80H680L799 683L855 677Z" glyph-name="W" horiz-adv-x="904" unicode="W" /><glyph d="M632 3 551 -3 399 447 245 -3 169 3 50 543 109 549 212 64 369 514H436L590 64L689 549L744 543Z" glyph-name="W.sc" horiz-adv-x="796" unicode="&#63351;" /><glyph d="M639 827Q572 798 508 782Q444 766 375 758L370 806Q434 815 494.5 832Q555 849 618 878ZM721 3 641 -3 455 551H453L267 -3L188 3L48 676L107 683L233 80H235L420 628H492L678 80H680L799 683L855 677Z" glyph-name="Wacute" horiz-adv-x="904" unicode="&#7810;" /><glyph d="M523 702Q461 666 403 648.5Q345 631 282 623L277 670Q333 678 386.5 697.5Q440 717 498 750ZM632 3 551 -3 399 447 245 -3 169 3 50 543 109 549 212 64 369 514H436L590 64L689 549L744 543Z" glyph-name="Wacute.sc" horiz-adv-x="796" unicode="&#63034;" /><glyph d="M616 763 577 739 449 833 329 739 289 763 427 883H474ZM721 3 641 -3 455 551H453L267 -3L188 3L48 676L107 683L233 80H235L420 628H492L678 80H680L799 683L855 677Z" glyph-name="Wcircumflex" horiz-adv-x="904" unicode="&#372;" /><glyph d="M544 634 506 611 399 708 291 612 256 634 377 755H425ZM632 3 551 -3 399 447 245 -3 169 3 50 543 109 549 212 64 369 514H436L590 64L689 549L744 543Z" glyph-name="Wcircumflex.sc" horiz-adv-x="796" unicode="&#63035;" /><glyph d="M558 851Q574 851 584 841.5Q594 832 594 815Q594 797 583.5 785.5Q573 774 556 774Q542 774 531.5 784Q521 794 521 814Q521 829 530.5 840Q540 851 558 851ZM351 851Q366 851 376 841.5Q386 832 386 814Q386 797 375.5 785.5Q365 774 348 774Q334 774 323.5 783.5Q313 793 313 813Q313 829 322.5 840Q332 851 351 851ZM721 3 641 -3 455 551H453L267 -3L188 3L48 676L107 683L233 80H235L420 628H492L678 80H680L799 683L855 677Z" glyph-name="Wdieresis" horiz-adv-x="904" unicode="&#7812;" /><glyph d="M507 739Q522 739 532.5 729.5Q543 720 543 703Q543 685 532.5 673.5Q522 662 505 662Q491 662 480 672Q469 682 469 702Q469 717 479 728Q489 739 507 739ZM292 739Q307 739 317.5 729.5Q328 720 328 702Q328 685 317.5 673.5Q307 662 290 662Q276 662 265.5 671.5Q255 681 255 701Q255 717 264.5 728Q274 739 292 739ZM632 3 551 -3 399 447 245 -3 169 3 50 543 109 549 212 64 369 514H436L590 64L689 549L744 543Z" glyph-name="Wdieresis.sc" horiz-adv-x="796" unicode="&#63036;" /><glyph d="M538 758Q471 766 411 781.5Q351 797 291 824L311 873Q368 847 424 830.5Q480 814 544 804ZM721 3 641 -3 455 551H453L267 -3L188 3L48 676L107 683L233 80H235L420 628H492L678 80H680L799 683L855 677Z" glyph-name="Wgrave" horiz-adv-x="904" unicode="&#7808;" /><glyph d="M505 616Q439 628 385.5 649Q332 670 281 703L308 750Q355 718 405 696.5Q455 675 514 661ZM632 3 551 -3 399 447 245 -3 169 3 50 543 109 549 212 64 369 514H436L590 64L689 549L744 543Z" glyph-name="Wgrave.sc" horiz-adv-x="796" unicode="&#63037;" /><glyph d="M328 340 546 4 479 -3 282 300 93 -3 29 3 240 342 24 676 90 683 287 382 478 683 541 676Z" glyph-name="X" horiz-adv-x="567" unicode="X" /><glyph d="M293 271 480 4 414 -3 252 234 96 -3 35 3 218 277 34 542 99 549 260 314 418 549 477 542Z" glyph-name="X.sc" horiz-adv-x="507" unicode="&#63352;" /><glyph d="M321 274V0H258V273L16 677L81 683L290 337H292L491 683L552 677Z" glyph-name="Y" horiz-adv-x="566" unicode="Y" /><glyph d="M290 225V0H229V225L23 544L90 550L260 281H262L426 549L484 544Z" glyph-name="Y.sc" horiz-adv-x="507" unicode="&#63353;" /><glyph d="M461 827Q394 798 330 782Q266 766 197 758L192 806Q256 815 316.5 832Q377 849 440 878ZM321 274V0H258V273L16 677L81 683L290 337H292L491 683L552 677Z" glyph-name="Yacute" horiz-adv-x="566" unicode="&#221;" /><glyph d="M401 702Q339 666 281 648.5Q223 631 160 623L155 670Q211 678 264.5 697.5Q318 717 376 750ZM290 225V0H229V225L23 544L90 550L260 281H262L426 549L484 544Z" glyph-name="Yacute.sc" horiz-adv-x="507" unicode="&#63485;" /><glyph d="M448 763 409 739 281 833 161 739 121 763 259 883H306ZM321 274V0H258V273L16 677L81 683L290 337H292L491 683L552 677Z" glyph-name="Ycircumflex" horiz-adv-x="566" unicode="&#374;" /><glyph d="M403 634 365 611 258 708 150 612 115 634 236 755H284ZM290 225V0H229V225L23 544L90 550L260 281H262L426 549L484 544Z" glyph-name="Ycircumflex.sc" horiz-adv-x="507" unicode="&#63038;" /><glyph d="M385 851Q401 851 411 841.5Q421 832 421 815Q421 797 410.5 785.5Q400 774 383 774Q369 774 358.5 784Q348 794 348 814Q348 829 357.5 840Q367 851 385 851ZM178 851Q193 851 203 841.5Q213 832 213 814Q213 797 202.5 785.5Q192 774 175 774Q161 774 150.5 783.5Q140 793 140 813Q140 829 149.5 840Q159 851 178 851ZM321 274V0H258V273L16 677L81 683L290 337H292L491 683L552 677Z" glyph-name="Ydieresis" horiz-adv-x="566" unicode="&#376;" /><glyph d="M367 739Q382 739 392.5 729.5Q403 720 403 703Q403 685 392.5 673.5Q382 662 365 662Q351 662 340 672Q329 682 329 702Q329 717 339 728Q349 739 367 739ZM152 739Q167 739 177.5 729.5Q188 720 188 702Q188 685 177.5 673.5Q167 662 150 662Q136 662 125.5 671.5Q115 681 115 701Q115 717 124.5 728Q134 739 152 739ZM290 225V0H229V225L23 544L90 550L260 281H262L426 549L484 544Z" glyph-name="Ydieresis.sc" horiz-adv-x="507" unicode="&#63487;" /><glyph d="M368 758Q301 766 241 781.5Q181 797 121 824L141 873Q198 847 254 830.5Q310 814 374 804ZM321 274V0H258V273L16 677L81 683L290 337H292L491 683L552 677Z" glyph-name="Ygrave" horiz-adv-x="566" unicode="&#7922;" /><glyph d="M338 616Q272 628 218.5 649Q165 670 114 703L141 750Q188 718 238 696.5Q288 675 347 661ZM290 225V0H229V225L23 544L90 550L260 281H262L426 549L484 544Z" glyph-name="Ygrave.sc" horiz-adv-x="507" unicode="&#63039;" /><glyph d="M515 623 102 55H522V0H56L35 58L448 625H75V680H499Z" glyph-name="Z" horiz-adv-x="569" unicode="Z" /><glyph d="M457 501 120 54H462V0H62L44 45L380 492H78V546H443Z" glyph-name="Z.sc" horiz-adv-x="509" unicode="&#63354;" /><glyph d="M431 827Q364 798 300 782Q236 766 167 758L162 806Q226 815 286.5 832Q347 849 410 878ZM515 623 102 55H522V0H56L35 58L448 625H75V680H499Z" glyph-name="Zacute" horiz-adv-x="569" unicode="&#377;" /><glyph d="M392 702Q330 666 272 648.5Q214 631 151 623L146 670Q202 678 255.5 697.5Q309 717 367 750ZM457 501 120 54H462V0H62L44 45L380 492H78V546H443Z" glyph-name="Zacute.sc" horiz-adv-x="509" unicode="&#63076;" /><glyph d="M461 869 322 752H275L133 869L172 893L300 797L422 892ZM515 623 102 55H522V0H56L35 58L448 625H75V680H499Z" glyph-name="Zcaron" horiz-adv-x="569" unicode="&#381;" /><glyph d="M414 721 295 600H247L126 721L164 744L272 646L379 743ZM457 501 120 54H462V0H62L44 45L380 492H78V546H443Z" glyph-name="Zcaron.sc" horiz-adv-x="509" unicode="&#63231;" /><glyph d="M291 865Q308 865 320 854.5Q332 844 332 824Q332 802 319.5 789.5Q307 777 288 777Q271 777 259 787.5Q247 798 247 821Q247 840 258 852.5Q269 865 291 865ZM515 623 102 55H522V0H56L35 58L448 625H75V680H499Z" glyph-name="Zdotaccent" horiz-adv-x="569" unicode="&#379;" /><glyph d="M255 739Q273 739 285 728.5Q297 718 297 698Q297 676 284.5 663.5Q272 651 253 651Q236 651 224 662Q212 673 212 696Q212 714 223 726.5Q234 739 255 739ZM454 501 117 54H459V0H59L41 45L377 492H75V546H440Z" glyph-name="Zdotaccent.sc" horiz-adv-x="506" unicode="&#63077;" /><glyph d="M389 128Q389 151 389 181Q389 211 390 243Q358 245 321.5 246Q285 247 259 247Q176 247 140 220.5Q104 194 104 144Q104 117 112.5 96.5Q121 76 135.5 63Q150 50 169.5 43.5Q189 37 211 37Q236 37 260.5 45Q285 53 307.5 66Q330 79 350.5 95Q371 111 389 128ZM77 472Q125 491 172.5 502.5Q220 514 271 514Q359 514 404.5 472.5Q450 431 450 346Q450 325 449.5 294Q449 263 449 230.5Q449 198 448.5 170Q448 142 448 128Q448 86 450 57.5Q452 29 457 3L400 -6Q396 12 393.5 30.5Q391 49 389 70Q372 54 352 39Q332 24 309 12Q286 0 259.5 -7Q233 -14 203 -14Q173 -14 145 -5Q117 4 95 23Q73 42 59.5 72.5Q46 103 46 145Q46 179 57.5 207Q69 235 94 255Q119 275 158 286Q197 297 251 297Q292 297 326 296Q360 295 391 293V336Q391 402 360 432Q329 462 266 462Q221 462 177 450Q133 438 87 421Z" glyph-name="a" horiz-adv-x="528" unicode="a" /><glyph d="M261 40Q284 40 308 50.5Q332 61 355 78Q378 95 399 118Q420 141 438 165V401Q399 427 363 443Q327 459 283 459Q206 459 163.5 403Q121 347 121 248Q121 198 132.5 159.5Q144 121 163 94.5Q182 68 207.5 54Q233 40 261 40ZM499 126Q499 92 502.5 60.5Q506 29 515 5L457 -7Q448 13 443.5 37.5Q439 62 438 91Q403 47 356.5 16Q310 -15 251 -15Q211 -15 176.5 2Q142 19 116 52Q90 85 75 133.5Q60 182 60 246Q60 305 74.5 354Q89 403 117.5 438.5Q146 474 187 494Q228 514 282 514Q327 514 365 499Q403 484 441 461L447 500H499Z" glyph-name="a.alt" horiz-adv-x="587" unicode="&#58560;" /><glyph d="M389 686Q327 650 269 632.5Q211 615 148 607L143 654Q199 662 252.5 681.5Q306 701 364 734ZM389 128Q389 151 389 181Q389 211 390 243Q358 245 321.5 246Q285 247 259 247Q176 247 140 220.5Q104 194 104 144Q104 117 112.5 96.5Q121 76 135.5 63Q150 50 169.5 43.5Q189 37 211 37Q236 37 260.5 45Q285 53 307.5 66Q330 79 350.5 95Q371 111 389 128ZM77 472Q125 491 172.5 502.5Q220 514 271 514Q359 514 404.5 472.5Q450 431 450 346Q450 325 449.5 294Q449 263 449 230.5Q449 198 448.5 170Q448 142 448 128Q448 86 450 57.5Q452 29 457 3L400 -6Q396 12 393.5 30.5Q391 49 389 70Q372 54 352 39Q332 24 309 12Q286 0 259.5 -7Q233 -14 203 -14Q173 -14 145 -5Q117 4 95 23Q73 42 59.5 72.5Q46 103 46 145Q46 179 57.5 207Q69 235 94 255Q119 275 158 286Q197 297 251 297Q292 297 326 296Q360 295 391 293V336Q391 402 360 432Q329 462 266 462Q221 462 177 450Q133 438 87 421Z" glyph-name="aacute" horiz-adv-x="528" unicode="&#225;" /><glyph d="M419 686Q357 650 299 632.5Q241 615 178 607L173 654Q229 662 282.5 681.5Q336 701 394 734ZM261 40Q284 40 308 50.5Q332 61 355 78Q378 95 399 118Q420 141 438 165V401Q399 427 363 443Q327 459 283 459Q206 459 163.5 403Q121 347 121 248Q121 198 132.5 159.5Q144 121 163 94.5Q182 68 207.5 54Q233 40 261 40ZM499 126Q499 92 502.5 60.5Q506 29 515 5L457 -7Q448 13 443.5 37.5Q439 62 438 91Q403 47 356.5 16Q310 -15 251 -15Q211 -15 176.5 2Q142 19 116 52Q90 85 75 133.5Q60 182 60 246Q60 305 74.5 354Q89 403 117.5 438.5Q146 474 187 494Q228 514 282 514Q327 514 365 499Q403 484 441 461L447 500H499Z" glyph-name="aacute.alt" horiz-adv-x="587" unicode="&#59537;" /><glyph d="M202 702Q204 675 219 659Q234 643 262 643Q288 643 304 660Q320 677 322 701L376 694Q372 649 342 622Q312 595 262 595Q211 595 182 620.5Q153 646 149 692ZM389 128Q389 151 389 181Q389 211 390 243Q358 245 321.5 246Q285 247 259 247Q176 247 140 220.5Q104 194 104 144Q104 117 112.5 96.5Q121 76 135.5 63Q150 50 169.5 43.5Q189 37 211 37Q236 37 260.5 45Q285 53 307.5 66Q330 79 350.5 95Q371 111 389 128ZM77 472Q125 491 172.5 502.5Q220 514 271 514Q359 514 404.5 472.5Q450 431 450 346Q450 325 449.5 294Q449 263 449 230.5Q449 198 448.5 170Q448 142 448 128Q448 86 450 57.5Q452 29 457 3L400 -6Q396 12 393.5 30.5Q391 49 389 70Q372 54 352 39Q332 24 309 12Q286 0 259.5 -7Q233 -14 203 -14Q173 -14 145 -5Q117 4 95 23Q73 42 59.5 72.5Q46 103 46 145Q46 179 57.5 207Q69 235 94 255Q119 275 158 286Q197 297 251 297Q292 297 326 296Q360 295 391 293V336Q391 402 360 432Q329 462 266 462Q221 462 177 450Q133 438 87 421Z" glyph-name="abreve" horiz-adv-x="528" unicode="&#259;" /><glyph d="M228 702Q230 675 245 659Q260 643 288 643Q314 643 330 660Q346 677 348 701L402 694Q398 649 368 622Q338 595 288 595Q237 595 208 620.5Q179 646 175 692ZM261 40Q284 40 308 50.5Q332 61 355 78Q378 95 399 118Q420 141 438 165V401Q399 427 363 443Q327 459 283 459Q206 459 163.5 403Q121 347 121 248Q121 198 132.5 159.5Q144 121 163 94.5Q182 68 207.5 54Q233 40 261 40ZM499 126Q499 92 502.5 60.5Q506 29 515 5L457 -7Q448 13 443.5 37.5Q439 62 438 91Q403 47 356.5 16Q310 -15 251 -15Q211 -15 176.5 2Q142 19 116 52Q90 85 75 133.5Q60 182 60 246Q60 305 74.5 354Q89 403 117.5 438.5Q146 474 187 494Q228 514 282 514Q327 514 365 499Q403 484 441 461L447 500H499Z" glyph-name="abreve.alt" horiz-adv-x="587" unicode="&#59542;" /><glyph d="M408 615 370 592 263 689 155 593 120 615 241 736H289ZM389 128Q389 151 389 181Q389 211 390 243Q358 245 321.5 246Q285 247 259 247Q176 247 140 220.5Q104 194 104 144Q104 117 112.5 96.5Q121 76 135.5 63Q150 50 169.5 43.5Q189 37 211 37Q236 37 260.5 45Q285 53 307.5 66Q330 79 350.5 95Q371 111 389 128ZM77 472Q125 491 172.5 502.5Q220 514 271 514Q359 514 404.5 472.5Q450 431 450 346Q450 325 449.5 294Q449 263 449 230.5Q449 198 448.5 170Q448 142 448 128Q448 86 450 57.5Q452 29 457 3L400 -6Q396 12 393.5 30.5Q391 49 389 70Q372 54 352 39Q332 24 309 12Q286 0 259.5 -7Q233 -14 203 -14Q173 -14 145 -5Q117 4 95 23Q73 42 59.5 72.5Q46 103 46 145Q46 179 57.5 207Q69 235 94 255Q119 275 158 286Q197 297 251 297Q292 297 326 296Q360 295 391 293V336Q391 402 360 432Q329 462 266 462Q221 462 177 450Q133 438 87 421Z" glyph-name="acircumflex" horiz-adv-x="528" unicode="&#226;" /><glyph d="M446 614 408 591 301 688 193 592 158 614 279 735H327ZM261 40Q284 40 308 50.5Q332 61 355 78Q378 95 399 118Q420 141 438 165V401Q399 427 363 443Q327 459 283 459Q206 459 163.5 403Q121 347 121 248Q121 198 132.5 159.5Q144 121 163 94.5Q182 68 207.5 54Q233 40 261 40ZM499 126Q499 92 502.5 60.5Q506 29 515 5L457 -7Q448 13 443.5 37.5Q439 62 438 91Q403 47 356.5 16Q310 -15 251 -15Q211 -15 176.5 2Q142 19 116 52Q90 85 75 133.5Q60 182 60 246Q60 305 74.5 354Q89 403 117.5 438.5Q146 474 187 494Q228 514 282 514Q327 514 365 499Q403 484 441 461L447 500H499Z" glyph-name="acircumflex.alt" horiz-adv-x="587" unicode="&#59539;" /><glyph d="M375 686Q313 650 255 632.5Q197 615 134 607L129 654Q185 662 238.5 681.5Q292 701 350 734Z" glyph-name="acute" horiz-adv-x="484" unicode="&#180;" /><glyph d="M388 827Q321 798 257 782Q193 766 124 758L119 806Q183 815 243.5 832Q304 849 367 878Z" glyph-name="acute.cap" horiz-adv-x="484" unicode="&#58402;" /><glyph d="M369 719Q384 719 394.5 709.5Q405 700 405 683Q405 665 394.5 653.5Q384 642 367 642Q353 642 342 652Q331 662 331 682Q331 697 341 708Q351 719 369 719ZM154 719Q169 719 179.5 709.5Q190 700 190 682Q190 665 179.5 653.5Q169 642 152 642Q138 642 127.5 651.5Q117 661 117 681Q117 697 126.5 708Q136 719 154 719ZM389 128Q389 151 389 181Q389 211 390 243Q358 245 321.5 246Q285 247 259 247Q176 247 140 220.5Q104 194 104 144Q104 117 112.5 96.5Q121 76 135.5 63Q150 50 169.5 43.5Q189 37 211 37Q236 37 260.5 45Q285 53 307.5 66Q330 79 350.5 95Q371 111 389 128ZM77 472Q125 491 172.5 502.5Q220 514 271 514Q359 514 404.5 472.5Q450 431 450 346Q450 325 449.5 294Q449 263 449 230.5Q449 198 448.5 170Q448 142 448 128Q448 86 450 57.5Q452 29 457 3L400 -6Q396 12 393.5 30.5Q391 49 389 70Q372 54 352 39Q332 24 309 12Q286 0 259.5 -7Q233 -14 203 -14Q173 -14 145 -5Q117 4 95 23Q73 42 59.5 72.5Q46 103 46 145Q46 179 57.5 207Q69 235 94 255Q119 275 158 286Q197 297 251 297Q292 297 326 296Q360 295 391 293V336Q391 402 360 432Q329 462 266 462Q221 462 177 450Q133 438 87 421Z" glyph-name="adieresis" horiz-adv-x="528" unicode="&#228;" /><glyph d="M402 723Q417 723 427.5 713.5Q438 704 438 687Q438 669 427.5 657.5Q417 646 400 646Q386 646 375 656Q364 666 364 686Q364 701 374 712Q384 723 402 723ZM187 723Q202 723 212.5 713.5Q223 704 223 686Q223 669 212.5 657.5Q202 646 185 646Q171 646 160.5 655.5Q150 665 150 685Q150 701 159.5 712Q169 723 187 723ZM261 40Q284 40 308 50.5Q332 61 355 78Q378 95 399 118Q420 141 438 165V401Q399 427 363 443Q327 459 283 459Q206 459 163.5 403Q121 347 121 248Q121 198 132.5 159.5Q144 121 163 94.5Q182 68 207.5 54Q233 40 261 40ZM499 126Q499 92 502.5 60.5Q506 29 515 5L457 -7Q448 13 443.5 37.5Q439 62 438 91Q403 47 356.5 16Q310 -15 251 -15Q211 -15 176.5 2Q142 19 116 52Q90 85 75 133.5Q60 182 60 246Q60 305 74.5 354Q89 403 117.5 438.5Q146 474 187 494Q228 514 282 514Q327 514 365 499Q403 484 441 461L447 500H499Z" glyph-name="adieresis.alt" horiz-adv-x="587" unicode="&#59540;" /><glyph d="M211 37Q244 37 276 50Q308 63 333 86.5Q358 110 373.5 142.5Q389 175 389 213V235Q356 237 318 238Q280 239 254 239Q211 239 182 232Q153 225 136 212.5Q119 200 111.5 181.5Q104 163 104 141Q104 112 113 92Q122 72 136.5 60Q151 48 170.5 42.5Q190 37 211 37ZM633 463Q544 463 500.5 416Q457 369 451 280Q476 277 514.5 275Q553 273 595 273Q639 273 669.5 277Q700 281 718.5 292.5Q737 304 745.5 323.5Q754 343 754 374Q754 420 720 441.5Q686 463 633 463ZM46 142Q46 174 56.5 201Q67 228 90.5 247.5Q114 267 152 278Q190 289 246 289Q286 289 322 288Q358 287 390 285V336Q390 402 359.5 431.5Q329 461 266 461Q221 461 177 449.5Q133 438 87 421L77 472Q125 491 172.5 502.5Q220 514 271 514Q343 514 382 482.5Q421 451 433 397Q456 450 504 482Q552 514 633 514Q671 514 703.5 505.5Q736 497 759.5 479.5Q783 462 796.5 436Q810 410 810 375Q810 330 798 301Q786 272 760.5 254.5Q735 237 694 230Q653 223 595 223Q564 223 524 224.5Q484 226 450 230Q455 131 501 85Q547 39 622 39Q665 39 705.5 48.5Q746 58 787 74L801 24Q769 10 720 -2Q671 -14 621 -14Q533 -14 485 24Q437 62 419 131Q395 66 338 26Q281 -14 203 -14Q173 -14 145 -6Q117 2 95 20.5Q73 39 59.5 68.5Q46 98 46 142Z" glyph-name="ae" horiz-adv-x="858" unicode="&#230;" /><glyph d="M571 686Q509 650 451 632.5Q393 615 330 607L325 654Q381 662 434.5 681.5Q488 701 546 734ZM211 37Q244 37 276 50Q308 63 333 86.5Q358 110 373.5 142.5Q389 175 389 213V235Q356 237 318 238Q280 239 254 239Q211 239 182 232Q153 225 136 212.5Q119 200 111.5 181.5Q104 163 104 141Q104 112 113 92Q122 72 136.5 60Q151 48 170.5 42.5Q190 37 211 37ZM633 463Q544 463 500.5 416Q457 369 451 280Q476 277 514.5 275Q553 273 595 273Q639 273 669.5 277Q700 281 718.5 292.5Q737 304 745.5 323.5Q754 343 754 374Q754 420 720 441.5Q686 463 633 463ZM46 142Q46 174 56.5 201Q67 228 90.5 247.5Q114 267 152 278Q190 289 246 289Q286 289 322 288Q358 287 390 285V336Q390 402 359.5 431.5Q329 461 266 461Q221 461 177 449.5Q133 438 87 421L77 472Q125 491 172.5 502.5Q220 514 271 514Q343 514 382 482.5Q421 451 433 397Q456 450 504 482Q552 514 633 514Q671 514 703.5 505.5Q736 497 759.5 479.5Q783 462 796.5 436Q810 410 810 375Q810 330 798 301Q786 272 760.5 254.5Q735 237 694 230Q653 223 595 223Q564 223 524 224.5Q484 226 450 230Q455 131 501 85Q547 39 622 39Q665 39 705.5 48.5Q746 58 787 74L801 24Q769 10 720 -2Q671 -14 621 -14Q533 -14 485 24Q437 62 419 131Q395 66 338 26Q281 -14 203 -14Q173 -14 145 -6Q117 2 95 20.5Q73 39 59.5 68.5Q46 98 46 142Z" glyph-name="aeacute" horiz-adv-x="858" unicode="&#509;" /><glyph d="M763 259H71V309H763Z" glyph-name="afii00208" horiz-adv-x="833" unicode="&#8213;" /><glyph d="M267 692Q215 692 190.5 595.5Q166 499 164 303Q239 356 277.5 435Q316 514 316 600Q316 644 305 668Q294 692 267 692ZM350 11Q327 0 301.5 -7Q276 -14 247 -14Q215 -14 190 -3.5Q165 7 147 33Q129 59 118.5 101.5Q108 144 106 209Q86 200 62 194L48 249Q63 253 77 258Q91 263 105 269Q105 383 113 471.5Q121 560 139.5 620.5Q158 681 190 712.5Q222 744 270 744Q321 744 347 706.5Q373 669 373 601Q373 547 359 494.5Q345 442 318 394.5Q291 347 252 307Q213 267 164 238Q164 179 169 141Q174 103 184.5 80.5Q195 58 211 49Q227 40 249 40Q272 40 293 45.5Q314 51 336 61Z" glyph-name="afii61289" horiz-adv-x="428" unicode="&#8467;" /><glyph d="M975 254V201H699V254ZM837 642Q788 642 767.5 607.5Q747 573 747 510Q747 449 767 414.5Q787 380 836 380Q885 380 906 417Q927 454 927 517Q927 577 904.5 609.5Q882 642 837 642ZM837 689Q909 689 947 646Q985 603 985 521Q985 478 977 443Q969 408 951 383Q933 358 905 344.5Q877 331 837 331Q757 331 723 377Q689 423 689 511Q689 592 723.5 640.5Q758 689 837 689ZM591 3 492 -4 164 616H161V0H101V677L198 683L529 58H530V680H591Z" glyph-name="afii61352" horiz-adv-x="1048" unicode="&#8470;" /><glyph d="M370 600Q304 612 250.5 633Q197 654 146 687L173 734Q220 702 270 680.5Q320 659 379 645ZM389 128Q389 151 389 181Q389 211 390 243Q358 245 321.5 246Q285 247 259 247Q176 247 140 220.5Q104 194 104 144Q104 117 112.5 96.5Q121 76 135.5 63Q150 50 169.5 43.5Q189 37 211 37Q236 37 260.5 45Q285 53 307.5 66Q330 79 350.5 95Q371 111 389 128ZM77 472Q125 491 172.5 502.5Q220 514 271 514Q359 514 404.5 472.5Q450 431 450 346Q450 325 449.5 294Q449 263 449 230.5Q449 198 448.5 170Q448 142 448 128Q448 86 450 57.5Q452 29 457 3L400 -6Q396 12 393.5 30.5Q391 49 389 70Q372 54 352 39Q332 24 309 12Q286 0 259.5 -7Q233 -14 203 -14Q173 -14 145 -5Q117 4 95 23Q73 42 59.5 72.5Q46 103 46 145Q46 179 57.5 207Q69 235 94 255Q119 275 158 286Q197 297 251 297Q292 297 326 296Q360 295 391 293V336Q391 402 360 432Q329 462 266 462Q221 462 177 450Q133 438 87 421Z" glyph-name="agrave" horiz-adv-x="528" unicode="&#224;" /><glyph d="M391 600Q325 612 271.5 633Q218 654 167 687L194 734Q241 702 291 680.5Q341 659 400 645ZM261 40Q284 40 308 50.5Q332 61 355 78Q378 95 399 118Q420 141 438 165V401Q399 427 363 443Q327 459 283 459Q206 459 163.5 403Q121 347 121 248Q121 198 132.5 159.5Q144 121 163 94.5Q182 68 207.5 54Q233 40 261 40ZM499 126Q499 92 502.5 60.5Q506 29 515 5L457 -7Q448 13 443.5 37.5Q439 62 438 91Q403 47 356.5 16Q310 -15 251 -15Q211 -15 176.5 2Q142 19 116 52Q90 85 75 133.5Q60 182 60 246Q60 305 74.5 354Q89 403 117.5 438.5Q146 474 187 494Q228 514 282 514Q327 514 365 499Q403 484 441 461L447 500H499Z" glyph-name="agrave.alt" horiz-adv-x="587" unicode="&#59538;" /><glyph d="M408 637H108V687H408ZM389 128Q389 151 389 181Q389 211 390 243Q358 245 321.5 246Q285 247 259 247Q176 247 140 220.5Q104 194 104 144Q104 117 112.5 96.5Q121 76 135.5 63Q150 50 169.5 43.5Q189 37 211 37Q236 37 260.5 45Q285 53 307.5 66Q330 79 350.5 95Q371 111 389 128ZM77 472Q125 491 172.5 502.5Q220 514 271 514Q359 514 404.5 472.5Q450 431 450 346Q450 325 449.5 294Q449 263 449 230.5Q449 198 448.5 170Q448 142 448 128Q448 86 450 57.5Q452 29 457 3L400 -6Q396 12 393.5 30.5Q391 49 389 70Q372 54 352 39Q332 24 309 12Q286 0 259.5 -7Q233 -14 203 -14Q173 -14 145 -5Q117 4 95 23Q73 42 59.5 72.5Q46 103 46 145Q46 179 57.5 207Q69 235 94 255Q119 275 158 286Q197 297 251 297Q292 297 326 296Q360 295 391 293V336Q391 402 360 432Q329 462 266 462Q221 462 177 450Q133 438 87 421Z" glyph-name="amacron" horiz-adv-x="528" unicode="&#257;" /><glyph d="M440 637H140V687H440ZM261 40Q284 40 308 50.5Q332 61 355 78Q378 95 399 118Q420 141 438 165V401Q399 427 363 443Q327 459 283 459Q206 459 163.5 403Q121 347 121 248Q121 198 132.5 159.5Q144 121 163 94.5Q182 68 207.5 54Q233 40 261 40ZM499 126Q499 92 502.5 60.5Q506 29 515 5L457 -7Q448 13 443.5 37.5Q439 62 438 91Q403 47 356.5 16Q310 -15 251 -15Q211 -15 176.5 2Q142 19 116 52Q90 85 75 133.5Q60 182 60 246Q60 305 74.5 354Q89 403 117.5 438.5Q146 474 187 494Q228 514 282 514Q327 514 365 499Q403 484 441 461L447 500H499Z" glyph-name="amacron.alt" horiz-adv-x="587" unicode="&#59541;" /><glyph d="M257 398Q298 416 326.5 432Q355 448 373 465Q391 482 399 501.5Q407 521 407 545Q407 590 379 614.5Q351 639 306 639Q255 639 224.5 611Q194 583 194 532Q194 492 209.5 461Q225 430 255 397Q256 397 256 397.5Q256 398 257 398ZM343 232Q312 261 287 285.5Q262 310 241 331Q177 299 149 265Q121 231 121 183Q121 153 131.5 126.5Q142 100 163 80.5Q184 61 216.5 50Q249 39 294 39Q351 39 393.5 60Q436 81 467 121Q437 147 406.5 173.5Q376 200 343 232ZM597 330Q589 273 575.5 224Q562 175 541 134Q573 108 607.5 82Q642 56 681 27L644 -16Q606 12 573.5 36.5Q541 61 511 85Q473 37 419.5 10.5Q366 -16 293 -16Q233 -16 189.5 -1Q146 14 117.5 40Q89 66 75.5 102.5Q62 139 62 181Q62 250 98 294Q134 338 203 373Q168 415 152.5 451.5Q137 488 137 533Q137 565 148 593.5Q159 622 180.5 643.5Q202 665 234 677.5Q266 690 307 690Q343 690 371.5 679.5Q400 669 420.5 650Q441 631 451.5 605Q462 579 462 548Q462 512 451 485Q440 458 419 435.5Q398 413 367 394Q336 375 296 357L387 270Q415 243 442 218.5Q469 194 497 170Q514 205 525 248Q536 291 542 343Z" glyph-name="ampersand" horiz-adv-x="718" unicode="&amp;" /><glyph d="M337 434Q337 465 317 482.5Q297 500 262 500Q218 500 198 479Q178 458 178 425Q178 396 188.5 372Q199 348 222 322Q255 337 277.5 350Q300 363 313 376Q326 389 331.5 403Q337 417 337 434ZM295 180Q268 203 246 222.5Q224 242 207 260Q154 234 133 208Q112 182 112 146Q112 101 146 71.5Q180 42 251 42Q346 42 395 98Q371 117 346.5 137Q322 157 295 180ZM514 257Q502 171 469 110Q495 90 523.5 70.5Q552 51 585 29L549 -12Q517 10 490 29Q463 48 438 66Q406 28 359.5 8Q313 -12 250 -12Q199 -12 161.5 0Q124 12 100 33Q76 54 64.5 82.5Q53 111 53 145Q53 199 83 234.5Q113 270 172 299Q144 333 132 363.5Q120 394 120 429Q120 454 129 476.5Q138 499 156 516.5Q174 534 200.5 544Q227 554 262 554Q325 554 358.5 521.5Q392 489 392 437Q392 383 357.5 348Q323 313 260 284Q276 270 293.5 254Q311 238 333 220Q378 180 425 143Q448 191 459 268Z" glyph-name="ampersand.sc" horiz-adv-x="618" unicode="&#63270;" /><glyph d="M282 783 122 331 286 -155 231 -164 65 328 229 790Z" glyph-name="anglebracketleft" horiz-adv-x="267" unicode="&#12296;" /><glyph d="M272 683 132 281 276 -155 221 -164 75 278 219 690Z" glyph-name="anglebracketleft.sc" horiz-adv-x="267" /><glyph d="M-18 -157 147 330 -18 781 39 791 205 333 41 -163Z" glyph-name="anglebracketright" horiz-adv-x="268" unicode="&#12297;" /><glyph d="M-8 -157 137 280 -8 681 49 691 195 283 51 -163Z" glyph-name="anglebracketright.sc" horiz-adv-x="268" /><glyph d="M389 243Q357 245 321 246Q285 247 259 247Q176 247 140 220Q104 193 104 143Q104 89 134.5 63Q165 37 208 37Q233 37 258 46Q283 55 306 70Q329 85 350 103.5Q371 122 389 140ZM77 472Q125 491 172.5 502.5Q220 514 271 514Q359 514 404.5 472.5Q450 431 450 346Q450 325 449.5 294Q449 263 449 230.5Q449 198 448.5 170Q448 142 448 128Q448 86 451 47.5Q454 9 462 -21Q387 -52 357 -81.5Q327 -111 327 -137Q327 -155 339 -166Q351 -177 386 -177Q409 -177 430 -174Q451 -171 474 -166L485 -211Q457 -219 431 -222Q405 -225 382 -225Q350 -225 328 -218.5Q306 -212 293 -201Q280 -190 274.5 -175.5Q269 -161 269 -144Q269 -108 298 -74Q327 -40 398 -4Q391 32 389 81Q372 63 351.5 46Q331 29 307.5 15.5Q284 2 257 -6Q230 -14 199 -14Q170 -14 142.5 -5Q115 4 93.5 23Q72 42 59 72Q46 102 46 144Q46 178 57.5 206Q69 234 94 254Q119 274 158 285.5Q197 297 251 297Q291 297 325 296Q359 295 390 293V336Q390 402 359.5 432Q329 462 266 462Q221 462 177 450Q133 438 87 421Z" glyph-name="aogonek" horiz-adv-x="528" unicode="&#261;" /><glyph d="M253 40Q277 40 302 52Q327 64 351 83.5Q375 103 397.5 127.5Q420 152 439 177V401Q400 427 364 443Q328 459 283 459Q206 459 164 403Q122 347 122 248Q122 198 132 159.5Q142 121 159.5 94.5Q177 68 201 54Q225 40 253 40ZM500 126Q500 92 504 56Q508 20 521 -12Q444 -50 414.5 -80.5Q385 -111 385 -137Q385 -152 397.5 -163.5Q410 -175 445 -175Q468 -175 489 -172Q510 -169 533 -164L544 -209Q516 -217 490 -220Q464 -223 441 -223Q409 -223 387 -216.5Q365 -210 352 -198.5Q339 -187 333.5 -173Q328 -159 328 -144Q328 -126 334 -109.5Q340 -93 354.5 -75.5Q369 -58 393.5 -39.5Q418 -21 454 0Q447 20 443.5 47Q440 74 439 102Q420 79 398.5 57.5Q377 36 352.5 20Q328 4 300.5 -5.5Q273 -15 242 -15Q203 -15 169.5 2Q136 19 112 52Q88 85 74 133.5Q60 182 60 246Q60 305 74.5 354Q89 403 117.5 438.5Q146 474 187.5 494Q229 514 283 514Q328 514 366 499Q404 484 442 461L447 500H500Z" glyph-name="aogonek.alt" horiz-adv-x="588" unicode="&#59545;" /><glyph d="M509 790Q509 752 496 720.5Q483 689 460 665Q437 641 406.5 626Q376 611 342 608Q343 682 381 736.5Q419 791 506 811Q508 804 508.5 799Q509 794 509 790ZM356 588Q377 588 396.5 593.5Q416 599 435.5 605Q455 611 474.5 616.5Q494 622 515 622Q566 622 605.5 599Q645 576 674 540Q633 503 608.5 464.5Q584 426 584 377Q584 349 592 321.5Q600 294 614.5 270Q629 246 650 228Q671 210 698 202Q687 172 669 133.5Q651 95 626 60.5Q601 26 571 2.5Q541 -21 507 -21Q487 -21 469 -16Q451 -11 433.5 -5Q416 1 398.5 6Q381 11 362 11Q343 11 325.5 5.5Q308 0 291.5 -6Q275 -12 258.5 -17.5Q242 -23 224 -23Q191 -23 161.5 -2Q132 19 107 52.5Q82 86 62 128Q42 170 28.5 212.5Q15 255 7.5 293.5Q0 332 0 359Q0 405 12.5 451.5Q25 498 49.5 535Q74 572 111.5 595Q149 618 199 618Q220 618 240 613.5Q260 609 279 603Q298 597 317 592.5Q336 588 356 588Z" glyph-name="apple" horiz-adv-x="697" unicode="&#63743;" /><glyph d="M501 334Q480 315 455 302Q430 289 387 289Q355 289 332.5 297.5Q310 306 290 316Q270 326 248 334.5Q226 343 195 343Q166 343 145 333.5Q124 324 104 307L79 350Q103 370 129.5 383Q156 396 198 396Q233 396 256 387.5Q279 379 299 369Q319 359 339.5 350.5Q360 342 390 342Q424 342 442 352.5Q460 363 480 380ZM501 187Q480 169 455 155.5Q430 142 387 142Q355 142 332.5 150.5Q310 159 289.5 169Q269 179 247.5 187.5Q226 196 195 196Q166 196 145 187Q124 178 104 161L79 204Q103 224 129.5 236.5Q156 249 198 249Q232 249 255.5 240.5Q279 232 299 222Q319 212 339.5 203.5Q360 195 390 195Q422 195 441 205.5Q460 216 480 234Z" glyph-name="approxequal" horiz-adv-x="580" unicode="&#8776;" /><glyph d="M265 719Q240 719 228 704Q216 689 216 667Q216 643 229.5 628Q243 613 265 613Q290 613 302.5 629Q315 645 315 669Q315 689 301.5 704Q288 719 265 719ZM265 759Q308 759 332.5 732.5Q357 706 357 670Q357 626 331.5 600Q306 574 265 573Q224 573 199 599.5Q174 626 174 667Q174 705 198 732Q222 759 265 759ZM389 128Q389 151 389 181Q389 211 390 243Q358 245 321.5 246Q285 247 259 247Q176 247 140 220.5Q104 194 104 144Q104 117 112.5 96.5Q121 76 135.5 63Q150 50 169.5 43.5Q189 37 211 37Q236 37 260.5 45Q285 53 307.5 66Q330 79 350.5 95Q371 111 389 128ZM77 472Q125 491 172.5 502.5Q220 514 271 514Q359 514 404.5 472.5Q450 431 450 346Q450 325 449.5 294Q449 263 449 230.5Q449 198 448.5 170Q448 142 448 128Q448 86 450 57.5Q452 29 457 3L400 -6Q396 12 393.5 30.5Q391 49 389 70Q372 54 352 39Q332 24 309 12Q286 0 259.5 -7Q233 -14 203 -14Q173 -14 145 -5Q117 4 95 23Q73 42 59.5 72.5Q46 103 46 145Q46 179 57.5 207Q69 235 94 255Q119 275 158 286Q197 297 251 297Q292 297 326 296Q360 295 391 293V336Q391 402 360 432Q329 462 266 462Q221 462 177 450Q133 438 87 421Z" glyph-name="aring" horiz-adv-x="528" unicode="&#229;" /><glyph d="M292 728Q267 728 255 713Q243 698 243 676Q243 652 256.5 637Q270 622 292 622Q317 622 329.5 638Q342 654 342 678Q342 698 328.5 713Q315 728 292 728ZM292 768Q335 768 359.5 741.5Q384 715 384 679Q384 635 358.5 609Q333 583 292 582Q251 582 226 608.5Q201 635 201 676Q201 714 225 741Q249 768 292 768ZM261 40Q284 40 308 50.5Q332 61 355 78Q378 95 399 118Q420 141 438 165V401Q399 427 363 443Q327 459 283 459Q206 459 163.5 403Q121 347 121 248Q121 198 132.5 159.5Q144 121 163 94.5Q182 68 207.5 54Q233 40 261 40ZM499 126Q499 92 502.5 60.5Q506 29 515 5L457 -7Q448 13 443.5 37.5Q439 62 438 91Q403 47 356.5 16Q310 -15 251 -15Q211 -15 176.5 2Q142 19 116 52Q90 85 75 133.5Q60 182 60 246Q60 305 74.5 354Q89 403 117.5 438.5Q146 474 187 494Q228 514 282 514Q327 514 365 499Q403 484 441 461L447 500H499Z" glyph-name="aring.alt" horiz-adv-x="587" unicode="&#59543;" /><glyph d="M390 572V104Q436 166 491.5 224Q547 282 610 335L643 293Q601 258 565.5 224Q530 190 498 154.5Q466 119 436.5 81Q407 43 377 0H343Q311 44 281.5 81.5Q252 119 221 154Q190 189 155 223Q120 257 77 294L109 337Q175 281 228 224.5Q281 168 330 102V572Z" glyph-name="arrowdown" horiz-adv-x="720" unicode="&#8595;" /><glyph d="M655 259H192Q259 209 317.5 155Q376 101 434 33L391 1Q354 44 320 79Q286 114 251 146Q216 178 178.5 208Q141 238 97 270V297Q140 327 178 357.5Q216 388 251.5 420.5Q287 453 321 489Q355 525 390 567L431 536Q376 471 316 413.5Q256 356 192 308L655 309Z" glyph-name="arrowleft" horiz-adv-x="717" unicode="&#8592;" /><glyph d="M62 309H524Q457 358 398.5 412Q340 466 283 535L326 567Q363 524 397 488.5Q431 453 466 421.5Q501 390 538.5 360Q576 330 620 298V270Q577 240 539 209.5Q501 179 465.5 146.5Q430 114 396 78Q362 42 327 1L286 32Q340 96 399.5 153.5Q459 211 523 259H62Z" glyph-name="arrowright" horiz-adv-x="717" unicode="&#8594;" /><glyph d="M330 0V468Q284 405 228.5 347.5Q173 290 110 237L77 279Q119 314 154.5 348Q190 382 222 417.5Q254 453 284 491Q314 529 344 572H377Q409 528 438.5 490.5Q468 453 499 418Q530 383 565 349Q600 315 643 278L611 235Q544 291 491 347.5Q438 404 390 470V0Z" glyph-name="arrowup" horiz-adv-x="720" unicode="&#8593;" /><glyph d="M527 407 475 385 286 694 104 385 53 407 253 748H318Z" glyph-name="asciicircum" horiz-adv-x="580" unicode="^" /><glyph d="M514 275Q493 256 464.5 243Q436 230 393 230Q361 230 336 238.5Q311 247 288.5 257Q266 267 242 275.5Q218 284 187 284Q158 284 134.5 274.5Q111 265 91 248L66 291Q89 311 118 324Q147 337 190 337Q226 337 251.5 328.5Q277 320 299.5 310Q322 300 345 291.5Q368 283 398 283Q432 283 452.5 293.5Q473 304 493 321Z" glyph-name="asciitilde" horiz-adv-x="580" unicode="~" /><glyph d="M230 558 225 747H275L270 559L437 657L459 613L289 522L459 431L437 388L270 485L275 296H225L230 486L63 388L40 431L210 522L40 613L63 657Z" glyph-name="asterisk" horiz-adv-x="500" unicode="*" /><glyph d="M467 41Q495 41 518 51.5Q541 62 560.5 80.5Q580 99 596.5 124Q613 149 628 178L652 407Q626 419 601 424.5Q576 430 544 430Q497 430 461 412.5Q425 395 399.5 363Q374 331 361 287Q348 243 348 189Q348 112 380 76.5Q412 41 467 41ZM762 33Q803 33 833.5 55Q864 77 884 113.5Q904 150 914 197.5Q924 245 924 297Q924 378 900.5 441.5Q877 505 830.5 549Q784 593 715 616.5Q646 640 554 640Q452 640 373 605Q294 570 239.5 510Q185 450 156.5 369Q128 288 128 196Q128 94 155.5 23Q183 -48 230.5 -91.5Q278 -135 342 -154.5Q406 -174 479 -174Q524 -174 560.5 -170.5Q597 -167 628 -161Q659 -155 687 -146Q715 -137 743 -125L760 -171Q728 -186 697 -196.5Q666 -207 631.5 -214Q597 -221 557 -224.5Q517 -228 469 -228Q391 -228 318 -207Q245 -186 189 -137Q133 -88 99 -7Q65 74 65 195Q65 301 99 392Q133 483 196 550Q259 617 350 655Q441 693 555 693Q663 693 743.5 663.5Q824 634 877.5 581.5Q931 529 957 456.5Q983 384 983 298Q983 235 969 177.5Q955 120 926.5 75.5Q898 31 855.5 5Q813 -21 757 -21Q722 -21 699.5 -11Q677 -1 663 15.5Q649 32 642.5 52.5Q636 73 635 94Q605 47 562.5 16.5Q520 -14 458 -14Q382 -14 334 35Q286 84 286 189Q286 253 304.5 307.5Q323 362 356.5 401.5Q390 441 437.5 463Q485 485 544 485Q582 485 608.5 479Q635 473 663 462L664 465L715 471L685 136Q685 132 684.5 127Q684 122 684 118Q684 101 687 86Q690 71 698.5 59Q707 47 722.5 40Q738 33 762 33Z" glyph-name="at" horiz-adv-x="1048" unicode="@" /><glyph d="M435 215H622L530 459H527ZM717 133Q734 89 753 69Q772 49 804 49Q829 49 850.5 65Q872 81 888.5 111.5Q905 142 914.5 187Q924 232 924 291Q924 372 898 436.5Q872 501 822.5 546Q773 591 701 615.5Q629 640 537 640Q435 640 358.5 606Q282 572 231 513Q180 454 154 374Q128 294 128 202Q128 100 158 28.5Q188 -43 239 -88Q290 -133 356.5 -153.5Q423 -174 496 -174Q541 -174 577.5 -170.5Q614 -167 645 -161Q676 -155 704 -146Q732 -137 760 -125L777 -171Q745 -186 714 -196.5Q683 -207 648.5 -214Q614 -221 574 -224.5Q534 -228 486 -228Q408 -228 332.5 -206.5Q257 -185 197.5 -134.5Q138 -84 101.5 -2Q65 80 65 201Q65 307 96.5 397Q128 487 188 553Q248 619 336.5 656Q425 693 539 693Q647 693 730 662.5Q813 632 869 578.5Q925 525 954 451.5Q983 378 983 292Q983 224 969 169Q955 114 930.5 75Q906 36 872.5 15Q839 -6 799 -6Q771 -6 750.5 1Q730 8 713.5 23.5Q697 39 684 63.5Q671 88 658 122L643 161H415L352 -6L297 3L487 505H575Z" glyph-name="at.sc" horiz-adv-x="1048" unicode="&#62987;" /><glyph d="M407 697Q395 659 373 641.5Q351 624 317 624Q296 624 280.5 630Q265 636 252.5 642.5Q240 649 228.5 655Q217 661 205 661Q185 661 173 650.5Q161 640 156 624L115 638Q124 671 147 689.5Q170 708 202 708Q224 708 239.5 702Q255 696 267.5 689.5Q280 683 291.5 677Q303 671 317 671Q337 671 347.5 680Q358 689 364 709ZM389 128Q389 151 389 181Q389 211 390 243Q358 245 321.5 246Q285 247 259 247Q176 247 140 220.5Q104 194 104 144Q104 117 112.5 96.5Q121 76 135.5 63Q150 50 169.5 43.5Q189 37 211 37Q236 37 260.5 45Q285 53 307.5 66Q330 79 350.5 95Q371 111 389 128ZM77 472Q125 491 172.5 502.5Q220 514 271 514Q359 514 404.5 472.5Q450 431 450 346Q450 325 449.5 294Q449 263 449 230.5Q449 198 448.5 170Q448 142 448 128Q448 86 450 57.5Q452 29 457 3L400 -6Q396 12 393.5 30.5Q391 49 389 70Q372 54 352 39Q332 24 309 12Q286 0 259.5 -7Q233 -14 203 -14Q173 -14 145 -5Q117 4 95 23Q73 42 59.5 72.5Q46 103 46 145Q46 179 57.5 207Q69 235 94 255Q119 275 158 286Q197 297 251 297Q292 297 326 296Q360 295 391 293V336Q391 402 360 432Q329 462 266 462Q221 462 177 450Q133 438 87 421Z" glyph-name="atilde" horiz-adv-x="528" unicode="&#227;" /><glyph d="M445 697Q433 659 411 641.5Q389 624 355 624Q334 624 318.5 630Q303 636 290.5 642.5Q278 649 266.5 655Q255 661 243 661Q223 661 211 650.5Q199 640 194 624L153 638Q162 671 185 689.5Q208 708 240 708Q262 708 277.5 702Q293 696 305.5 689.5Q318 683 329.5 677Q341 671 355 671Q375 671 385.5 680Q396 689 402 709ZM261 40Q284 40 308 50.5Q332 61 355 78Q378 95 399 118Q420 141 438 165V401Q399 427 363 443Q327 459 283 459Q206 459 163.5 403Q121 347 121 248Q121 198 132.5 159.5Q144 121 163 94.5Q182 68 207.5 54Q233 40 261 40ZM499 126Q499 92 502.5 60.5Q506 29 515 5L457 -7Q448 13 443.5 37.5Q439 62 438 91Q403 47 356.5 16Q310 -15 251 -15Q211 -15 176.5 2Q142 19 116 52Q90 85 75 133.5Q60 182 60 246Q60 305 74.5 354Q89 403 117.5 438.5Q146 474 187 494Q228 514 282 514Q327 514 365 499Q403 484 441 461L447 500H499Z" glyph-name="atilde.alt" horiz-adv-x="587" unicode="&#59544;" /><glyph d="M323 459Q281 459 240.5 436Q200 413 162 377V64Q193 53 224 47Q255 41 294 41Q372 41 419 98.5Q466 156 466 261Q466 318 454 356Q442 394 421.5 417Q401 440 375.5 449.5Q350 459 323 459ZM162 438Q196 470 237 492Q278 514 328 514Q373 514 410 499Q447 484 473 453.5Q499 423 513.5 375Q528 327 528 261Q528 201 513 150.5Q498 100 468.5 63.5Q439 27 394.5 6.5Q350 -14 292 -14Q197 -14 101 24V745H162Z" glyph-name="b" horiz-adv-x="588" unicode="b" /><glyph d="M421 -161H360L11 700H71Z" glyph-name="backslash" horiz-adv-x="366" unicode="\" /><glyph d="M355 0H295L19 680H80Z" glyph-name="backslash.cap" horiz-adv-x="366" unicode="&#58466;" /><glyph d="M355 0H295L20 680H80Z" glyph-name="backslash.cap.tab" horiz-adv-x="366" unicode="&#59752;" /><glyph d="M355 0H291L11 546H75Z" glyph-name="backslash.sc" horiz-adv-x="366" unicode="&#59759;" /><glyph d="M421 -161H360L11 700H71Z" glyph-name="backslash.tab" horiz-adv-x="366" unicode="&#59751;" /><glyph d="M386 252 507 119 463 85 352 214 242 85 199 116 318 250 200 385 249 414 353 288 462 414 503 382ZM164 55H547V444H164ZM101 0V498H609V0Z" glyph-name="ballotboxwithx" horiz-adv-x="710" unicode="&#9746;" /><glyph d="M161 -220H104V790H161Z" glyph-name="bar" horiz-adv-x="266" unicode="|" /><glyph d="M101 498H609V0H101Z" glyph-name="blacksmallsquare" horiz-adv-x="710" unicode="&#9642;" /><glyph d="M101 680H779V0H101Z" glyph-name="blacksquare" horiz-adv-x="880" unicode="&#9632;" /><glyph d="M336 730H283Q260 730 245 725.5Q230 721 221 710Q212 699 208.5 681Q205 663 205 636V443Q205 390 189 359Q173 328 135 315Q173 306 189 281Q205 256 205 203V-11Q205 -64 221 -84Q237 -104 283 -104H336V-154H262Q199 -154 172.5 -122.5Q146 -91 146 -26V206Q146 248 125.5 266.5Q105 285 54 285V341Q105 341 125.5 369Q146 397 146 439V651Q146 717 172.5 748.5Q199 780 262 780H336Z" glyph-name="braceleft" horiz-adv-x="389" unicode="{" /><glyph d="M336 630H283Q260 630 245 625.5Q230 621 221 610Q212 599 208.5 581Q205 563 205 536V393Q205 340 189 309Q173 278 135 265Q173 256 189 231Q205 206 205 153V-11Q205 -64 221 -84Q237 -104 283 -104H336V-154H262Q199 -154 172.5 -122.5Q146 -91 146 -26V156Q146 198 125.5 216.5Q105 235 54 235V291Q105 291 125.5 319Q146 347 146 389V551Q146 617 172.5 648.5Q199 680 262 680H336Z" glyph-name="braceleft.sc" horiz-adv-x="389" unicode="&#62988;" /><glyph d="M127 780Q190 780 216.5 748.5Q243 717 243 652V419Q243 378 264 359.5Q285 341 336 341V285Q285 285 264 256.5Q243 228 243 186V-25Q243 -91 216.5 -122.5Q190 -154 127 -154H54V-104H107Q153 -104 168.5 -83.5Q184 -63 184 -10V183Q184 236 199.5 266.5Q215 297 253 311Q215 319 199.5 344Q184 369 184 423V637Q184 664 180.5 681.5Q177 699 168.5 710Q160 721 145 725.5Q130 730 107 730H54V780Z" glyph-name="braceright" horiz-adv-x="389" unicode="}" /><glyph d="M127 680Q190 680 216.5 648.5Q243 617 243 552V369Q243 328 264 309.5Q285 291 336 291V235Q285 235 264 206.5Q243 178 243 136V-25Q243 -91 216.5 -122.5Q190 -154 127 -154H54V-104H107Q153 -104 168.5 -83.5Q184 -63 184 -10V133Q184 186 199.5 216.5Q215 247 253 261Q215 269 199.5 294Q184 319 184 373V537Q184 564 180.5 581.5Q177 599 168.5 610Q160 621 145 625.5Q130 630 107 630H54V680Z" glyph-name="braceright.sc" horiz-adv-x="389" unicode="&#62989;" /><glyph d="M357 729H167V-102H357V-153H108V780H357Z" glyph-name="bracketleft" horiz-adv-x="384" unicode="[" /><glyph d="M357 629H167V-102H357V-153H108V680H357Z" glyph-name="bracketleft.sc" horiz-adv-x="384" unicode="&#62990;" /><glyph d="M276 -154H27V-104H219V728H27V779H276Z" glyph-name="bracketright" horiz-adv-x="384" unicode="]" /><glyph d="M276 -154H27V-104H219V628H27V679H276Z" glyph-name="bracketright.sc" horiz-adv-x="384" unicode="&#62991;" /><glyph d="M103 702Q105 675 120 659Q135 643 163 643Q189 643 205 660Q221 677 223 701L277 694Q273 649 243 622Q213 595 163 595Q112 595 83 620.5Q54 646 50 692Z" glyph-name="breve" horiz-adv-x="335" unicode="&#728;" /><glyph d="M92 869Q94 836 114.5 819.5Q135 803 165 803Q194 803 215 820Q236 837 238 869L292 864Q289 837 278 817Q267 797 250 783.5Q233 770 211 763.5Q189 757 164 757Q109 757 76 784Q43 811 38 865Z" glyph-name="breve.cap" horiz-adv-x="363" unicode="&#58406;" /><glyph d="M161 416H104V790H161ZM161 -220H104V154H161Z" glyph-name="brokenbar" horiz-adv-x="266" unicode="&#166;" /><glyph d="M221 367Q257 367 282.5 346Q308 325 308 282Q308 234 282 207.5Q256 181 216 181Q183 181 156.5 203.5Q130 226 130 274Q130 311 154.5 339Q179 367 221 367Z" glyph-name="bullet" horiz-adv-x="439" unicode="&#8226;" /><glyph d="M417 437Q379 448 346.5 454Q314 460 280 460Q204 460 163 414Q122 368 122 263Q122 154 162 97.5Q202 41 274 41Q322 41 356.5 55.5Q391 70 429 94L451 46Q407 17 366.5 1.5Q326 -14 272 -14Q217 -14 177 5Q137 24 111 60Q85 96 72.5 147.5Q60 199 60 264Q60 389 117.5 451.5Q175 514 281 514Q324 514 358 507.5Q392 501 433 490Z" glyph-name="c" horiz-adv-x="466" unicode="c" /><glyph d="M402 685Q340 649 282 631.5Q224 614 161 606L156 653Q212 661 265.5 680.5Q319 700 377 733ZM417 437Q379 448 346.5 454Q314 460 280 460Q204 460 163 414Q122 368 122 263Q122 154 162 97.5Q202 41 274 41Q322 41 356.5 55.5Q391 70 429 94L451 46Q407 17 366.5 1.5Q326 -14 272 -14Q217 -14 177 5Q137 24 111 60Q85 96 72.5 147.5Q60 199 60 264Q60 389 117.5 451.5Q175 514 281 514Q324 514 358 507.5Q392 501 433 490Z" glyph-name="cacute" horiz-adv-x="466" unicode="&#263;" /><glyph d="M441 705 322 584H274L153 705L191 728L299 630L406 727Z" glyph-name="caron" horiz-adv-x="590" unicode="&#711;" /><glyph d="M462 869 323 752H276L134 869L173 893L301 797L423 892Z" glyph-name="caron.cap" horiz-adv-x="590" unicode="&#58413;" /><glyph d="M114 656Q137 703 144.5 726.5Q152 750 152 764Q152 783 143.5 792Q135 801 116 806L131 855Q170 845 188.5 826Q207 807 207 775Q207 750 196.5 721Q186 692 163 645Z" glyph-name="caroncomma" horiz-adv-x="335" unicode="&#59696;" /><glyph d="M114 586Q137 633 144.5 656.5Q152 680 152 694Q152 713 143.5 722Q135 731 116 736L131 785Q170 775 188.5 756Q207 737 207 705Q207 680 196.5 651Q186 622 163 575Z" glyph-name="caroncomma.cap" horiz-adv-x="335" unicode="&#59697;" /><glyph d="M422 704 303 583H255L134 704L172 727L280 629L387 726ZM417 437Q379 448 346.5 454Q314 460 280 460Q204 460 163 414Q122 368 122 263Q122 154 162 97.5Q202 41 274 41Q322 41 356.5 55.5Q391 70 429 94L451 46Q407 17 366.5 1.5Q326 -14 272 -14Q217 -14 177 5Q137 24 111 60Q85 96 72.5 147.5Q60 199 60 264Q60 389 117.5 451.5Q175 514 281 514Q324 514 358 507.5Q392 501 433 490Z" glyph-name="ccaron" horiz-adv-x="466" unicode="&#269;" /><glyph d="M417 437Q379 448 346.5 454Q314 460 280 460Q204 460 163 414Q122 368 122 263Q122 154 162 97.5Q202 41 274 41Q322 41 356.5 55.5Q391 70 429 94L451 46Q409 19 370.5 3.5Q332 -12 283 -14L273 -59Q328 -76 353.5 -95Q379 -114 379 -150Q379 -196 340 -213.5Q301 -231 211 -231L207 -185Q243 -185 265 -183.5Q287 -182 300 -178Q313 -174 317.5 -167.5Q322 -161 322 -151Q322 -134 304.5 -123Q287 -112 239 -101L224 -73L238 -12Q146 -1 103 72Q60 145 60 264Q60 389 117.5 451.5Q175 514 281 514Q324 514 358 507.5Q392 501 433 490Z" glyph-name="ccedilla" horiz-adv-x="466" unicode="&#231;" /><glyph d="M420 614 382 591 275 688 167 592 132 614 253 735H301ZM417 437Q379 448 346.5 454Q314 460 280 460Q204 460 163 414Q122 368 122 263Q122 154 162 97.5Q202 41 274 41Q322 41 356.5 55.5Q391 70 429 94L451 46Q407 17 366.5 1.5Q326 -14 272 -14Q217 -14 177 5Q137 24 111 60Q85 96 72.5 147.5Q60 199 60 264Q60 389 117.5 451.5Q175 514 281 514Q324 514 358 507.5Q392 501 433 490Z" glyph-name="ccircumflex" horiz-adv-x="466" unicode="&#265;" /><glyph d="M272 706Q290 706 302 695.5Q314 685 314 665Q314 643 301.5 630.5Q289 618 270 618Q253 618 241 629Q229 640 229 663Q229 681 240 693.5Q251 706 272 706ZM417 437Q379 448 346.5 454Q314 460 280 460Q204 460 163 414Q122 368 122 263Q122 154 162 97.5Q202 41 274 41Q322 41 356.5 55.5Q391 70 429 94L451 46Q407 17 366.5 1.5Q326 -14 272 -14Q217 -14 177 5Q137 24 111 60Q85 96 72.5 147.5Q60 199 60 264Q60 389 117.5 451.5Q175 514 281 514Q324 514 358 507.5Q392 501 433 490Z" glyph-name="cdotaccent" horiz-adv-x="466" unicode="&#267;" /><glyph d="M327 -59Q382 -76 407.5 -95Q433 -114 433 -150Q433 -196 394 -213.5Q355 -231 265 -231L261 -185Q297 -185 319 -183.5Q341 -182 354 -178Q367 -174 371.5 -167.5Q376 -161 376 -151Q376 -134 358.5 -123Q341 -112 293 -101L278 -73L296 3H341Z" glyph-name="cedilla" horiz-adv-x="833" unicode="&#184;" /><glyph d="M147 342Q147 249 181 204Q215 159 278 151V517Q250 513 226 501Q202 489 184.5 468Q167 447 157 415.5Q147 384 147 342ZM278 96Q181 103 133 165.5Q85 228 85 344Q85 397 99 437.5Q113 478 138.5 506.5Q164 535 199.5 551Q235 567 278 572V664H335V573Q369 571 400 565Q431 559 464 549L448 496Q390 514 335 519V152Q370 157 400.5 172Q431 187 461 206L484 158Q449 136 412.5 119Q376 102 335 97V13H278Z" glyph-name="cent" horiz-adv-x="580" unicode="&#162;" /><glyph d="M441 614 403 591 296 688 188 592 153 614 274 735H322Z" glyph-name="circumflex" horiz-adv-x="596" unicode="&#710;" /><glyph d="M461 763 422 739 294 833 174 739 134 763 272 883H319Z" glyph-name="circumflex.cap" horiz-adv-x="596" unicode="&#58403;" /><glyph d="M344 679Q403 679 439 652Q475 625 487 586Q499 547 487.5 504Q476 461 440 430Q482 434 517 427.5Q552 421 577.5 403.5Q603 386 617.5 359.5Q632 333 632 297Q632 229 594 190.5Q556 152 495 152Q451 152 418.5 178Q386 204 358 257Q358 189 368.5 145Q379 101 403 75Q427 49 466 38.5Q505 28 561 28V0H123V28Q180 28 219.5 38.5Q259 49 283 75Q307 101 317.5 145Q328 189 328 257Q278 152 189 152Q127 152 90 190.5Q53 229 53 292Q53 329 67 357Q81 385 106 403Q131 421 165.5 428Q200 435 241 431Q208 463 197 506Q186 549 198 587.5Q210 626 246.5 652.5Q283 679 344 679Z" glyph-name="club" horiz-adv-x="686" unicode="&#9827;" /><glyph d="M141 432Q158 432 169.5 422Q181 412 181 392Q181 371 169 358.5Q157 346 138 346Q123 346 111 356.5Q99 367 99 389Q99 406 110 419Q121 432 141 432ZM141 74Q158 74 169.5 64.5Q181 55 181 35Q181 13 169 0.5Q157 -12 138 -12Q123 -12 111 -1Q99 10 99 31Q99 48 110 61Q121 74 141 74Z" glyph-name="colon" horiz-adv-x="282" unicode=":" /><glyph d="M34 -149Q63 -91 79 -54.5Q95 -18 95 10Q95 27 86 39.5Q77 52 54 62L72 117Q151 91 151 22Q151 -17 131.5 -62.5Q112 -108 82 -167Z" glyph-name="comma" horiz-adv-x="268" unicode="," /><glyph d="M111 -244Q132 -206 140.5 -181.5Q149 -157 149 -140Q149 -124 140.5 -115.5Q132 -107 105 -102L116 -52Q164 -58 183.5 -76.5Q203 -95 203 -128Q203 -157 192 -187Q181 -217 163 -250Z" glyph-name="commaaccent" horiz-adv-x="335" unicode="&#58388;" /><glyph d="M302 785Q281 744 272.5 720Q264 696 264 679Q264 650 302 639L282 588Q244 599 227 618.5Q210 638 210 669Q210 697 221.5 727.5Q233 758 253 797Z" glyph-name="commaaccentaboverev" horiz-adv-x="546" unicode="&#59700;" /><glyph d="M457 474Q434 479 413 481.5Q392 484 367 484Q313 484 285 456.5Q257 429 257 361Q257 290 283 251.5Q309 213 361 213Q391 213 415 220.5Q439 228 465 240L486 192Q460 177 426.5 168Q393 159 359 159Q318 159 287.5 174Q257 189 237.5 216Q218 243 208.5 280Q199 317 199 361Q199 451 244 493.5Q289 536 367 536Q396 536 419 532.5Q442 529 467 523ZM358 625Q296 625 247 606.5Q198 588 163.5 553Q129 518 111 468.5Q93 419 93 357Q93 298 110 246Q127 194 161 155.5Q195 117 244.5 94.5Q294 72 359 72Q417 72 465.5 93Q514 114 549 152.5Q584 191 603 245Q622 299 622 366Q622 421 602 468.5Q582 516 547 550.5Q512 585 463.5 605Q415 625 358 625ZM358 673Q430 673 488.5 648Q547 623 588.5 581Q630 539 652.5 483.5Q675 428 675 367Q675 291 652.5 228Q630 165 588.5 119.5Q547 74 488.5 49Q430 24 359 24Q280 24 220 49.5Q160 75 120 119.5Q80 164 59.5 224.5Q39 285 39 356Q39 421 59.5 478.5Q80 536 120.5 579.5Q161 623 220.5 648Q280 673 358 673Z" glyph-name="copyright" horiz-adv-x="714" unicode="&#169;" /><glyph d="M294 461Q262 461 234.5 451.5Q207 442 187 423.5Q167 405 155.5 376.5Q144 348 144 310Q144 269 156 238.5Q168 208 189 188Q210 168 237.5 158.5Q265 149 296 149Q324 149 350 159Q376 169 396 190Q416 211 428.5 242.5Q441 274 441 316Q441 355 428.5 382.5Q416 410 395.5 427.5Q375 445 348.5 453Q322 461 294 461ZM180 487Q228 514 294 514Q326 514 355 508.5Q384 503 409 490L517 625L563 595L451 461Q475 437 489 402Q503 367 503 317Q503 266 488.5 227.5Q474 189 448 160L564 17L514 -14L405 125Q356 96 297 96Q227 96 176 123L69 -14L20 17L132 157Q108 183 95 220Q82 257 82 308Q82 355 96.5 392Q111 429 137 455L20 596L69 627Z" glyph-name="currency" horiz-adv-x="580" unicode="&#164;" /><glyph d="M256 39Q280 39 304 49Q328 59 351.5 75.5Q375 92 396 114.5Q417 137 434 163V419Q398 438 359 449.5Q320 461 279 461Q244 461 215 449.5Q186 438 165 413.5Q144 389 132.5 349.5Q121 310 121 253Q121 153 157 96Q193 39 256 39ZM495 0H439L435 93Q401 50 353 18Q305 -14 251 -14Q202 -14 166 6Q130 26 106.5 62Q83 98 71.5 147.5Q60 197 60 257Q60 323 75.5 371.5Q91 420 120 451.5Q149 483 189.5 498.5Q230 514 280 514Q322 514 360.5 503.5Q399 493 434 478V745H495Z" glyph-name="d" horiz-adv-x="599" unicode="d" /><glyph d="M183 549V746H246V549H419V494H246V89H183V494H10V549Z" glyph-name="dagger" horiz-adv-x="429" unicode="&#8224;" /><glyph d="M183 553V756H246V553H419V498H246V258H419V204H246V0H183V204H10V258H183V498H10V553Z" glyph-name="daggerdbl" horiz-adv-x="429" unicode="&#8225;" /><glyph d="M552 656Q575 703 582.5 726.5Q590 750 590 764Q590 783 581.5 792Q573 801 554 806L569 855Q608 845 626.5 826Q645 807 645 775Q645 750 634.5 721Q624 692 601 645ZM256 39Q280 39 304 49Q328 59 351.5 75.5Q375 92 396 114.5Q417 137 434 163V419Q398 438 359 449.5Q320 461 279 461Q244 461 215 449.5Q186 438 165 413.5Q144 389 132.5 349.5Q121 310 121 253Q121 153 157 96Q193 39 256 39ZM495 0H439L435 93Q401 50 353 18Q305 -14 251 -14Q202 -14 166 6Q130 26 106.5 62Q83 98 71.5 147.5Q60 197 60 257Q60 323 75.5 371.5Q91 420 120 451.5Q149 483 189.5 498.5Q230 514 280 514Q322 514 360.5 503.5Q399 493 434 478V745H495Z" glyph-name="dcaron" horiz-adv-x="599" unicode="&#271;" /><glyph d="M258 39Q305 39 352 74.5Q399 110 434 161V419Q398 438 359 449.5Q320 461 279 461Q244 461 215 449.5Q186 438 165 413.5Q144 389 132.5 349.5Q121 310 121 253Q121 153 157.5 96Q194 39 258 39ZM495 660H588V610H495V0H439L435 91Q401 48 353 17Q305 -14 252 -14Q204 -14 168 6Q132 26 108 62Q84 98 72 147.5Q60 197 60 256Q60 389 120 451.5Q180 514 280 514Q322 514 360.5 503.5Q399 493 434 478V610H309V660H434V768H495Z" glyph-name="dcroat" horiz-adv-x="605" unicode="&#273;" /><glyph d="M172 715Q143 715 128 698Q113 681 113 655Q113 628 128.5 609Q144 590 172 590Q200 590 216 608.5Q232 627 232 657Q232 683 215 699Q198 715 172 715ZM172 749Q217 749 242 722Q267 695 267 659Q267 613 241 585Q215 557 173 557Q125 557 101.5 584.5Q78 612 78 655Q78 694 101.5 721.5Q125 749 172 749Z" glyph-name="degree" horiz-adv-x="350" unicode="&#176;" /><glyph d="M319 679Q326 626 354.5 572Q383 518 419 472Q455 426 492.5 394Q530 362 555 352V326Q530 316 491.5 282.5Q453 249 416.5 202.5Q380 156 352 102.5Q324 49 319 0H291Q288 33 273.5 68Q259 103 238.5 137Q218 171 192.5 202.5Q167 234 141.5 259Q116 284 93 301.5Q70 319 53 326V352Q78 362 115.5 394Q153 426 189.5 472Q226 518 254.5 572Q283 626 291 679Z" glyph-name="diamond" horiz-adv-x="608" unicode="&#9830;" /><glyph d="M384 723Q399 723 409.5 713.5Q420 704 420 687Q420 669 409.5 657.5Q399 646 382 646Q368 646 357 656Q346 666 346 686Q346 701 356 712Q366 723 384 723ZM169 723Q184 723 194.5 713.5Q205 704 205 686Q205 669 194.5 657.5Q184 646 167 646Q153 646 142.5 655.5Q132 665 132 685Q132 701 141.5 712Q151 723 169 723Z" glyph-name="dieresis" horiz-adv-x="551" unicode="&#168;" /><glyph d="M380 851Q396 851 406 841.5Q416 832 416 815Q416 797 405.5 785.5Q395 774 378 774Q364 774 353.5 784Q343 794 343 814Q343 829 352.5 840Q362 851 380 851ZM173 851Q188 851 198 841.5Q208 832 208 814Q208 797 197.5 785.5Q187 774 170 774Q156 774 145.5 783.5Q135 793 135 813Q135 829 144.5 840Q154 851 173 851Z" glyph-name="dieresis.cap" horiz-adv-x="551" unicode="&#58409;" /><glyph d="M367 723Q383 723 393 713.5Q403 704 403 687Q403 669 392.5 657.5Q382 646 365 646Q351 646 340.5 656Q330 666 330 686Q330 701 339.5 712Q349 723 367 723ZM186 723Q201 723 211 713.5Q221 704 221 686Q221 669 210.5 657.5Q200 646 183 646Q169 646 158.5 655.5Q148 665 148 685Q148 701 157.5 712Q167 723 186 723Z" glyph-name="dieresis.narrow" horiz-adv-x="551" unicode="&#59698;" /><glyph d="M508 259H72V309H508ZM290 504Q307 504 319 494.5Q331 485 331 465Q331 443 319 430.5Q307 418 288 418Q272 418 260 428.5Q248 439 248 461Q248 478 259 491Q270 504 290 504ZM290 147Q307 147 319 137Q331 127 331 107Q331 86 319 73.5Q307 61 288 61Q272 61 260 71.5Q248 82 248 104Q248 121 259 134Q270 147 290 147Z" glyph-name="divide" horiz-adv-x="580" unicode="&#247;" /><glyph d="M139 493Q139 473 145 456.5Q151 440 165.5 425.5Q180 411 204.5 398.5Q229 386 267 373V605Q207 601 173 573Q139 545 139 493ZM444 176Q444 225 408.5 251Q373 277 316 296V38Q385 46 414.5 84.5Q444 123 444 176ZM316 657Q361 655 397 648.5Q433 642 468 636L456 583Q419 591 386.5 597Q354 603 316 605V358Q359 345 393.5 329.5Q428 314 452.5 293Q477 272 490.5 244.5Q504 217 504 180Q504 149 495 116.5Q486 84 464 57Q442 30 406 10.5Q370 -9 316 -13L317 -106H267V-13Q209 -11 161 0.5Q113 12 70 29L86 82Q107 74 126.5 67Q146 60 167.5 53.5Q189 47 213.5 42.5Q238 38 267 37V311Q210 327 173.5 346Q137 365 116 387.5Q95 410 87 436Q79 462 79 492Q79 561 128 606.5Q177 652 267 657V750H317Z" glyph-name="dollar" horiz-adv-x="580" unicode="$" /><glyph d="M137 517Q137 493 144 475.5Q151 458 167 443.5Q183 429 209 417Q235 405 272 393V639Q210 634 173.5 602.5Q137 571 137 517ZM459 189Q459 214 448.5 234Q438 254 420 269Q402 284 377 295.5Q352 307 322 316V40Q392 48 425.5 90Q459 132 459 189ZM472 615Q433 624 397.5 630.5Q362 637 322 639V377Q368 363 405 347Q442 331 467.5 310Q493 289 506.5 260.5Q520 232 520 193Q520 160 510 125.5Q500 91 477 62Q454 33 416 12.5Q378 -8 322 -12V-90H272V-14Q210 -12 157.5 1.5Q105 15 59 34L77 86Q99 77 120.5 69Q142 61 165 54.5Q188 48 214 43.5Q240 39 272 38V331Q216 347 178 364.5Q140 382 117.5 403.5Q95 425 85.5 452Q76 479 76 513Q76 549 88.5 580.5Q101 612 126 635.5Q151 659 187.5 673.5Q224 688 272 691V770H322V691Q370 689 408.5 682Q447 675 485 668Z" glyph-name="dollar.cap" horiz-adv-x="580" unicode="&#59733;" /><glyph d="M140 720Q158 720 170 709.5Q182 699 182 679Q182 657 169.5 644.5Q157 632 138 632Q121 632 109 643Q97 654 97 677Q97 695 108 707.5Q119 720 140 720Z" glyph-name="dotaccent" horiz-adv-x="279" unicode="&#729;" /><glyph d="M135 865Q152 865 164 854.5Q176 844 176 824Q176 802 163.5 789.5Q151 777 132 777Q115 777 103 787.5Q91 798 91 821Q91 840 102 852.5Q113 865 135 865Z" glyph-name="dotaccent.cap" horiz-adv-x="279" unicode="&#58408;" /><glyph d="M165 0H104V500H165Z" glyph-name="dotlessi" horiz-adv-x="269" unicode="&#305;" /><glyph d="M165 -52Q165 -151 125.5 -195.5Q86 -240 12 -240Q-11 -240 -32.5 -237.5Q-54 -235 -76 -230L-68 -179Q-28 -187 10 -187Q104 -187 104 -54V500H165Z" glyph-name="dotlessj" horiz-adv-x="269" unicode="&#567;" /><glyph d="M165 39Q165 -19 161 -62Q157 -105 148 -137.5Q139 -170 124 -194.5Q109 -219 87 -240L36 -217Q76 -179 90 -120.5Q104 -62 104 27V500H165Z" glyph-name="dotlessj.alt" horiz-adv-x="269" unicode="&#59668;" /><glyph d="M276 -220H219V790H276ZM161 -220H104V790H161Z" glyph-name="doublebar" horiz-adv-x="381" unicode="&#8214;" /><glyph d="M298 463Q209 463 167 415.5Q125 368 120 277Q145 275 181.5 273Q218 271 260 271Q305 271 336 276Q367 281 385.5 292.5Q404 304 412 323.5Q420 343 420 372Q420 418 385 440.5Q350 463 298 463ZM467 24Q435 10 386 -2Q337 -14 287 -14Q171 -14 115.5 55Q60 124 60 245Q60 305 74 354.5Q88 404 117 439.5Q146 475 191 494.5Q236 514 299 514Q336 514 368.5 505Q401 496 425 478.5Q449 461 463 434.5Q477 408 477 373Q477 331 465.5 301.5Q454 272 428.5 254Q403 236 361.5 228Q320 220 260 220Q229 220 191 222Q153 224 119 227Q124 130 169 84.5Q214 39 288 39Q331 39 371.5 48.5Q412 58 453 74Z" glyph-name="e" horiz-adv-x="524" unicode="e" /><glyph d="M408 686Q346 650 288 632.5Q230 615 167 607L162 654Q218 662 271.5 681.5Q325 701 383 734ZM298 463Q209 463 167 415.5Q125 368 120 277Q145 275 181.5 273Q218 271 260 271Q305 271 336 276Q367 281 385.5 292.5Q404 304 412 323.5Q420 343 420 372Q420 418 385 440.5Q350 463 298 463ZM467 24Q435 10 386 -2Q337 -14 287 -14Q171 -14 115.5 55Q60 124 60 245Q60 305 74 354.5Q88 404 117 439.5Q146 475 191 494.5Q236 514 299 514Q336 514 368.5 505Q401 496 425 478.5Q449 461 463 434.5Q477 408 477 373Q477 331 465.5 301.5Q454 272 428.5 254Q403 236 361.5 228Q320 220 260 220Q229 220 191 222Q153 224 119 227Q124 130 169 84.5Q214 39 288 39Q331 39 371.5 48.5Q412 58 453 74Z" glyph-name="eacute" horiz-adv-x="524" unicode="&#233;" /><glyph d="M223 702Q225 675 240 659Q255 643 283 643Q309 643 325 660Q341 677 343 701L397 694Q393 649 363 622Q333 595 283 595Q232 595 203 620.5Q174 646 170 692ZM298 463Q209 463 167 415.5Q125 368 120 277Q145 275 181.5 273Q218 271 260 271Q305 271 336 276Q367 281 385.5 292.5Q404 304 412 323.5Q420 343 420 372Q420 418 385 440.5Q350 463 298 463ZM467 24Q435 10 386 -2Q337 -14 287 -14Q171 -14 115.5 55Q60 124 60 245Q60 305 74 354.5Q88 404 117 439.5Q146 475 191 494.5Q236 514 299 514Q336 514 368.5 505Q401 496 425 478.5Q449 461 463 434.5Q477 408 477 373Q477 331 465.5 301.5Q454 272 428.5 254Q403 236 361.5 228Q320 220 260 220Q229 220 191 222Q153 224 119 227Q124 130 169 84.5Q214 39 288 39Q331 39 371.5 48.5Q412 58 453 74Z" glyph-name="ebreve" horiz-adv-x="524" unicode="&#277;" /><glyph d="M428 705 309 584H261L140 705L178 728L286 630L393 727ZM298 463Q209 463 167 415.5Q125 368 120 277Q145 275 181.5 273Q218 271 260 271Q305 271 336 276Q367 281 385.5 292.5Q404 304 412 323.5Q420 343 420 372Q420 418 385 440.5Q350 463 298 463ZM467 24Q435 10 386 -2Q337 -14 287 -14Q171 -14 115.5 55Q60 124 60 245Q60 305 74 354.5Q88 404 117 439.5Q146 475 191 494.5Q236 514 299 514Q336 514 368.5 505Q401 496 425 478.5Q449 461 463 434.5Q477 408 477 373Q477 331 465.5 301.5Q454 272 428.5 254Q403 236 361.5 228Q320 220 260 220Q229 220 191 222Q153 224 119 227Q124 130 169 84.5Q214 39 288 39Q331 39 371.5 48.5Q412 58 453 74Z" glyph-name="ecaron" horiz-adv-x="524" unicode="&#283;" /><glyph d="M421 614 383 591 276 688 168 592 133 614 254 735H302ZM298 463Q209 463 167 415.5Q125 368 120 277Q145 275 181.5 273Q218 271 260 271Q305 271 336 276Q367 281 385.5 292.5Q404 304 412 323.5Q420 343 420 372Q420 418 385 440.5Q350 463 298 463ZM467 24Q435 10 386 -2Q337 -14 287 -14Q171 -14 115.5 55Q60 124 60 245Q60 305 74 354.5Q88 404 117 439.5Q146 475 191 494.5Q236 514 299 514Q336 514 368.5 505Q401 496 425 478.5Q449 461 463 434.5Q477 408 477 373Q477 331 465.5 301.5Q454 272 428.5 254Q403 236 361.5 228Q320 220 260 220Q229 220 191 222Q153 224 119 227Q124 130 169 84.5Q214 39 288 39Q331 39 371.5 48.5Q412 58 453 74Z" glyph-name="ecircumflex" horiz-adv-x="524" unicode="&#234;" /><glyph d="M395 719Q410 719 420.5 709.5Q431 700 431 683Q431 665 420.5 653.5Q410 642 393 642Q379 642 368 652Q357 662 357 682Q357 697 367 708Q377 719 395 719ZM180 719Q195 719 205.5 709.5Q216 700 216 682Q216 665 205.5 653.5Q195 642 178 642Q164 642 153.5 651.5Q143 661 143 681Q143 697 152.5 708Q162 719 180 719ZM298 463Q209 463 167 415.5Q125 368 120 277Q145 275 181.5 273Q218 271 260 271Q305 271 336 276Q367 281 385.5 292.5Q404 304 412 323.5Q420 343 420 372Q420 418 385 440.5Q350 463 298 463ZM467 24Q435 10 386 -2Q337 -14 287 -14Q171 -14 115.5 55Q60 124 60 245Q60 305 74 354.5Q88 404 117 439.5Q146 475 191 494.5Q236 514 299 514Q336 514 368.5 505Q401 496 425 478.5Q449 461 463 434.5Q477 408 477 373Q477 331 465.5 301.5Q454 272 428.5 254Q403 236 361.5 228Q320 220 260 220Q229 220 191 222Q153 224 119 227Q124 130 169 84.5Q214 39 288 39Q331 39 371.5 48.5Q412 58 453 74Z" glyph-name="edieresis" horiz-adv-x="524" unicode="&#235;" /><glyph d="M288 706Q306 706 318 695.5Q330 685 330 665Q330 643 317.5 630.5Q305 618 286 618Q269 618 257 629Q245 640 245 663Q245 681 256 693.5Q267 706 288 706ZM298 463Q209 463 167 415.5Q125 368 120 277Q145 275 181.5 273Q218 271 260 271Q305 271 336 276Q367 281 385.5 292.5Q404 304 412 323.5Q420 343 420 372Q420 418 385 440.5Q350 463 298 463ZM467 24Q435 10 386 -2Q337 -14 287 -14Q171 -14 115.5 55Q60 124 60 245Q60 305 74 354.5Q88 404 117 439.5Q146 475 191 494.5Q236 514 299 514Q336 514 368.5 505Q401 496 425 478.5Q449 461 463 434.5Q477 408 477 373Q477 331 465.5 301.5Q454 272 428.5 254Q403 236 361.5 228Q320 220 260 220Q229 220 191 222Q153 224 119 227Q124 130 169 84.5Q214 39 288 39Q331 39 371.5 48.5Q412 58 453 74Z" glyph-name="edotaccent" horiz-adv-x="524" unicode="&#279;" /><glyph d="M368 600Q302 612 248.5 633Q195 654 144 687L171 734Q218 702 268 680.5Q318 659 377 645ZM298 463Q209 463 167 415.5Q125 368 120 277Q145 275 181.5 273Q218 271 260 271Q305 271 336 276Q367 281 385.5 292.5Q404 304 412 323.5Q420 343 420 372Q420 418 385 440.5Q350 463 298 463ZM467 24Q435 10 386 -2Q337 -14 287 -14Q171 -14 115.5 55Q60 124 60 245Q60 305 74 354.5Q88 404 117 439.5Q146 475 191 494.5Q236 514 299 514Q336 514 368.5 505Q401 496 425 478.5Q449 461 463 434.5Q477 408 477 373Q477 331 465.5 301.5Q454 272 428.5 254Q403 236 361.5 228Q320 220 260 220Q229 220 191 222Q153 224 119 227Q124 130 169 84.5Q214 39 288 39Q331 39 371.5 48.5Q412 58 453 74Z" glyph-name="egrave" horiz-adv-x="524" unicode="&#232;" /><glyph d="M290 626Q230 626 195.5 595.5Q161 565 161 516Q161 482 172.5 459Q184 436 203 420Q222 404 246 393Q270 382 296 372Q318 379 339.5 390.5Q361 402 378.5 418.5Q396 435 406.5 457.5Q417 480 417 509Q417 561 384 593.5Q351 626 290 626ZM286 40Q358 40 397.5 75Q437 110 437 173Q437 201 425.5 222.5Q414 244 393 261Q372 278 341 292.5Q310 307 271 321Q242 312 216.5 298Q191 284 172 265.5Q153 247 142 223Q131 199 131 171Q131 103 171 71.5Q211 40 286 40ZM286 -15Q72 -15 72 168Q72 234 112.5 280Q153 326 214 346Q193 357 172.5 371.5Q152 386 136.5 406Q121 426 111.5 452.5Q102 479 102 514Q102 551 116 581.5Q130 612 154.5 633.5Q179 655 213.5 666.5Q248 678 290 678Q332 678 366.5 666Q401 654 425 632Q449 610 462.5 579Q476 548 476 510Q476 479 466 453.5Q456 428 439 407.5Q422 387 400 372Q378 357 354 348Q420 319 458.5 279.5Q497 240 497 172Q497 133 483 99Q469 65 442.5 39.5Q416 14 376.5 -0.5Q337 -15 286 -15Z" glyph-name="eight" horiz-adv-x="568" unicode="8" /><glyph d="M300 638Q237 638 200.5 607.5Q164 577 164 523Q164 489 176 466Q188 443 207.5 427Q227 411 252 400Q277 389 304 380Q326 387 349 398.5Q372 410 391 426.5Q410 443 421.5 465.5Q433 488 433 518Q433 575 398 606.5Q363 638 300 638ZM295 43Q369 43 411 78.5Q453 114 453 183Q453 212 440.5 233Q428 254 405.5 270.5Q383 287 350.5 300.5Q318 314 279 328Q252 321 225.5 308.5Q199 296 179 277.5Q159 259 146.5 234.5Q134 210 134 180Q134 109 176 76Q218 43 295 43ZM295 -15Q186 -15 128.5 33Q71 81 71 179Q71 213 83.5 241.5Q96 270 116.5 292.5Q137 315 164 330.5Q191 346 220 355Q198 365 177 379.5Q156 394 139.5 413.5Q123 433 113 459.5Q103 486 103 522Q103 562 117.5 593.5Q132 625 158.5 647Q185 669 221 680.5Q257 692 300 692Q343 692 379 680.5Q415 669 440.5 646.5Q466 624 480 592Q494 560 494 519Q494 488 483 462Q472 436 454 415.5Q436 395 412.5 379.5Q389 364 364 354Q397 341 424.5 325.5Q452 310 472.5 290Q493 270 504.5 244.5Q516 219 516 185Q516 141 501.5 104Q487 67 458.5 40.5Q430 14 389 -0.5Q348 -15 295 -15Z" glyph-name="eight.prop" horiz-adv-x="587" unicode="&#59720;" /><glyph d="M263 504Q206 504 176 481Q146 458 146 416Q146 393 156.5 376Q167 359 183.5 346.5Q200 334 221.5 325Q243 316 266 309Q286 314 306 323Q326 332 342 345.5Q358 359 368 377.5Q378 396 378 420Q378 460 346 482Q314 504 263 504ZM261 43Q325 43 361 68.5Q397 94 397 142Q397 165 386 182Q375 199 355.5 212.5Q336 226 309 236.5Q282 247 251 258Q227 252 203.5 242Q180 232 162 217.5Q144 203 132.5 184Q121 165 121 140Q121 92 158 67.5Q195 43 261 43ZM261 -12Q166 -12 113.5 25.5Q61 63 61 139Q61 166 72 189Q83 212 101 230.5Q119 249 142 262Q165 275 190 283Q171 291 152.5 302.5Q134 314 119.5 330Q105 346 96 367Q87 388 87 416Q87 482 135.5 518.5Q184 555 263 555Q342 555 389.5 520.5Q437 486 437 421Q437 395 427.5 373.5Q418 352 402 335.5Q386 319 365.5 306.5Q345 294 324 286Q352 275 376 262.5Q400 250 418 233.5Q436 217 446 196Q456 175 456 147Q456 75 403.5 31.5Q351 -12 261 -12Z" glyph-name="eight.sc" horiz-adv-x="517" unicode="&#59730;" /><glyph d="M294 638Q231 638 194 607.5Q157 577 157 523Q157 489 169 466Q181 443 200.5 427Q220 411 245.5 400Q271 389 297 380Q320 387 343 398Q366 409 385 426Q404 443 415.5 465.5Q427 488 427 518Q427 575 392 606.5Q357 638 294 638ZM289 43Q362 43 404.5 78.5Q447 114 447 183Q447 212 434.5 233.5Q422 255 399 271.5Q376 288 344.5 301Q313 314 274 328Q246 321 219.5 308.5Q193 296 172.5 277.5Q152 259 139.5 234.5Q127 210 127 180Q127 110 169.5 76.5Q212 43 289 43ZM289 -15Q179 -15 122 33.5Q65 82 65 179Q65 212 77.5 240.5Q90 269 110.5 291.5Q131 314 158 330Q185 346 214 355Q193 365 172 379.5Q151 394 134.5 413.5Q118 433 107.5 459.5Q97 486 97 522Q97 562 111.5 593.5Q126 625 152.5 647Q179 669 215 680.5Q251 692 294 692Q337 692 372.5 680.5Q408 669 433.5 646.5Q459 624 473 592Q487 560 487 519Q487 489 476.5 463Q466 437 448 416Q430 395 406.5 379.5Q383 364 358 354Q391 341 419 325.5Q447 310 467 290Q487 270 498.5 244.5Q510 219 510 185Q510 141 495.5 104.5Q481 68 452.5 41.5Q424 15 383 0Q342 -15 289 -15Z" glyph-name="eight.tab" horiz-adv-x="580" unicode="&#58455;" /><glyph d="M297 624Q234 624 196.5 593Q159 562 159 511Q159 478 171 455.5Q183 433 203 418Q223 403 247.5 392.5Q272 382 298 373Q320 380 344 391Q368 402 388 417.5Q408 433 420.5 454.5Q433 476 433 505Q433 562 396.5 593Q360 624 297 624ZM293 40Q369 40 411 74.5Q453 109 453 171Q453 202 439.5 224Q426 246 402.5 263Q379 280 347 293.5Q315 307 277 321Q250 313 223.5 300Q197 287 176 268.5Q155 250 142 226.5Q129 203 129 174Q129 104 171 72Q213 40 293 40ZM293 -15Q187 -15 128 31Q69 77 69 168Q69 202 82 231Q95 260 116 282.5Q137 305 164 321Q191 337 220 346Q199 356 177.5 370Q156 384 138.5 403.5Q121 423 110.5 449Q100 475 100 510Q100 548 114.5 579Q129 610 155.5 631.5Q182 653 218 664.5Q254 676 297 676Q384 676 437.5 632Q491 588 491 506Q491 476 479.5 451.5Q468 427 449 407.5Q430 388 405.5 373Q381 358 356 349Q389 335 417.5 319Q446 303 467 282.5Q488 262 500 235Q512 208 512 173Q512 133 498 98.5Q484 64 456 39Q428 14 387.5 -0.5Q347 -15 293 -15Z" glyph-name="eight.tabold" horiz-adv-x="580" unicode="&#59710;" /><glyph d="M198 301Q169 301 151.5 289Q134 277 134 255Q134 241 139.5 231.5Q145 222 154 216Q163 210 175.5 206Q188 202 202 198Q225 204 243 217.5Q261 231 261 254Q261 279 244 290Q227 301 198 301ZM195 37Q231 37 251 51.5Q271 66 271 95Q271 108 265 116.5Q259 125 247.5 131Q236 137 220 142.5Q204 148 183 155Q157 147 138 131.5Q119 116 119 93Q119 63 139 50Q159 37 195 37ZM196 -9Q63 -9 63 89Q63 123 84.5 145Q106 167 136 177Q114 189 97 207.5Q80 226 80 260Q80 302 112 324.5Q144 347 197 347Q254 347 284.5 324Q315 301 315 260Q315 230 296.5 210.5Q278 191 252 180Q284 168 305.5 149Q327 130 327 92Q327 47 294.5 19Q262 -9 196 -9Z" glyph-name="eightinferior" horiz-adv-x="313" unicode="&#8328;" /><glyph d="M198 662Q169 662 151.5 650Q134 638 134 616Q134 602 139.5 592.5Q145 583 154 577Q163 571 175.5 567Q188 563 202 559Q225 565 243 578.5Q261 592 261 615Q261 640 244 651Q227 662 198 662ZM195 398Q231 398 251 412.5Q271 427 271 456Q271 469 265 477.5Q259 486 247.5 492Q236 498 220 503.5Q204 509 183 516Q157 508 138 492.5Q119 477 119 454Q119 424 139 411Q159 398 195 398ZM196 352Q63 352 63 450Q63 484 84.5 506Q106 528 136 538Q114 550 97 568.5Q80 587 80 621Q80 663 112 685.5Q144 708 197 708Q254 708 284.5 685Q315 662 315 621Q315 591 296.5 571.5Q278 552 252 541Q284 529 305.5 510Q327 491 327 453Q327 408 294.5 380Q262 352 196 352Z" glyph-name="eightsuperior" horiz-adv-x="313" unicode="&#8312;" /><glyph d="M700 74Q717 74 729 64.5Q741 55 741 35Q741 13 729 0.5Q717 -12 698 -12Q682 -12 670 -1Q658 10 658 31Q658 48 669 61Q680 74 700 74ZM421 74Q438 74 449.5 64.5Q461 55 461 35Q461 13 449 0.5Q437 -12 418 -12Q402 -12 390 -1Q378 10 378 31Q378 48 389.5 61Q401 74 421 74ZM141 74Q158 74 169.5 64.5Q181 55 181 35Q181 13 169 0.5Q157 -12 138 -12Q123 -12 111 -1Q99 10 99 31Q99 48 110 61Q121 74 141 74Z" glyph-name="ellipsis" horiz-adv-x="839" unicode="&#8230;" /><glyph d="M432 637H132V687H432ZM298 463Q209 463 167 415.5Q125 368 120 277Q145 275 181.5 273Q218 271 260 271Q305 271 336 276Q367 281 385.5 292.5Q404 304 412 323.5Q420 343 420 372Q420 418 385 440.5Q350 463 298 463ZM467 24Q435 10 386 -2Q337 -14 287 -14Q171 -14 115.5 55Q60 124 60 245Q60 305 74 354.5Q88 404 117 439.5Q146 475 191 494.5Q236 514 299 514Q336 514 368.5 505Q401 496 425 478.5Q449 461 463 434.5Q477 408 477 373Q477 331 465.5 301.5Q454 272 428.5 254Q403 236 361.5 228Q320 220 260 220Q229 220 191 222Q153 224 119 227Q124 130 169 84.5Q214 39 288 39Q331 39 371.5 48.5Q412 58 453 74Z" glyph-name="emacron" horiz-adv-x="524" unicode="&#275;" /><glyph d="M763 259H71V309H763Z" glyph-name="emdash" horiz-adv-x="833" unicode="&#8212;" /><glyph d="M457 259H71V309H457Z" glyph-name="endash" horiz-adv-x="529" unicode="&#8211;" /><glyph d="M163 420Q208 461 256 487.5Q304 514 356 514Q427 514 469.5 470Q512 426 512 341V51Q512 -87 472.5 -163.5Q433 -240 343 -240L338 -188Q395 -188 423 -132Q451 -76 451 45V344Q451 397 424 427.5Q397 458 344 458Q318 458 295 450Q272 442 249.5 428.5Q227 415 206 397.5Q185 380 164 362V0H103V500H161Z" glyph-name="eng" horiz-adv-x="609" unicode="&#331;" /><glyph d="M298 463Q209 463 167 415.5Q125 368 120 277Q145 275 181.5 273Q218 271 260 271Q305 271 336 276Q367 281 385.5 292.5Q404 304 412 323.5Q420 343 420 372Q420 418 385 440.5Q350 463 298 463ZM467 24Q458 19 447.5 15.5Q437 12 426 8Q346 -20 314 -52.5Q282 -85 282 -111Q282 -129 294 -142.5Q306 -156 342 -156Q365 -156 385.5 -152.5Q406 -149 429 -142L441 -186Q413 -196 386.5 -200Q360 -204 337 -204Q305 -204 283.5 -197Q262 -190 249 -178Q236 -166 230.5 -150.5Q225 -135 225 -118Q225 -92 241 -65.5Q257 -39 296 -14H287Q171 -14 115.5 55Q60 124 60 245Q60 305 74 354.5Q88 404 117 439.5Q146 475 191 494.5Q236 514 299 514Q336 514 368.5 505Q401 496 425 478.5Q449 461 463 434.5Q477 408 477 373Q477 331 465.5 301.5Q454 272 428.5 254Q403 236 361.5 228Q320 220 260 220Q229 220 191 222Q153 224 119 227Q124 130 169 84.5Q214 39 288 39Q331 39 371.5 48.5Q412 58 453 74Z" glyph-name="eogonek" horiz-adv-x="524" unicode="&#281;" /><glyph d="M479 365V316H101V365ZM479 232V183H101V232Z" glyph-name="equal" horiz-adv-x="580" unicode="=" /><glyph d="M541 72H101V122H541ZM541 446H101V496H541ZM541 259H101V309H541Z" glyph-name="equivalence" horiz-adv-x="642" unicode="&#8801;" /><glyph d="M515 268Q520 268 520 275V406Q520 426 509 440Q440 509 343 509Q247 509 178 440Q173 433 169 424Q165 415 165 406V275Q165 268 170 268ZM165 118Q165 113 168 101.5Q171 90 179 82Q208 53 250 34.5Q292 16 343 16Q400 16 445.5 39Q491 62 525 102H568Q530 54 471.5 27Q413 0 343 0Q284 0 231.5 20.5Q179 41 140 76.5Q101 112 78 160Q55 208 55 262Q55 316 78 363.5Q101 411 140 446.5Q179 482 231.5 502.5Q284 523 343 523Q403 523 455.5 502Q508 481 547 444.5Q586 408 608 359Q630 310 630 255H171Q165 255 165 247Z" glyph-name="estimated" horiz-adv-x="671" unicode="&#8494;" /><glyph d="M443 289Q443 348 429 406Q392 429 354.5 446.5Q317 464 271 464Q236 464 207.5 448.5Q179 433 158.5 404.5Q138 376 127 337Q116 298 116 250Q116 207 126.5 168.5Q137 130 157 100.5Q177 71 206 54Q235 37 271 37Q319 37 352 57Q385 77 405 111Q425 145 434 191Q443 237 443 289ZM460 721Q428 704 399 689.5Q370 675 342 661Q415 597 458.5 502.5Q502 408 502 292Q502 230 489.5 174.5Q477 119 449 77Q421 35 377.5 10.5Q334 -14 271 -14Q220 -14 180.5 6.5Q141 27 114.5 62Q88 97 74 145Q60 193 60 249Q60 310 74.5 359Q89 408 116 442.5Q143 477 181.5 495.5Q220 514 267 514Q308 514 342 502.5Q376 491 407 471Q387 519 357 559.5Q327 600 286 632Q256 616 225.5 600Q195 584 163 565L131 603Q158 618 185.5 633Q213 648 242 662Q178 700 100 715L141 762Q229 744 301 693L427 759Z" glyph-name="eth" horiz-adv-x="562" unicode="&#240;" /><glyph d="M138 74Q155 74 167 64.5Q179 55 179 35Q179 13 167 0.5Q155 -12 136 -12Q120 -12 108 -1Q96 10 96 31Q96 48 107 61Q118 74 138 74ZM170 680V189H105V680Z" glyph-name="exclam" horiz-adv-x="276" unicode="!" /><glyph d="M119 74Q138 74 149.5 63.5Q161 53 161 35Q161 15 148.5 3Q136 -9 116 -9Q99 -9 87.5 1.5Q76 12 76 32Q76 49 86.5 61.5Q97 74 119 74ZM150 546V147H86V546Z" glyph-name="exclam.sc" horiz-adv-x="237" unicode="&#63265;" /><glyph d="M137 514Q153 514 165 503Q177 492 177 470Q177 453 166 440Q155 427 135 427Q118 427 106 437.5Q94 448 94 468Q94 489 106 501.5Q118 514 137 514ZM168 -178H104V313H168Z" glyph-name="exclamdown" horiz-adv-x="276" unicode="&#161;" /><glyph d="M91 0V399H147V0ZM117 472Q103 472 95 483Q87 494 87 512Q87 532 95.5 543.5Q104 555 120 555Q134 555 142 544.5Q150 534 150 514Q150 497 142 484.5Q134 472 117 472Z" glyph-name="exclamdown.sc" horiz-adv-x="237" unicode="&#63393;" /><glyph d="M121 500V565Q121 664 162 704Q203 744 276 744Q308 744 332 740.5Q356 737 383 731L373 681Q349 686 325.5 688.5Q302 691 278 691Q229 691 205 662Q181 633 181 567V500H332V451H181V0H121V451H19V500Z" glyph-name="f" horiz-adv-x="338" unicode="f" /><glyph d="M121 500V565Q121 664 162 704Q203 744 276 744Q308 744 332 740.5Q356 737 383 731L373 681Q349 686 325.5 688.5Q302 691 278 691Q229 691 205 662Q181 633 181 567V500H332V451H181V20Q181 -108 132 -161.5Q83 -215 -13 -215L-20 -164Q17 -164 43.5 -155.5Q70 -147 87 -127Q104 -107 112.5 -73Q121 -39 121 12V451H19V500Z" glyph-name="f.alt" horiz-adv-x="338" unicode="&#58565;" /><glyph d="M121 500V565Q121 664 162 704Q203 744 276 744Q303 744 322.5 741Q342 738 356 735L346 686Q333 688 315.5 689.5Q298 691 278 691Q229 691 205 662Q181 633 181 567V500H332V451H181V20Q181 -108 132 -161.5Q83 -215 -13 -215L-20 -164Q17 -164 43.5 -155.5Q70 -147 87 -127Q104 -107 112.5 -73Q121 -39 121 12V451H19V500Z" glyph-name="f.alt.short" horiz-adv-x="338" unicode="&#59550;" /><glyph d="M121 500V565Q121 664 162 704Q203 744 276 744Q303 744 322.5 741Q342 738 356 735L346 686Q333 688 315.5 689.5Q298 691 278 691Q229 691 205 662Q181 633 181 567V500H332V451H181V0H121V451H19V500Z" glyph-name="f.short" horiz-adv-x="338" unicode="&#59546;" /><glyph d="M676 459Q634 459 593 436.5Q552 414 514 377V63Q544 52 575.5 46.5Q607 41 645 41Q724 41 770.5 99.5Q817 158 817 265Q817 321 805 358Q793 395 773.5 417.5Q754 440 728.5 449.5Q703 459 676 459ZM514 441Q549 471 590.5 492.5Q632 514 681 514Q726 514 762.5 499.5Q799 485 825.5 454.5Q852 424 866 377Q880 330 880 265Q880 204 865 152.5Q850 101 820.5 64Q791 27 746.5 6.5Q702 -14 644 -14Q547 -14 453 24V674Q407 685 367 692.5Q327 700 284 700Q235 700 208 668Q181 636 181 569V500H325V451H181V0H121V451H21V500H121V567Q121 665 165.5 708.5Q210 752 283 752Q338 752 392.5 741Q447 730 514 713Z" glyph-name="f_b" horiz-adv-x="940" unicode="&#58241;" /><glyph d="M674 459Q632 459 591 436.5Q550 414 512 377V64Q543 53 574 47Q605 41 644 41Q722 41 769 99.5Q816 158 816 265Q816 321 804 358Q792 395 772.5 417.5Q753 440 727 449.5Q701 459 674 459ZM512 439Q546 471 587.5 492.5Q629 514 680 514Q725 514 761.5 499.5Q798 485 824 454.5Q850 424 864 377Q878 330 878 265Q878 204 863 152.5Q848 101 818.5 64Q789 27 744.5 6.5Q700 -14 642 -14Q545 -14 451 24V674Q404 685 365 692.5Q326 700 284 700Q234 700 207.5 668Q181 636 181 569V500H333V451H181V20Q181 -44 168.5 -88.5Q156 -133 132 -161Q108 -189 71.5 -202Q35 -215 -13 -215L-20 -164Q17 -164 43.5 -155.5Q70 -147 87 -127Q104 -107 112.5 -73Q121 -39 121 12V451H19V500H121V567Q121 665 165 708.5Q209 752 282 752Q338 752 391.5 741Q445 730 512 713Z" glyph-name="f_b.alt" horiz-adv-x="938" unicode="&#59551;" /><glyph d="M181 500H473V564Q473 615 485 651Q438 668 391 679Q344 690 300 690Q277 690 255.5 684Q234 678 217.5 663Q201 648 191 622.5Q181 597 181 558ZM685 451H533V0H473V451H181V0H121V451H21V500H121V555Q121 609 135 644.5Q149 680 173 702Q197 724 229 733Q261 742 298 742Q349 742 405 728.5Q461 715 510 697Q530 721 560 731.5Q590 742 628 742Q660 742 684 738.5Q708 735 735 729L726 680Q702 684 678 687Q654 690 630 690Q581 690 557 661Q533 632 533 566V500H685Z" glyph-name="f_f" horiz-adv-x="692" unicode="&#64256;" /><glyph d="M181 500H469V564Q469 616 481 652Q435 669 388.5 679.5Q342 690 299 690Q276 690 254.5 684Q233 678 216.5 663Q200 648 190.5 622.5Q181 597 181 558ZM684 451H529V19Q529 -96 485 -156Q441 -216 351 -227L342 -176Q411 -168 440 -121.5Q469 -75 469 19V451H181V20Q181 -44 169 -89Q157 -134 132.5 -162Q108 -190 71.5 -202.5Q35 -215 -13 -215L-20 -164Q17 -164 43.5 -155.5Q70 -147 87 -127Q104 -107 112.5 -73Q121 -39 121 12V451H19V500H121V555Q121 609 134.5 644.5Q148 680 172 702Q196 724 228 733Q260 742 297 742Q347 742 402.5 729Q458 716 506 698Q526 721 556.5 731.5Q587 742 625 742Q657 742 680.5 738.5Q704 735 732 729L722 680Q698 684 674 687Q650 690 627 690Q578 690 553.5 661Q529 632 529 566V500H684Z" glyph-name="f_f.alt" horiz-adv-x="691" unicode="&#59649;" /><glyph d="M473 567Q473 615 484 651Q437 668 390.5 679Q344 690 300 690Q277 690 255.5 684Q234 678 217.5 663Q201 648 191 622.5Q181 597 181 558V500H473ZM1028 459Q986 459 945 436.5Q904 414 866 377V64Q897 53 928 47Q959 41 997 41Q1076 41 1123 99.5Q1170 158 1170 265Q1170 321 1158 358Q1146 395 1126.5 417.5Q1107 440 1081 449.5Q1055 459 1028 459ZM866 439Q900 471 941.5 492.5Q983 514 1034 514Q1079 514 1115.5 499.5Q1152 485 1178 454.5Q1204 424 1218 377Q1232 330 1232 265Q1232 204 1217 152.5Q1202 101 1172.5 64Q1143 27 1098.5 6.5Q1054 -14 996 -14Q899 -14 805 24V674Q758 685 718.5 692.5Q679 700 637 700Q587 700 560 668Q533 636 533 569V500H685V451H533V0H473V451H181V0H121V451H21V500H121V555Q121 609 135 644.5Q149 680 173 702Q197 724 229 733Q261 742 298 742Q348 742 404 728.5Q460 715 508 697Q530 726 562 739Q594 752 635 752Q691 752 745 741Q799 730 866 713Z" glyph-name="f_f_b" horiz-adv-x="1292" unicode="&#57896;" /><glyph d="M469 567Q469 616 481 652Q435 669 388.5 679.5Q342 690 299 690Q276 690 254.5 684Q233 678 216.5 663Q200 648 190.5 622.5Q181 597 181 558V500H469ZM1013 459Q971 459 930 436.5Q889 414 851 377V63Q881 52 912.5 46.5Q944 41 982 41Q1061 41 1107.5 99.5Q1154 158 1154 265Q1154 321 1142 358Q1130 395 1110.5 417.5Q1091 440 1065.5 449.5Q1040 459 1013 459ZM851 439Q885 471 927 492.5Q969 514 1018 514Q1063 514 1099.5 499.5Q1136 485 1162.5 454.5Q1189 424 1203 377Q1217 330 1217 265Q1217 204 1202 152.5Q1187 101 1157.5 64Q1128 27 1083.5 6.5Q1039 -14 981 -14Q884 -14 790 24V674Q745 685 710 692.5Q675 700 632 700Q583 700 556 668Q529 636 529 569V500H677V451H529V19Q529 -96 485 -156Q441 -216 351 -227L342 -176Q411 -168 440 -121.5Q469 -75 469 19V451H181V20Q181 -44 169 -89Q157 -134 132.5 -162Q108 -190 71.5 -202.5Q35 -215 -13 -215L-20 -164Q17 -164 43.5 -155.5Q70 -147 87 -127Q104 -107 112.5 -73Q121 -39 121 12V451H19V500H121V555Q121 609 134.5 644.5Q148 680 172 702Q196 724 228 733Q260 742 297 742Q346 742 401.5 729Q457 716 505 698Q526 726 558 739Q590 752 631 752Q658 752 683.5 749Q709 746 735 740.5Q761 735 789 728Q817 721 851 713Z" glyph-name="f_f_b.alt" horiz-adv-x="1277" unicode="&#59648;" /><glyph d="M473 568Q473 615 484 651Q437 669 390.5 679.5Q344 690 300 690Q277 690 255.5 684Q234 678 217.5 663Q201 648 191 622.5Q181 597 181 558V500H473ZM685 451H533V0H473V451H181V0H121V451H21V500H121V555Q121 609 135 644.5Q149 680 173 702Q197 724 229 733Q261 742 298 742Q349 742 404.5 729Q460 716 508 698Q529 727 561 740Q593 753 635 753Q663 753 689.5 750Q716 747 743 741.5Q770 736 799.5 729Q829 722 863 714V432Q905 470 951.5 492Q998 514 1050 514Q1085 514 1115 503Q1145 492 1167.5 470.5Q1190 449 1203 417Q1216 385 1216 343V0H1155V342Q1155 372 1146 393.5Q1137 415 1121 429.5Q1105 444 1083.5 451Q1062 458 1037 458Q986 458 942 431Q898 404 863 370V0H802V675Q756 686 718 693.5Q680 701 637 701Q587 701 560 669Q533 637 533 570V500H685Z" glyph-name="f_f_h" horiz-adv-x="1312" unicode="&#57897;" /><glyph d="M469 567Q469 616 481 652Q434 669 388 679.5Q342 690 299 690Q276 690 254.5 684Q233 678 216.5 663Q200 648 190.5 622.5Q181 597 181 558V500H469ZM677 451H529V19Q529 -96 485 -156Q441 -216 351 -227L342 -176Q411 -168 440 -121.5Q469 -75 469 19V451H181V20Q181 -44 169 -89Q157 -134 132.5 -162Q108 -190 71.5 -202.5Q35 -215 -13 -215L-20 -164Q17 -164 43.5 -155.5Q70 -147 87 -127Q104 -107 112.5 -73Q121 -39 121 12V451H19V500H121V555Q121 609 134.5 644.5Q148 680 172 702Q196 724 228 733Q260 742 297 742Q347 742 402 729Q457 716 505 699Q548 752 631 752Q658 752 683 749Q708 746 733.5 740.5Q759 735 787 728Q815 721 848 713V431Q890 469 936.5 491.5Q983 514 1035 514Q1070 514 1100 503Q1130 492 1152.5 470.5Q1175 449 1188 417Q1201 385 1201 343V0H1140V342Q1140 401 1106 429.5Q1072 458 1022 458Q971 458 927 431Q883 404 848 370V0H787V674Q743 685 708 692.5Q673 700 633 700Q584 700 556.5 668Q529 636 529 569V500H677Z" glyph-name="f_f_h.alt" horiz-adv-x="1298" unicode="&#59651;" /><glyph d="M181 500H446V555Q446 612 461 651Q417 668 377 679Q337 690 293 690Q270 690 249.5 684Q229 678 214 663Q199 648 190 622.5Q181 597 181 558ZM827 654Q768 668 715.5 677.5Q663 687 609 687Q587 687 568 681Q549 675 535 660Q521 645 513 620Q505 595 505 558V500H831V0H770V451H505V0H446V451H181V0H121V451H20V500H121V555Q121 609 134 644.5Q147 680 170 702Q193 724 224 733Q255 742 292 742Q343 742 392.5 728Q442 714 488 695Q510 718 540 728Q570 738 608 738Q667 738 723.5 728Q780 718 835 704Z" glyph-name="f_f_i" horiz-adv-x="935" unicode="&#64259;" /><glyph d="M181 500H445V555Q445 612 460 651Q416 668 376.5 679Q337 690 293 690Q270 690 249.5 684Q229 678 214 663Q199 648 190 622.5Q181 597 181 558ZM826 654Q767 668 714.5 677.5Q662 687 608 687Q586 687 567 681Q548 675 534 660Q520 645 512 620Q504 595 504 558V500H830V0H769V451H504V27Q504 -94 460 -153.5Q416 -213 326 -219L317 -169Q386 -164 415.5 -119Q445 -74 445 19V451H181V20Q181 -44 169 -89Q157 -134 132.5 -162Q108 -190 71.5 -202.5Q35 -215 -13 -215L-20 -164Q17 -164 43.5 -155.5Q70 -147 87.5 -127Q105 -107 113 -73Q121 -39 121 12V451H19V500H121V555Q121 609 134 644.5Q147 680 169.5 702Q192 724 223.5 733Q255 742 292 742Q343 742 392 728Q441 714 487 695Q509 718 539 728Q569 738 607 738Q666 738 722.5 728Q779 718 834 704Z" glyph-name="f_f_i.alt" horiz-adv-x="935" unicode="&#59653;" /><glyph d="M473 555Q473 612 488 650Q440 668 392.5 680Q345 692 300 692Q277 692 255.5 685.5Q234 679 217.5 663.5Q201 648 191 622.5Q181 597 181 558V500H473ZM858 -52Q858 -151 818.5 -195.5Q779 -240 705 -240Q682 -240 660.5 -237.5Q639 -235 617 -230L625 -179Q665 -187 703 -187Q797 -187 797 -54V451H533V0H473V451H181V0H121V451H21V500H121V555Q121 609 135 645Q149 681 173 703Q197 725 229 734.5Q261 744 298 744Q350 744 408 729.5Q466 715 515 695Q557 738 636 738Q695 738 751 728Q807 718 863 704L854 654Q796 668 743.5 677.5Q691 687 637 687Q614 687 595 681Q576 675 562.5 660Q549 645 541 620Q533 595 533 558V500H858Z" glyph-name="f_f_j" horiz-adv-x="962" unicode="&#57898;" /><glyph d="M469 555Q469 612 484 651Q437 668 390 679Q343 690 299 690Q276 690 254.5 684Q233 678 216.5 663Q200 648 190.5 622.5Q181 597 181 558V500H469ZM843 -52Q843 -151 803 -195.5Q763 -240 689 -240Q666 -240 645 -237.5Q624 -235 602 -230L609 -179Q649 -187 688 -187Q781 -187 781 -54V451H529V19Q529 -96 485 -156Q441 -216 351 -227L342 -176Q411 -168 440 -121.5Q469 -75 469 19V451H181V20Q181 -44 169 -89Q157 -134 132.5 -162Q108 -190 71.5 -202.5Q35 -215 -13 -215L-20 -164Q17 -164 43.5 -155.5Q70 -147 87 -127Q104 -107 112.5 -73Q121 -39 121 12V451H19V500H121V555Q121 609 134.5 644.5Q148 680 172 702Q196 724 228 733Q260 742 297 742Q348 742 405.5 728.5Q463 715 512 696Q533 719 563 728.5Q593 738 631 738Q690 738 741 728Q792 718 847 704L839 654Q810 661 784 667Q758 673 733 677.5Q708 682 683.5 684.5Q659 687 632 687Q609 687 590.5 681Q572 675 558 660Q544 645 536.5 620Q529 595 529 558V500H843Z" glyph-name="f_f_j.alt" horiz-adv-x="939" unicode="&#59655;" /><glyph d="M469 567Q469 616 481 652Q434 669 388.5 679.5Q343 690 300 690Q277 690 255.5 684Q234 678 217.5 663Q201 648 191 622.5Q181 597 181 558V500H469ZM681 451H529V0H469V451H181V0H121V451H21V500H121V555Q121 609 135 644.5Q149 680 173 702Q197 724 229 733Q261 742 298 742Q348 742 403 729Q458 716 506 699Q527 726 559 738.5Q591 751 631 751Q687 751 741 740Q795 729 863 712V270Q906 271 935 278Q964 285 991.5 309Q1019 333 1051 380Q1083 427 1131 508L1183 491Q1151 440 1126.5 400.5Q1102 361 1081 332Q1060 303 1041.5 283.5Q1023 264 1005 251L1220 5L1152 -5L950 225Q931 220 910 218.5Q889 217 863 217V0H802V674Q756 685 716 692Q676 699 633 699Q583 699 556 667Q529 635 529 569V500H681Z" glyph-name="f_f_k" horiz-adv-x="1243" unicode="&#58245;" /><glyph d="M469 567Q469 616 481 652Q434 669 388 679.5Q342 690 299 690Q276 690 254.5 684Q233 678 216.5 663Q200 648 190.5 622.5Q181 597 181 558V500H469ZM677 451H529V19Q529 -96 485 -156Q441 -216 351 -227L342 -176Q411 -168 440 -121.5Q469 -75 469 19V451H181V20Q181 -44 169 -89Q157 -134 132.5 -162Q108 -190 71.5 -202.5Q35 -215 -13 -215L-20 -164Q17 -164 43.5 -155.5Q70 -147 87 -127Q104 -107 112.5 -73Q121 -39 121 12V451H19V500H121V555Q121 609 134.5 644.5Q148 680 172 702Q196 724 228 733Q260 742 297 742Q347 742 402 729Q457 716 505 699Q526 726 557.5 739Q589 752 630 752Q685 752 735.5 740.5Q786 729 848 713V270Q891 270 920.5 277Q950 284 977.5 308.5Q1005 333 1036.5 380Q1068 427 1117 508L1169 491Q1137 440 1112.5 401Q1088 362 1067 333Q1046 304 1027.5 284Q1009 264 991 251L1206 5L1138 -5L935 225Q916 220 895 218.5Q874 217 848 217V0H787V675Q745 686 709.5 693Q674 700 632 700Q583 700 556 668Q529 636 529 569V500H677Z" glyph-name="f_f_k.alt" horiz-adv-x="1228" unicode="&#59657;" /><glyph d="M469 567Q469 616 481 652Q434 669 388.5 679.5Q343 690 300 690Q277 690 255.5 684Q234 678 217.5 663Q201 648 191 622.5Q181 597 181 558V500H469ZM681 451H529V0H469V451H181V0H121V451H21V500H121V555Q121 609 135 644.5Q149 680 173 702Q197 724 229 733Q261 742 298 742Q348 742 403 729Q458 716 506 699Q527 726 559 738.5Q591 751 631 751Q687 751 741 740Q795 729 863 712V371Q914 434 972.5 474Q1031 514 1097 514Q1166 514 1204 481Q1242 448 1242 388Q1242 311 1186 261Q1130 211 1035 187Q1082 136 1139.5 91.5Q1197 47 1257 10L1187 -12Q1130 23 1072.5 70Q1015 117 969 174V224Q1069 241 1125 281.5Q1181 322 1181 383Q1181 419 1158 439Q1135 459 1090 459Q1060 459 1029 445Q998 431 969 407.5Q940 384 913 354Q886 324 863 293V0H802V674Q756 685 716 692Q676 699 633 699Q583 699 556 667Q529 635 529 569V500H681Z" glyph-name="f_f_k.alt2" horiz-adv-x="1294" unicode="&#59548;" /><glyph d="M469 567Q469 616 481 652Q434 669 388 679.5Q342 690 299 690Q276 690 254.5 684Q233 678 216.5 663Q200 648 190.5 622.5Q181 597 181 558V500H469ZM677 451H529V19Q529 -96 485 -156Q441 -216 351 -227L342 -176Q411 -168 440 -121.5Q469 -75 469 19V451H181V20Q181 -44 169 -89Q157 -134 132.5 -162Q108 -190 71.5 -202.5Q35 -215 -13 -215L-20 -164Q17 -164 43.5 -155.5Q70 -147 87 -127Q104 -107 112.5 -73Q121 -39 121 12V451H19V500H121V555Q121 609 134.5 644.5Q148 680 172 702Q196 724 228 733Q260 742 297 742Q347 742 402 729Q457 716 505 699Q526 726 557.5 739Q589 752 630 752Q685 752 735.5 740.5Q786 729 848 713V371Q899 433 958 473.5Q1017 514 1082 514Q1151 514 1189 481.5Q1227 449 1227 389Q1227 313 1171 263Q1115 213 1020 188Q1067 137 1125 92Q1183 47 1243 10L1172 -12Q1115 23 1057.5 71Q1000 119 954 175V226Q1054 243 1110 283.5Q1166 324 1166 385Q1166 459 1075 459Q1045 459 1014 445Q983 431 954 407.5Q925 384 898 354Q871 324 848 293V0H787V675Q745 686 709.5 693Q674 700 632 700Q583 700 556 668Q529 636 529 569V500H677Z" glyph-name="f_f_k.alt3" horiz-adv-x="1279" unicode="&#59659;" /><glyph d="M181 500H444V574Q444 622 454 653Q412 670 374 680Q336 690 293 690Q270 690 249.5 684Q229 678 214 663Q199 648 190 622.5Q181 597 181 558ZM648 451H503V0H444V451H181V0H121V451H21V500H121V555Q121 609 134 644.5Q147 680 170 702Q193 724 224 733Q255 742 292 742Q340 742 386 730Q432 718 476 700Q496 728 527.5 740Q559 752 601 752Q657 752 709.5 739.5Q762 727 830 709V113Q829 75 840 59.5Q851 44 880 44Q903 44 922.5 49Q942 54 962 59L972 10Q948 1 923 -5Q898 -11 869 -11Q848 -11 829.5 -7Q811 -3 797.5 10Q784 23 777 46.5Q770 70 770 108V673Q723 685 684 692.5Q645 700 603 700Q553 700 528 671.5Q503 643 503 576V500H648Z" glyph-name="f_f_l" horiz-adv-x="960" unicode="&#64260;" /><glyph d="M181 500H445V574Q445 622 455 653Q413 670 373.5 680Q334 690 291 690Q268 690 248 684Q228 678 213 663Q198 648 189.5 622.5Q181 597 181 558ZM647 451H504V27Q504 -94 460 -153.5Q416 -213 326 -219L317 -169Q386 -164 415.5 -119Q445 -74 445 19V451H181V20Q181 -44 169 -89Q157 -134 132.5 -162Q108 -190 71.5 -202.5Q35 -215 -13 -215L-20 -164Q17 -164 43.5 -155.5Q70 -147 87.5 -127Q105 -107 113 -73Q121 -39 121 12V451H19V500H121V555Q121 609 133.5 644.5Q146 680 168.5 702Q191 724 222 733Q253 742 290 742Q338 742 385 729.5Q432 717 477 700Q497 728 528.5 740Q560 752 602 752Q658 752 710.5 739.5Q763 727 830 709L829 113Q828 75 839 59.5Q850 44 879 44Q902 44 921.5 49Q941 54 961 59L971 10Q947 1 922 -5Q897 -11 868 -11Q847 -11 828.5 -7Q810 -3 796.5 10Q783 23 776 46.5Q769 70 769 108L771 673Q724 685 685 692.5Q646 700 604 700Q554 700 529 671.5Q504 643 504 576V500H647Z" glyph-name="f_f_l.alt" horiz-adv-x="975" unicode="&#59661;" /><glyph d="M325 451H181V0H121V451H21V500H121V567Q121 665 165.5 708.5Q210 752 283 752Q338 752 390.5 741Q443 730 511 713V432Q553 470 599.5 492Q646 514 697 514Q732 514 762.5 503Q793 492 815.5 470.5Q838 449 851 417Q864 385 864 343V0H803V342Q803 401 768.5 429.5Q734 458 684 458Q633 458 590 431Q547 404 511 371V0H449V674Q403 685 364.5 692.5Q326 700 284 700Q235 700 208 668Q181 636 181 569V500H325Z" glyph-name="f_h" horiz-adv-x="960" unicode="&#58246;" /><glyph d="M324 451H181V20Q181 -108 132 -161.5Q83 -215 -13 -215L-20 -164Q17 -164 43.5 -155.5Q70 -147 87 -127Q104 -107 112.5 -73Q121 -39 121 12V451H20V500H121V567Q121 665 165.5 708.5Q210 752 283 752Q336 752 389.5 740.5Q443 729 509 713V431Q551 469 597.5 491.5Q644 514 696 514Q731 514 761.5 503Q792 492 814.5 470.5Q837 449 850 417Q863 385 863 343V0H801V342Q801 401 767 429.5Q733 458 683 458Q632 458 588.5 431Q545 404 509 370V0H448V674Q403 685 364.5 692.5Q326 700 284 700Q235 700 208 668Q181 636 181 569V500H324Z" glyph-name="f_h.alt" horiz-adv-x="959" unicode="&#59650;" /><glyph d="M502 654Q443 668 391 677.5Q339 687 285 687Q262 687 243 681Q224 675 210.5 660Q197 645 189 620Q181 595 181 558V500H506V-52Q506 -151 466.5 -195.5Q427 -240 352 -240Q329 -240 308 -237.5Q287 -235 265 -230L273 -179Q313 -187 351 -187Q445 -187 445 -54V451H181V0H121V451H21V500H121V555Q121 606 132.5 641Q144 676 165 697.5Q186 719 216 728.5Q246 738 283 738Q342 738 398.5 728Q455 718 510 704Z" glyph-name="f_j" horiz-adv-x="610" unicode="&#58247;" /><glyph d="M500 654Q441 668 389 677.5Q337 687 283 687Q261 687 242 681Q223 675 209.5 660Q196 645 188.5 620Q181 595 181 558V500H504V-52Q504 -151 464.5 -195.5Q425 -240 350 -240Q327 -240 306 -237.5Q285 -235 263 -230L271 -179Q311 -187 349 -187Q443 -187 443 -54V451H181V21Q181 -108 132 -161.5Q83 -215 -13 -215L-20 -164Q17 -164 43.5 -155.5Q70 -147 87 -127Q104 -107 112.5 -73.5Q121 -40 121 11V451H19V500H121V555Q121 606 132.5 641Q144 676 165 697.5Q186 719 215.5 728.5Q245 738 282 738Q341 738 397 728Q453 718 508 704Z" glyph-name="f_j.alt" horiz-adv-x="601" unicode="&#59654;" /><glyph d="M325 451H181V0H121V451H21V500H121V567Q121 665 165.5 708.5Q210 752 283 752Q338 752 390.5 741Q443 730 511 713V270Q554 271 583 278Q612 285 639.5 309Q667 333 699 380Q731 427 779 508L831 491Q799 440 774.5 401Q750 362 729 333Q708 304 689.5 284Q671 264 653 251L868 5L800 -5L597 225Q579 220 558 218.5Q537 217 511 217V0H449V674Q403 685 364.5 692.5Q326 700 284 700Q235 700 208 668Q181 636 181 569V500H325Z" glyph-name="f_k" horiz-adv-x="890" unicode="&#58248;" /><glyph d="M324 451H181V19Q181 -45 168.5 -89.5Q156 -134 132 -162Q108 -190 71.5 -202.5Q35 -215 -13 -215L-20 -164Q17 -164 43.5 -155.5Q70 -147 87 -127Q104 -107 112.5 -73Q121 -39 121 12V451H20V500H121V567Q121 665 165 708.5Q209 752 281 752Q309 752 335.5 749Q362 746 389.5 740.5Q417 735 446.5 728Q476 721 509 713V270Q552 270 581.5 277Q611 284 638.5 308.5Q666 333 697.5 380Q729 427 778 508L831 491Q799 440 774.5 401Q750 362 729 333Q708 304 689.5 284Q671 264 653 251L867 5L800 -5L597 225Q578 220 556.5 218.5Q535 217 509 217V0H448V674Q402 685 363.5 692.5Q325 700 283 700Q234 700 207.5 668Q181 636 181 569V500H324Z" glyph-name="f_k.alt" horiz-adv-x="889" unicode="&#59656;" /><glyph d="M325 451H181V0H121V451H21V500H121V567Q121 665 165.5 708.5Q210 752 283 752Q338 752 390.5 741Q443 730 511 713V371Q562 434 620.5 474Q679 514 745 514Q814 514 851.5 481Q889 448 889 388Q889 312 833 261.5Q777 211 683 187Q730 136 787.5 91.5Q845 47 905 10L835 -12Q778 23 720.5 70Q663 117 617 174V224Q717 241 772.5 281.5Q828 322 828 383Q828 419 805.5 439Q783 459 737 459Q707 459 676.5 445Q646 431 616.5 407.5Q587 384 560.5 354.5Q534 325 511 294V0H449V674Q403 685 364.5 692.5Q326 700 284 700Q235 700 208 668Q181 636 181 569V500H325Z" glyph-name="f_k.alt2" horiz-adv-x="942" unicode="&#59547;" /><glyph d="M324 451H181V19Q181 -45 168.5 -89.5Q156 -134 132 -162Q108 -190 71.5 -202.5Q35 -215 -13 -215L-20 -164Q17 -164 43.5 -155.5Q70 -147 87 -127Q104 -107 112.5 -73Q121 -39 121 12V451H20V500H121V567Q121 665 165 708.5Q209 752 281 752Q309 752 335.5 749Q362 746 389.5 740.5Q417 735 446.5 728Q476 721 509 713V369Q560 432 619 473Q678 514 744 514Q813 514 850.5 481Q888 448 888 388Q888 312 832 261.5Q776 211 682 187Q729 136 786.5 91.5Q844 47 904 10L834 -12Q777 23 719 70Q661 117 616 174V224Q716 241 771.5 281.5Q827 322 827 383Q827 419 804.5 439Q782 459 736 459Q706 459 675 445Q644 431 615 407.5Q586 384 559 354Q532 324 509 293V0H448V674Q402 685 363.5 692.5Q325 700 283 700Q234 700 207.5 668Q181 636 181 569V500H324Z" glyph-name="f_k.alt3" horiz-adv-x="941" unicode="&#59658;" /><glyph d="M502 654Q443 668 391 677.5Q339 687 285 687Q262 687 243 681Q224 675 210.5 660Q197 645 189 620Q181 595 181 558V500H506V0H445V451H181V0H121V451H21V500H121V555Q121 606 132.5 641Q144 676 165 697.5Q186 719 216 728.5Q246 738 283 738Q342 738 398.5 728Q455 718 510 704Z" glyph-name="fi" horiz-adv-x="610" unicode="&#64257;" /><glyph d="M500 654Q442 668 389 677.5Q336 687 283 687Q261 687 242 681Q223 675 209.5 660Q196 645 188.5 620Q181 595 181 558V500H504V0H443V451H181V20Q181 -108 132 -161.5Q83 -215 -13 -215L-20 -164Q17 -164 43.5 -155.5Q70 -147 87 -127Q104 -107 112.5 -73Q121 -39 121 12V451H19V500H121V555Q121 606 132 641Q143 676 164 697.5Q185 719 215 728.5Q245 738 282 738Q340 738 397 728Q454 718 508 704Z" glyph-name="fi.alt" horiz-adv-x="609" unicode="&#59652;" /><glyph d="M416 483H148L133 270Q157 275 184 278.5Q211 282 247 282Q301 282 339 265Q377 248 401.5 221Q426 194 437.5 160Q449 126 449 92Q449 42 433.5 -0.5Q418 -43 387.5 -74Q357 -105 311.5 -122Q266 -139 205 -139Q160 -139 119 -129.5Q78 -120 54 -109L73 -57Q95 -66 128.5 -73.5Q162 -81 204 -81Q290 -81 337 -37.5Q384 6 384 90Q384 117 375.5 141Q367 165 349.5 183.5Q332 202 305 213Q278 224 241 224Q194 224 162.5 219.5Q131 215 105 207L72 240L94 540H416Z" glyph-name="five" horiz-adv-x="500" unicode="5" /><glyph d="M445 624H161L145 407Q164 413 194 419.5Q224 426 265 426Q319 426 359 408Q399 390 424.5 361Q450 332 462.5 295.5Q475 259 475 223Q475 169 458.5 125.5Q442 82 409.5 50.5Q377 19 328.5 2Q280 -15 217 -15Q166 -15 122 -4Q78 7 57 17L75 67Q101 58 138 50Q175 42 216 42Q309 42 360 88.5Q411 135 411 219Q411 248 401.5 275.5Q392 303 373 324Q354 345 325.5 357.5Q297 370 259 370Q209 370 176 361.5Q143 353 117 342L82 373L106 680H445Z" glyph-name="five.prop" horiz-adv-x="529" unicode="&#59717;" /><glyph d="M383 491H146L132 329Q148 334 172 338Q196 342 228 342Q275 342 309 327.5Q343 313 365 289.5Q387 266 397.5 237Q408 208 408 179Q408 93 352 41Q296 -11 186 -11Q143 -11 105 -3Q67 5 49 13L65 66Q87 59 119 52.5Q151 46 186 46Q265 46 304.5 80Q344 114 344 172Q344 195 336.5 216Q329 237 313.5 252.5Q298 268 275 277.5Q252 287 222 287Q180 287 151.5 280.5Q123 274 99 266L71 301L91 547H383Z" glyph-name="five.sc" horiz-adv-x="455" unicode="&#59727;" /><glyph d="M467 624H183L166 402Q185 408 215 414.5Q245 421 287 421Q341 421 380.5 403.5Q420 386 445.5 358Q471 330 483.5 294.5Q496 259 496 223Q496 114 431 49.5Q366 -15 238 -15Q187 -15 143.5 -4Q100 7 78 17L97 67Q122 58 159 50Q196 42 238 42Q331 42 382 88.5Q433 135 433 221Q433 250 423.5 276Q414 302 395 322Q376 342 347 353.5Q318 365 280 365Q230 365 197.5 356.5Q165 348 139 338L104 368L127 680H467Z" glyph-name="five.tab" horiz-adv-x="580" unicode="&#58452;" /><glyph d="M475 483H185L169 273Q191 281 219 286Q247 291 288 291Q343 291 383 273.5Q423 256 448.5 227.5Q474 199 486 163.5Q498 128 498 92Q498 41 481.5 -1.5Q465 -44 433 -74.5Q401 -105 354 -122Q307 -139 246 -139Q197 -139 153.5 -128Q110 -117 83 -106L101 -55Q127 -64 162.5 -72.5Q198 -81 245 -81Q333 -81 383 -38Q433 5 433 90Q433 117 424.5 143Q416 169 397.5 189.5Q379 210 350.5 222Q322 234 283 234Q239 234 205.5 226Q172 218 141 207L108 240L130 540H475Z" glyph-name="five.tabold" horiz-adv-x="580" unicode="&#59707;" /><glyph d="M657 700 152 0H86L591 700ZM299 653H145L139 572Q150 574 164.5 575.5Q179 577 197 577Q258 577 286.5 546.5Q315 516 315 474Q315 417 277.5 385.5Q240 354 166 354Q137 354 110.5 359Q84 364 69 368L80 413Q93 409 116.5 405.5Q140 402 161 402Q255 402 255 472Q255 499 235 515Q215 531 176 531Q153 531 133 527Q113 523 99 520L83 555L96 700H299ZM561 301Q532 301 514.5 289Q497 277 497 255Q497 241 502.5 231.5Q508 222 517 216Q526 210 538.5 206Q551 202 565 198Q588 204 606 217.5Q624 231 624 254Q624 279 607 290Q590 301 561 301ZM558 37Q594 37 614 51.5Q634 66 634 95Q634 108 628 116.5Q622 125 610.5 131Q599 137 583 142.5Q567 148 546 155Q520 147 501 131.5Q482 116 482 93Q482 63 502 50Q522 37 558 37ZM559 -9Q426 -9 426 89Q426 123 447.5 145Q469 167 499 177Q477 189 460 207.5Q443 226 443 260Q443 302 475 324.5Q507 347 560 347Q617 347 647.5 324Q678 301 678 260Q678 230 659.5 210.5Q641 191 615 180Q647 168 668.5 149Q690 130 690 92Q690 47 657.5 19Q625 -9 559 -9Z" glyph-name="fiveeighths" horiz-adv-x="676" unicode="&#8541;" /><glyph d="M299 289H145L139 208Q150 210 164.5 211.5Q179 213 197 213Q258 213 286.5 182.5Q315 152 315 110Q315 53 277.5 21.5Q240 -10 166 -10Q137 -10 110.5 -5Q84 0 69 4L80 49Q93 45 116.5 41.5Q140 38 161 38Q255 38 255 108Q255 135 235 151Q215 167 176 167Q153 167 133 163Q113 159 99 156L83 191L96 336H299Z" glyph-name="fiveinferior" horiz-adv-x="313" unicode="&#8325;" /><glyph d="M299 653H145L139 572Q150 574 164.5 575.5Q179 577 197 577Q258 577 286.5 546.5Q315 516 315 474Q315 417 277.5 385.5Q240 354 166 354Q137 354 110.5 359Q84 364 69 368L80 413Q93 409 116.5 405.5Q140 402 161 402Q255 402 255 472Q255 499 235 515Q215 531 176 531Q153 531 133 527Q113 523 99 520L83 555L96 700H299Z" glyph-name="fivesuperior" horiz-adv-x="313" unicode="&#8309;" /><glyph d="M121 500V560Q121 658 163 698Q205 738 278 738Q334 738 387.5 726Q441 714 508 695V113Q508 75 518 59.5Q528 44 557 44Q581 44 600 49Q619 54 639 59L649 10Q625 1 600 -5Q575 -11 546 -11Q525 -11 506.5 -7Q488 -3 475 10Q462 23 455 46.5Q448 70 448 108V660Q401 672 361.5 679.5Q322 687 280 687Q231 687 206 658Q181 629 181 562V500H325V451H181V0H121V451H21V500Z" glyph-name="fl" horiz-adv-x="638" unicode="&#64258;" /><glyph d="M121 500V560Q121 658 162.5 698Q204 738 277 738Q333 738 386 726Q439 714 506 695V113Q506 75 516.5 59.5Q527 44 556 44Q580 44 599 49Q618 54 638 59L648 10Q624 1 599 -5Q574 -11 545 -11Q524 -11 505.5 -7Q487 -3 474 10Q461 23 454 46.5Q447 70 447 108V660Q400 671 360.5 679Q321 687 279 687Q230 687 205.5 658Q181 629 181 562V500H324V451H181V19Q181 -45 169 -89.5Q157 -134 132.5 -162Q108 -190 71.5 -202.5Q35 -215 -13 -215L-20 -164Q17 -164 43.5 -155.5Q70 -147 87 -127Q104 -107 112.5 -73Q121 -39 121 12V451H20V500Z" glyph-name="fl.alt" horiz-adv-x="658" unicode="&#59660;" /><glyph d="M-27 -125Q-3 -130 21 -133Q45 -136 68 -136Q92 -136 111.5 -130Q131 -124 145 -109.5Q159 -95 168 -71Q177 -47 182 -12L236 406H119V456H243L256 555Q269 653 311.5 693.5Q354 734 427 734Q456 734 481.5 730.5Q507 727 534 721L524 671Q500 676 476.5 678.5Q453 681 429 681Q380 681 352.5 654.5Q325 628 316 557L303 456H435V406H296L242 -10Q236 -59 222 -93Q208 -127 186 -148Q164 -169 135 -178.5Q106 -188 70 -188Q41 -188 16 -184.5Q-9 -181 -37 -175Z" glyph-name="florin" horiz-adv-x="580" unicode="&#402;" /><glyph d="M418 265V54H498V0H418V-134H359V0H57L40 43L341 555L400 538L115 54H359V172L360 265Z" glyph-name="four" horiz-adv-x="545" unicode="4" /><glyph d="M433 206H527V151H433V0H374V151H60L42 196L333 688L392 671L119 206H374V433H433Z" glyph-name="four.prop" horiz-adv-x="569" unicode="&#59716;" /><glyph d="M378 174H447V119H378V0H318V119H51L36 166L286 553L347 537L112 174H318V273L319 343H378Z" glyph-name="four.sc" horiz-adv-x="490" unicode="&#59726;" /><glyph d="M434 209H522V154H434V0H376V154H66L48 200L336 688L395 671L125 209H376V420H434Z" glyph-name="four.tab" horiz-adv-x="580" unicode="&#58451;" /><glyph d="M452 265V54H530V0H452V-134H393V0H63L45 43L340 555L398 538L123 54H393V172L394 265Z" glyph-name="four.tabold" horiz-adv-x="580" unicode="&#59706;" /><glyph d="M285 127H337V78H285V0H229V78H68L54 124L205 349L260 341L119 127H229V139L242 218H285Z" glyph-name="fourinferior" horiz-adv-x="313" unicode="&#8324;" /><glyph d="M285 487H337V438H285V360H229V438H68L54 484L205 709L260 701L119 487H229V499L242 578H285Z" glyph-name="foursuperior" horiz-adv-x="313" unicode="&#8308;" /><glyph d="M527 700 22 0H-44L461 700Z" glyph-name="fraction" horiz-adv-x="480" unicode="&#8260;" /><glyph d="M578 314Q563 318 552 319Q541 320 524 320Q486 320 457.5 294.5Q429 269 404 224V0H343V308H169V0H106V646H490V591H169V363H401L403 296Q425 331 453.5 354Q482 377 523 377Q544 377 557 375Q570 373 584 369Z" glyph-name="franc" horiz-adv-x="620" unicode="&#8355;" /><glyph d="M538 348Q523 352 512 353Q501 354 484 354Q446 354 417.5 328.5Q389 303 364 258V0H303V342H169V0H106V680H490V625H169V397H361L363 330Q385 365 413.5 388Q442 411 483 411Q504 411 517 409Q530 407 544 403Z" glyph-name="franc.cap" horiz-adv-x="580" unicode="&#59739;" /><glyph d="M376 354Q376 383 370 405.5Q364 428 355 451Q327 455 302 459.5Q277 464 243 464Q211 464 187.5 454.5Q164 445 148.5 429Q133 413 125.5 391.5Q118 370 118 345Q118 284 151 256Q184 228 247 228Q305 228 340.5 259.5Q376 291 376 354ZM286 16Q275 16 265 16.5Q255 17 246 18Q169 -9 136.5 -37.5Q104 -66 104 -106Q104 -151 139 -174Q174 -197 253 -198Q354 -198 405 -165Q456 -132 456 -78Q456 -59 449.5 -42.5Q443 -26 425 -14Q407 -2 373.5 6Q340 14 286 16ZM505 447Q477 445 454.5 444.5Q432 444 414 445Q422 423 427.5 401Q433 379 433 351Q433 308 419 275.5Q405 243 380 221.5Q355 200 321 189Q287 178 247 178Q236 178 226 178.5Q216 179 206 180Q180 162 169.5 147Q159 132 159 118Q159 108 163.5 100.5Q168 93 183 87Q198 81 228 77Q258 73 309 70Q369 67 408.5 56.5Q448 46 471.5 28Q495 10 505 -15Q515 -40 515 -72Q515 -111 499 -143Q483 -175 450 -198.5Q417 -222 367.5 -235Q318 -248 251 -248Q143 -248 94.5 -212Q46 -176 46 -111Q46 -60 75 -28Q104 4 168 32Q125 45 112 65Q99 85 99 108Q99 128 112.5 149.5Q126 171 155 191Q105 209 83 248.5Q61 288 61 345Q61 380 73 411Q85 442 108 465Q131 488 165 501Q199 514 243 514Q277 514 302 510Q327 506 354 502.5Q381 499 416 496.5Q451 494 506 497Z" glyph-name="g" horiz-adv-x="526" unicode="g" /><glyph d="M259 40Q307 40 351.5 70.5Q396 101 429 155V414Q393 435 353.5 448Q314 461 274 461Q204 461 162.5 413.5Q121 366 121 260Q121 154 156.5 97Q192 40 259 40ZM490 -12Q490 -67 471 -108Q452 -149 420.5 -176.5Q389 -204 347.5 -217.5Q306 -231 262 -231Q240 -231 216 -229.5Q192 -228 168.5 -225.5Q145 -223 124 -219.5Q103 -216 88 -212L98 -158Q130 -165 171.5 -170.5Q213 -176 260 -176Q296 -176 326.5 -166Q357 -156 380 -135.5Q403 -115 416 -83.5Q429 -52 429 -8V80Q397 40 354 13Q311 -14 257 -14Q156 -14 108 59.5Q60 133 60 259Q60 388 119 451Q178 514 274 514Q317 514 357 501.5Q397 489 432 469L434 501L490 500Z" glyph-name="g.alt" horiz-adv-x="594" unicode="&#58566;" /><glyph d="M204 702Q206 675 221 659Q236 643 264 643Q290 643 306 660Q322 677 324 701L378 694Q374 649 344 622Q314 595 264 595Q213 595 184 620.5Q155 646 151 692ZM376 354Q376 383 370 405.5Q364 428 355 451Q327 455 302 459.5Q277 464 243 464Q211 464 187.5 454.5Q164 445 148.5 429Q133 413 125.5 391.5Q118 370 118 345Q118 284 151 256Q184 228 247 228Q305 228 340.5 259.5Q376 291 376 354ZM286 16Q275 16 265 16.5Q255 17 246 18Q169 -9 136.5 -37.5Q104 -66 104 -106Q104 -151 139 -174Q174 -197 253 -198Q354 -198 405 -165Q456 -132 456 -78Q456 -59 449.5 -42.5Q443 -26 425 -14Q407 -2 373.5 6Q340 14 286 16ZM505 447Q477 445 454.5 444.5Q432 444 414 445Q422 423 427.5 401Q433 379 433 351Q433 308 419 275.5Q405 243 380 221.5Q355 200 321 189Q287 178 247 178Q236 178 226 178.5Q216 179 206 180Q180 162 169.5 147Q159 132 159 118Q159 108 163.5 100.5Q168 93 183 87Q198 81 228 77Q258 73 309 70Q369 67 408.5 56.5Q448 46 471.5 28Q495 10 505 -15Q515 -40 515 -72Q515 -111 499 -143Q483 -175 450 -198.5Q417 -222 367.5 -235Q318 -248 251 -248Q143 -248 94.5 -212Q46 -176 46 -111Q46 -60 75 -28Q104 4 168 32Q125 45 112 65Q99 85 99 108Q99 128 112.5 149.5Q126 171 155 191Q105 209 83 248.5Q61 288 61 345Q61 380 73 411Q85 442 108 465Q131 488 165 501Q199 514 243 514Q277 514 302 510Q327 506 354 502.5Q381 499 416 496.5Q451 494 506 497Z" glyph-name="gbreve" horiz-adv-x="526" unicode="&#287;" /><glyph d="M211 702Q213 675 228 659Q243 643 271 643Q297 643 313 660Q329 677 331 701L385 694Q381 649 351 622Q321 595 271 595Q220 595 191 620.5Q162 646 158 692ZM259 40Q307 40 351.5 70.5Q396 101 429 155V414Q393 435 353.5 448Q314 461 274 461Q204 461 162.5 413.5Q121 366 121 260Q121 154 156.5 97Q192 40 259 40ZM490 -12Q490 -67 471 -108Q452 -149 420.5 -176.5Q389 -204 347.5 -217.5Q306 -231 262 -231Q240 -231 216 -229.5Q192 -228 168.5 -225.5Q145 -223 124 -219.5Q103 -216 88 -212L98 -158Q130 -165 171.5 -170.5Q213 -176 260 -176Q296 -176 326.5 -166Q357 -156 380 -135.5Q403 -115 416 -83.5Q429 -52 429 -8V80Q397 40 354 13Q311 -14 257 -14Q156 -14 108 59.5Q60 133 60 259Q60 388 119 451Q178 514 274 514Q317 514 357 501.5Q397 489 432 469L434 501L490 500Z" glyph-name="gbreve.alt" horiz-adv-x="594" unicode="&#59664;" /><glyph d="M410 614 372 591 265 688 157 592 122 614 243 735H291ZM376 354Q376 383 370 405.5Q364 428 355 451Q327 455 302 459.5Q277 464 243 464Q211 464 187.5 454.5Q164 445 148.5 429Q133 413 125.5 391.5Q118 370 118 345Q118 284 151 256Q184 228 247 228Q305 228 340.5 259.5Q376 291 376 354ZM286 16Q275 16 265 16.5Q255 17 246 18Q169 -9 136.5 -37.5Q104 -66 104 -106Q104 -151 139 -174Q174 -197 253 -198Q354 -198 405 -165Q456 -132 456 -78Q456 -59 449.5 -42.5Q443 -26 425 -14Q407 -2 373.5 6Q340 14 286 16ZM505 447Q477 445 454.5 444.5Q432 444 414 445Q422 423 427.5 401Q433 379 433 351Q433 308 419 275.5Q405 243 380 221.5Q355 200 321 189Q287 178 247 178Q236 178 226 178.5Q216 179 206 180Q180 162 169.5 147Q159 132 159 118Q159 108 163.5 100.5Q168 93 183 87Q198 81 228 77Q258 73 309 70Q369 67 408.5 56.5Q448 46 471.5 28Q495 10 505 -15Q515 -40 515 -72Q515 -111 499 -143Q483 -175 450 -198.5Q417 -222 367.5 -235Q318 -248 251 -248Q143 -248 94.5 -212Q46 -176 46 -111Q46 -60 75 -28Q104 4 168 32Q125 45 112 65Q99 85 99 108Q99 128 112.5 149.5Q126 171 155 191Q105 209 83 248.5Q61 288 61 345Q61 380 73 411Q85 442 108 465Q131 488 165 501Q199 514 243 514Q277 514 302 510Q327 506 354 502.5Q381 499 416 496.5Q451 494 506 497Z" glyph-name="gcircumflex" horiz-adv-x="526" unicode="&#285;" /><glyph d="M259 40Q307 40 351.5 70.5Q396 101 429 155V414Q393 435 353.5 448Q314 461 274 461Q204 461 162.5 413.5Q121 366 121 260Q121 154 156.5 97Q192 40 259 40ZM490 -12Q490 -67 471 -108Q452 -149 420.5 -176.5Q389 -204 347.5 -217.5Q306 -231 262 -231Q240 -231 216 -229.5Q192 -228 168.5 -225.5Q145 -223 124 -219.5Q103 -216 88 -212L98 -158Q130 -165 171.5 -170.5Q213 -176 260 -176Q296 -176 326.5 -166Q357 -156 380 -135.5Q403 -115 416 -83.5Q429 -52 429 -8V80Q397 40 354 13Q311 -14 257 -14Q156 -14 108 59.5Q60 133 60 259Q60 388 119 451Q178 514 274 514Q317 514 357 501.5Q397 489 432 469L434 501L490 500ZM432 614 394 591 287 688 179 592 144 614 265 735H313Z" glyph-name="gcircumflex.alt" horiz-adv-x="594" unicode="&#59662;" /><glyph d="M305 785Q284 744 275.5 720Q267 696 267 679Q267 650 305 639L285 588Q247 599 230 618.5Q213 638 213 669Q213 697 224.5 727.5Q236 758 256 797ZM376 354Q376 383 370 405.5Q364 428 355 451Q327 455 302 459.5Q277 464 243 464Q211 464 187.5 454.5Q164 445 148.5 429Q133 413 125.5 391.5Q118 370 118 345Q118 284 151 256Q184 228 247 228Q305 228 340.5 259.5Q376 291 376 354ZM286 16Q275 16 265 16.5Q255 17 246 18Q169 -9 136.5 -37.5Q104 -66 104 -106Q104 -151 139 -174Q174 -197 253 -198Q354 -198 405 -165Q456 -132 456 -78Q456 -59 449.5 -42.5Q443 -26 425 -14Q407 -2 373.5 6Q340 14 286 16ZM505 447Q477 445 454.5 444.5Q432 444 414 445Q422 423 427.5 401Q433 379 433 351Q433 308 419 275.5Q405 243 380 221.5Q355 200 321 189Q287 178 247 178Q236 178 226 178.5Q216 179 206 180Q180 162 169.5 147Q159 132 159 118Q159 108 163.5 100.5Q168 93 183 87Q198 81 228 77Q258 73 309 70Q369 67 408.5 56.5Q448 46 471.5 28Q495 10 505 -15Q515 -40 515 -72Q515 -111 499 -143Q483 -175 450 -198.5Q417 -222 367.5 -235Q318 -248 251 -248Q143 -248 94.5 -212Q46 -176 46 -111Q46 -60 75 -28Q104 4 168 32Q125 45 112 65Q99 85 99 108Q99 128 112.5 149.5Q126 171 155 191Q105 209 83 248.5Q61 288 61 345Q61 380 73 411Q85 442 108 465Q131 488 165 501Q199 514 243 514Q277 514 302 510Q327 506 354 502.5Q381 499 416 496.5Q451 494 506 497Z" glyph-name="gcommaaccent" horiz-adv-x="526" unicode="&#291;" /><glyph d="M315 785Q294 744 285.5 720Q277 696 277 679Q277 650 315 639L295 588Q257 599 240 618.5Q223 638 223 669Q223 697 234.5 727.5Q246 758 266 797ZM259 40Q307 40 351.5 70.5Q396 101 429 155V414Q393 435 353.5 448Q314 461 274 461Q204 461 162.5 413.5Q121 366 121 260Q121 154 156.5 97Q192 40 259 40ZM490 -12Q490 -67 471 -108Q452 -149 420.5 -176.5Q389 -204 347.5 -217.5Q306 -231 262 -231Q240 -231 216 -229.5Q192 -228 168.5 -225.5Q145 -223 124 -219.5Q103 -216 88 -212L98 -158Q130 -165 171.5 -170.5Q213 -176 260 -176Q296 -176 326.5 -166Q357 -156 380 -135.5Q403 -115 416 -83.5Q429 -52 429 -8V80Q397 40 354 13Q311 -14 257 -14Q156 -14 108 59.5Q60 133 60 259Q60 388 119 451Q178 514 274 514Q317 514 357 501.5Q397 489 432 469L434 501L490 500Z" glyph-name="gcommaaccent.alt" horiz-adv-x="594" unicode="&#59665;" /><glyph d="M267 706Q285 706 297 695.5Q309 685 309 665Q309 643 296.5 630.5Q284 618 265 618Q248 618 236 629Q224 640 224 663Q224 681 235 693.5Q246 706 267 706ZM376 354Q376 383 370 405.5Q364 428 355 451Q327 455 302 459.5Q277 464 243 464Q211 464 187.5 454.5Q164 445 148.5 429Q133 413 125.5 391.5Q118 370 118 345Q118 284 151 256Q184 228 247 228Q305 228 340.5 259.5Q376 291 376 354ZM286 16Q275 16 265 16.5Q255 17 246 18Q169 -9 136.5 -37.5Q104 -66 104 -106Q104 -151 139 -174Q174 -197 253 -198Q354 -198 405 -165Q456 -132 456 -78Q456 -59 449.5 -42.5Q443 -26 425 -14Q407 -2 373.5 6Q340 14 286 16ZM505 447Q477 445 454.5 444.5Q432 444 414 445Q422 423 427.5 401Q433 379 433 351Q433 308 419 275.5Q405 243 380 221.5Q355 200 321 189Q287 178 247 178Q236 178 226 178.5Q216 179 206 180Q180 162 169.5 147Q159 132 159 118Q159 108 163.5 100.5Q168 93 183 87Q198 81 228 77Q258 73 309 70Q369 67 408.5 56.5Q448 46 471.5 28Q495 10 505 -15Q515 -40 515 -72Q515 -111 499 -143Q483 -175 450 -198.5Q417 -222 367.5 -235Q318 -248 251 -248Q143 -248 94.5 -212Q46 -176 46 -111Q46 -60 75 -28Q104 4 168 32Q125 45 112 65Q99 85 99 108Q99 128 112.5 149.5Q126 171 155 191Q105 209 83 248.5Q61 288 61 345Q61 380 73 411Q85 442 108 465Q131 488 165 501Q199 514 243 514Q277 514 302 510Q327 506 354 502.5Q381 499 416 496.5Q451 494 506 497Z" glyph-name="gdotaccent" horiz-adv-x="526" unicode="&#289;" /><glyph d="M259 40Q307 40 351.5 70.5Q396 101 429 155V414Q393 435 353.5 448Q314 461 274 461Q204 461 162.5 413.5Q121 366 121 260Q121 154 156.5 97Q192 40 259 40ZM490 -12Q490 -67 471 -108Q452 -149 420.5 -176.5Q389 -204 347.5 -217.5Q306 -231 262 -231Q240 -231 216 -229.5Q192 -228 168.5 -225.5Q145 -223 124 -219.5Q103 -216 88 -212L98 -158Q130 -165 171.5 -170.5Q213 -176 260 -176Q296 -176 326.5 -166Q357 -156 380 -135.5Q403 -115 416 -83.5Q429 -52 429 -8V80Q397 40 354 13Q311 -14 257 -14Q156 -14 108 59.5Q60 133 60 259Q60 388 119 451Q178 514 274 514Q317 514 357 501.5Q397 489 432 469L434 501L490 500ZM279 706Q297 706 309 695.5Q321 685 321 665Q321 643 308.5 630.5Q296 618 277 618Q260 618 248 629Q236 640 236 663Q236 681 247 693.5Q258 706 279 706Z" glyph-name="gdotaccent.alt" horiz-adv-x="594" unicode="&#59663;" /><glyph d="M100 456Q100 529 115.5 582Q131 635 159 668.5Q187 702 227 718Q267 734 315 734Q399 734 450.5 692.5Q502 651 502 576Q502 542 495 521.5Q488 501 475 488Q461 474 443 466Q425 458 409.5 448.5Q394 439 383.5 425Q373 411 373 384Q373 359 386 342Q399 325 418.5 310Q438 295 460.5 281Q483 267 502.5 249Q522 231 535 207Q548 183 548 149Q548 121 540 92.5Q532 64 513 41Q494 18 462 3.5Q430 -11 381 -11Q350 -11 327.5 -9Q305 -7 276 -2L286 51Q311 46 331 44Q351 42 381 42Q411 42 431.5 51Q452 60 464 74Q476 88 481.5 106.5Q487 125 487 144Q487 170 474 188Q461 206 441.5 221Q422 236 399.5 250Q377 264 357.5 282Q338 300 325 324Q312 348 312 382Q312 421 327 444Q342 467 361.5 481Q381 495 400 503Q419 511 427 520Q435 528 439 539Q443 550 443 576Q443 627 407.5 654.5Q372 682 315 682Q245 682 202.5 628.5Q160 575 160 456V0H100Z" glyph-name="germandbls" horiz-adv-x="602" unicode="&#223;" /></font>
</defs>
</svg>
