<svg xmlns="http://www.w3.org/2000/svg" xmlns:xlink="http://www.w3.org/1999/xlink" width="141.73" height="141.73" viewBox="0 0 141.73 141.73"><defs><path id="a" d="M9.684 9.698h122v122h-122z"/></defs><clipPath id="b"><use xlink:href="#a" overflow="visible"/></clipPath><path clip-path="url(#b)" fill="#089EBB" d="M68.322 69.537c-.203.203-.305.45-.305.743v4.136c0 .277.106.52.317.73.21.21.454.316.73.316h4.187c.275 0 .512-.105.706-.316s.29-.453.29-.73V70.28c0-.308-.096-.56-.29-.755s-.43-.292-.705-.292h-4.186c-.293 0-.54.1-.742.304m-4.735-2.543h15.137V50.64H63.587v16.354zm52.185-2.4c.42 2.21.63 4.41.632 6.61-.002 2.2-.212 4.403-.632 6.612-.42 2.207-1.052 4.344-1.894 6.41-.842 2.064-1.9 4.068-3.176 6.014-1.276 1.947-2.75 3.756-4.424 5.428l-4.875-4.875c1.797-1.797 3.297-3.766 4.502-5.908 1.233-2.17 2.14-4.38 2.717-6.633.578-2.25.867-4.6.87-7.047-.003-2.428-.294-4.774-.876-7.04-.594-2.275-1.496-4.488-2.71-6.64-1.215-2.15-2.716-4.12-4.503-5.91l4.875-4.874c1.674 1.674 3.147 3.483 4.424 5.43s2.334 3.95 3.176 6.015c.843 2.064 1.474 4.2 1.894 6.41m-14.74-1.22c1.04 2.592 1.556 5.2 1.548 7.83.008 2.63-.508 5.24-1.55 7.83-1.032 2.58-2.542 4.866-4.53 6.855l-4.905-4.904c1.32-1.318 2.333-2.848 3.04-4.588.69-1.72 1.033-3.45 1.033-5.192 0-1.74-.35-3.475-1.047-5.205-.687-1.72-1.696-3.245-3.025-4.573l4.905-4.904c1.988 1.986 3.498 4.27 4.53 6.852m-19.507 21.8c0 1.118-.374 2.075-1.12 2.87-.745.795-1.67 1.217-2.774 1.266-.017 0-.054.01-.11.024-.057.018-.102.025-.133.025h-12.46c-.033 0-.077-.01-.134-.026-.057-.016-.094-.023-.11-.023-1.103-.048-2.028-.47-2.774-1.265s-1.12-1.752-1.12-2.87V49.058c0-1.137.405-2.11 1.216-2.922.81-.812 1.785-1.217 2.92-1.217.52-.112 1.298-.193 2.337-.242 1.038-.05 2.336-.073 3.894-.073 3.147 0 5.224.105 6.23.316 1.135 0 2.11.406 2.92 1.218s1.217 1.785 1.217 2.92v36.116zm-34.877-13.97c0 1.74.344 3.47 1.032 5.192.707 1.74 1.72 3.27 3.04 4.588l-4.904 4.904c-1.988-1.99-3.5-4.274-4.532-6.855-1.04-2.592-1.557-5.2-1.548-7.83-.01-2.63.507-5.24 1.548-7.83 1.033-2.582 2.544-4.866 4.532-6.855l4.904 4.904C49.39 62.754 48.38 64.28 47.69 66c-.695 1.73-1.044 3.465-1.044 5.205m-5.736-19.59c-1.788 1.79-3.29 3.76-4.503 5.91-1.214 2.15-2.117 4.364-2.71 6.64-.583 2.266-.875 4.612-.875 7.04 0 2.448.29 4.797.868 7.047.578 2.252 1.484 4.463 2.717 6.633 1.204 2.143 2.705 4.11 4.503 5.908l-4.876 4.875c-1.673-1.672-3.147-3.48-4.424-5.428-1.276-1.945-2.335-3.95-3.176-6.014-.84-2.066-1.472-4.203-1.893-6.41-.42-2.21-.63-4.412-.63-6.612s.21-4.4.63-6.61c.422-2.208 1.053-4.346 1.894-6.41.84-2.065 1.9-4.07 3.176-6.016 1.277-1.945 2.75-3.755 4.424-5.428l4.876 4.876zM131.684 70.7c0-33.688-27.31-61-61-61s-61 27.312-61 61c0 33.69 27.31 61 61 61s61-27.31 61-61"/></svg>