<?xml version="1.0" encoding="utf-8"?>
<!-- Generator: Adobe Illustrator 15.1.0, SVG Export Plug-In . SVG Version: 6.00 Build 0)  -->
<!DOCTYPE svg PUBLIC "-//W3C//DTD SVG 1.1//EN" "http://www.w3.org/Graphics/SVG/1.1/DTD/svg11.dtd">
<svg version="1.1" id="Ebene_1" xmlns="http://www.w3.org/2000/svg" xmlns:xlink="http://www.w3.org/1999/xlink" x="0px" y="0px"
	 width="141.73px" height="141.73px" viewBox="0 0 141.73 141.73" enable-background="new 0 0 141.73 141.73" xml:space="preserve">
<g>
	<defs>
		<rect id="SVGID_1_" x="9.684" y="9.698" width="122" height="122"/>
	</defs>
	<clipPath id="SVGID_2_">
		<use xlink:href="#SVGID_1_"  overflow="visible"/>
	</clipPath>
	<path clip-path="url(#SVGID_2_)" fill="#089EBB" d="M68.322,69.537c-0.203,0.203-0.305,0.451-0.305,0.743v4.136
		c0,0.277,0.106,0.52,0.317,0.73c0.21,0.211,0.454,0.316,0.73,0.316h4.187c0.274,0,0.511-0.105,0.705-0.316s0.291-0.453,0.291-0.73
		V70.28c0-0.308-0.097-0.56-0.291-0.755s-0.431-0.292-0.705-0.292h-4.187C68.771,69.233,68.523,69.334,68.322,69.537 M63.587,66.994
		h15.137V50.64H63.587V66.994z M115.772,64.594c0.42,2.209,0.63,4.411,0.632,6.61c-0.002,2.2-0.212,4.403-0.632,6.612
		c-0.421,2.207-1.052,4.344-1.894,6.41c-0.842,2.064-1.899,4.068-3.176,6.014c-1.276,1.947-2.75,3.756-4.424,5.428l-4.875-4.875
		c1.797-1.797,3.297-3.766,4.502-5.908c1.233-2.17,2.139-4.381,2.717-6.633c0.578-2.25,0.867-4.6,0.869-7.047
		c-0.002-2.428-0.293-4.774-0.875-7.041c-0.594-2.274-1.496-4.487-2.711-6.639c-1.214-2.151-2.715-4.121-4.502-5.909l4.875-4.875
		c1.674,1.673,3.147,3.482,4.424,5.428s2.334,3.95,3.176,6.016C114.721,60.249,115.352,62.386,115.772,64.594 M101.031,63.375
		c1.041,2.592,1.557,5.201,1.549,7.83c0.008,2.629-0.508,5.239-1.549,7.831c-1.033,2.58-2.543,4.865-4.531,6.854l-4.905-4.904
		c1.319-1.318,2.333-2.848,3.04-4.588c0.689-1.721,1.033-3.451,1.033-5.192c0-1.739-0.35-3.475-1.047-5.205
		c-0.688-1.721-1.697-3.246-3.026-4.574l4.905-4.904C98.488,58.509,99.998,60.793,101.031,63.375 M81.523,85.174
		c0,1.119-0.374,2.076-1.119,2.871c-0.746,0.795-1.672,1.217-2.775,1.266c-0.016,0-0.053,0.008-0.108,0.023
		c-0.058,0.018-0.103,0.025-0.134,0.025h-12.46c-0.033,0-0.077-0.008-0.134-0.025c-0.057-0.016-0.094-0.023-0.11-0.023
		c-1.103-0.049-2.028-0.471-2.774-1.266s-1.119-1.752-1.119-2.871V49.059c0-1.136,0.405-2.109,1.216-2.921
		c0.811-0.812,1.785-1.217,2.921-1.217c0.519-0.113,1.297-0.194,2.336-0.243c1.038-0.049,2.336-0.073,3.894-0.073
		c3.147,0,5.224,0.105,6.23,0.316c1.135,0,2.109,0.405,2.92,1.217s1.217,1.785,1.217,2.921V85.174z M46.646,71.205
		c0,1.741,0.344,3.471,1.032,5.192c0.707,1.74,1.721,3.27,3.04,4.588l-4.904,4.904c-1.988-1.988-3.499-4.273-4.532-6.854
		c-1.041-2.592-1.557-5.201-1.548-7.831c-0.009-2.629,0.507-5.238,1.548-7.83c1.033-2.581,2.544-4.865,4.532-6.854l4.904,4.904
		C49.39,62.753,48.38,64.279,47.691,66C46.995,67.73,46.646,69.465,46.646,71.205 M40.91,51.616
		c-1.788,1.788-3.289,3.758-4.503,5.909c-1.214,2.151-2.117,4.364-2.71,6.639c-0.583,2.267-0.875,4.613-0.875,7.041
		c0,2.448,0.289,4.797,0.868,7.047c0.578,2.252,1.484,4.463,2.717,6.633c1.204,2.143,2.705,4.111,4.503,5.908l-4.876,4.875
		c-1.673-1.672-3.147-3.48-4.424-5.428c-1.276-1.945-2.335-3.949-3.176-6.014c-0.841-2.066-1.472-4.203-1.893-6.41
		c-0.42-2.209-0.631-4.412-0.631-6.612c0-2.199,0.211-4.401,0.631-6.61c0.421-2.208,1.052-4.346,1.893-6.41
		c0.841-2.065,1.9-4.07,3.176-6.016c1.277-1.945,2.751-3.755,4.424-5.428L40.91,51.616z M131.684,70.698c0-33.688-27.311-61-61-61
		c-33.689,0-61,27.312-61,61c0,33.689,27.311,61,61,61C104.373,131.697,131.684,104.387,131.684,70.698"/>
</g>
</svg>
