<svg xmlns="http://www.w3.org/2000/svg" width="600" height="600"><path d="M139 128.183q0-22.39 15.597-37.986 16.1-15.597 37.986-15.597 22.137 0 38.237 15.597 15.85 15.597 15.85 37.986V203.4h160.747q22.39 0 37.986 15.597Q461 234.594 461 256.983q0 21.886-15.597 37.986-15.597 15.59-37.986 15.59H246.67v53.58q0 22.39 15.344 37.98 15.597 15.59 37.23 15.59h108.173q22.39 0 37.986 15.85Q461 449.68 461 471.81t-15.597 37.74q-15.597 15.85-37.986 15.85h-107.67q-32.702 0-62.386-12.83-29.683-12.83-51.31-34.464-21.625-21.634-34.46-51.318Q139 396.6 139 364.148V128.183z" fill="#008ad0"/></svg>