<svg width="600" height="600" xmlns="http://www.w3.org/2000/svg"><path fill="#008AD0" d="M139 471.817q0 22.39 15.597 37.986 16.1 15.597 37.986 15.597 22.137 0 38.237-15.597 15.85-15.597 15.85-37.986V396.6h160.747q22.39 0 37.986-15.597T461 343.017q0-21.886-15.597-37.986-15.597-15.595-37.986-15.595H246.67v-53.582q0-22.39 15.344-37.986 15.597-15.597 37.23-15.597h108.173q22.39 0 37.986-15.85Q461 150.32 461 128.183t-15.597-37.735Q429.806 74.6 407.417 74.6h-107.67q-32.702 0-62.386 12.83t-51.317 34.464-34.464 51.318Q139 203.4 139 235.852v235.965z"/></svg>