<svg width="600" height="600" xmlns="http://www.w3.org/2000/svg"><path fill="#008AD0" d="M27.5 126.335q119.085 6.17 161.462 49.62-41.305 1.608-66.516 24.137-25.48 22.53-32.722 56.056 15.02-3.487 27.358-3.487 7.51 0 17.702 1.88-36.21 6.168-61.42 34.06Q48.42 316.23 48.42 350.02q0 3.22.537 7.914t1.61 10.862l9.118-4.023 11.8-4.827q4.56-2.146 11.132-3.62t10.862-1.476q-45.06 37.28-45.06 84.753v2.145q0 20.384 3.89 35.806t10.86 25.614q45.865-59.542 110.503-88.777 6.17-2.68 10.862-4.56t8.45-3.216q4.558-1.61 11.934-3.755t17.03-5.097l3.487-1.073q.536 0 1.61-.27t1.608-.267l16.898-3.22q2.414-.267 7.778-1.474t13.68-3.355q8.582-2.145 14.75-3.084t9.925-.94q1.877 0 3.486.54-2.413 10.727-2.413 22.53 0 31.38 14.215 58.47t39.695 42.91q25.748 16.094 56.592 16.094 42.913 0 80.194-35.135 41.84 5.63 75.903 32.452-11.533-42.11-48.546-68.662 16.898 2.95 32.32 6.975t29.37 9.387q-8.315-17.702-21.458-30.308t-32.99-24.943v-7.24q0-1.61-.267-5.364t-.27-5.632h.538q0-33.258-6.572-64.64t-18.773-60.21-29.77-54.582-39.294-47.472-47.34-39.024-54.445-29.503-60.214-18.774-64.37-6.57q-43.718 0-87.436 13.945-44.523 13.947-82.34 37.013z"/></svg>