<svg width="600" height="600" xmlns="http://www.w3.org/2000/svg"><path fill="#008AD0" d="M27.5 126.335q119.085 6.17 161.462 49.62-41.305 1.608-66.516 24.137-25.48 22.53-32.722 56.056 15.02-3.487 27.358-3.487 7.51 0 17.702 1.88-36.21 6.17-61.42 34.06-24.944 27.63-24.944 61.42 0 3.22.537 7.92t1.61 10.86l9.118-4.02 11.8-4.82q4.56-2.14 11.132-3.62t10.862-1.47q-45.06 37.28-45.06 84.76v2.147q0 20.386 3.89 35.808T63.17 503.2q45.86-59.54 110.5-88.777 6.17-2.68 10.86-4.56t8.45-3.217q4.56-1.61 11.93-3.754t17.03-5.1l3.48-1.075q.53 0 1.61-.27t1.61-.27l16.9-3.22q2.41-.27 7.78-1.474t13.68-3.36q8.58-2.14 14.75-3.08t9.92-.94q1.88 0 3.48.54-2.418 10.728-2.418 22.53 0 31.38 14.214 58.47t39.696 42.91q25.75 16.095 56.595 16.095 42.91 0 80.192-35.13 41.84 5.63 75.9 32.45-11.53-42.11-48.54-68.66 16.897 2.95 32.32 6.974t29.37 9.39q-8.316-17.7-21.46-30.31t-32.99-24.95v-7.24q0-1.61-.266-5.365t-.27-5.63h.54q0-33.26-6.57-64.64t-18.77-60.21-29.77-54.584-39.293-47.47-47.34-39.022-54.44-29.5-60.22-18.777-64.37-6.57q-43.716 0-87.434 13.944-44.525 13.946-82.34 37.01z"/></svg>