<svg width="600" height="600" xmlns="http://www.w3.org/2000/svg"><path fill="#008AD0" d="M27.5 126.335q119.085 6.17 161.462 49.62-41.305 1.608-66.516 24.137-25.48 22.53-32.722 56.056 15.02-3.487 27.358-3.487 7.51 0 17.702 1.88-36.21 6.167-61.42 34.06-24.944 27.627-24.944 61.42 0 3.22.537 7.913t1.61 10.862l9.118-4.023 11.8-4.827q4.56-2.146 11.132-3.62t10.862-1.476q-45.06 37.28-45.06 84.753v2.145q0 20.384 3.89 35.806t10.862 25.614q45.864-59.542 110.502-88.777 6.17-2.68 10.862-4.56t8.45-3.217q4.558-1.61 11.934-3.755t17.03-5.096l3.488-1.073q.536 0 1.61-.27t1.608-.267l16.898-3.22q2.414-.267 7.778-1.474t13.678-3.354q8.583-2.145 14.752-3.084t9.924-.94q1.877 0 3.486.538-2.414 10.728-2.414 22.53 0 31.38 14.215 58.47t39.695 42.912q25.748 16.093 56.592 16.093 42.914 0 80.195-35.135 41.84 5.632 75.903 32.453-11.533-42.11-48.546-68.662 16.897 2.95 32.32 6.975t29.368 9.387q-8.314-17.702-21.457-30.308t-32.99-24.943v-7.24q0-1.61-.267-5.365t-.27-5.632h.538q0-33.258-6.572-64.64t-18.774-60.21-29.77-54.582-39.294-47.472-47.34-39.024-54.445-29.503-60.214-18.774-64.37-6.57q-43.718 0-87.436 13.946-44.523 13.947-82.34 37.013z"/></svg>