<svg xmlns="http://www.w3.org/2000/svg" width="22" height="22"><path d="M 6.5118758e-4,18.011527 Q 4.8078058,17.76246 6.5184559,16.008496 4.8510798,15.943582 3.8333769,15.034147 2.8048149,14.124669 2.512474,12.771311 q 0.6063187,0.140761 1.104372,0.140761 0.3031593,0 0.7145841,-0.07589 Q 2.8697259,12.587115 1.8520628,11.461267 0.84513779,10.345915 0.84513779,8.9819001 q 0,-0.1299829 0.0216769,-0.3197102 Q 0.88849159,8.4724633 0.93180409,8.2238 L 1.2998744,8.3860768 1.7762095,8.5806483 q 0.1840754,0.086386 0.4493707,0.1461295 0.2652946,0.059744 0.4384704,0.059338 Q 0.84509517,7.2812188 0.84509517,5.3645735 l 0,-0.086628 q 0,-0.8229307 0.15702913,-1.4454772 0.1570292,-0.6225464 0.4383899,-1.0339712 1.8512501,2.4034769 4.4606003,3.5836987 0.2490668,0.108185 0.4383899,0.1840754 0.1893238,0.075891 0.3411052,0.129822 0.1840754,0.064989 0.4815829,0.1515394 0.2975081,0.086548 0.6874574,0.2058735 l 0.140479,0.043395 q 0.021395,0 0.064989,0.010897 0.043594,0.010897 0.064989,0.010897 L 8.802316,7.2486786 q 0.097285,0.010897 0.314059,0.059503 0.2167729,0.048565 0.5522262,0.1356348 0.3463518,0.086387 0.5954188,0.1243316 0.249067,0.037943 0.400446,0.037943 0.07589,0 0.140478,-0.021801 -0.09761,-0.4331422 -0.09761,-0.9094782 0,-1.2667292 0.573782,-2.3602827 0.573783,-1.0935534 1.602426,-1.7321661 1.03946,-0.6497542 2.284594,-0.6497542 1.732165,0 3.237143,1.4181078 1.688974,-0.227269 3.063887,-1.3099228 -0.465435,1.6998721 -1.959433,2.771627 0.682048,-0.1190839 1.304675,-0.2815223 0.622546,-0.1624384 1.185591,-0.3790505 -0.335737,0.7145038 -0.866286,1.2235371 -0.530629,0.5090326 -1.33172,1.007167 l 0,0.2922597 q 0,0.064989 -0.01078,0.2165717 -0.01074,0.15158 -0.0109,0.2272682 l 0.0218,0 q 0,1.342621 -0.265214,2.6093502 -0.265214,1.2667301 -0.757697,2.4305221 -0.492481,1.163794 -1.201738,2.203416 -0.709255,1.039582 -1.586156,1.916241 -0.876902,0.876579 -1.910994,1.575137 -1.034092,0.698639 -2.197602,1.190839 -1.16351,0.492281 -2.4309265,0.758019 -1.2674161,0.265739 -2.5984513,0.265214 -1.764702,0 -3.5294852,-0.562883 Q 1.5264958,18.941543 1.5e-6,18.010509 Z" fill="#008ad0"/></svg>
