<svg xmlns="http://www.w3.org/2000/svg" width="600" height="600"><path d="M27.5 473.717q119.085-6.17 161.462-49.62-41.305-1.608-66.516-24.137-25.48-22.53-32.722-56.056 15.02 3.487 27.358 3.487 7.51 0 17.702-1.88-36.21-6.17-61.42-34.06-24.944-27.63-24.944-61.42 0-3.22.537-7.92.537-4.7 1.61-10.86l9.118 4.02 11.8 4.82q4.56 2.14 11.132 3.62t10.862 1.47q-45.06-37.28-45.06-84.76v-2.146q0-20.386 3.89-35.808t10.86-25.614q45.86 59.54 110.5 88.777 6.17 2.68 10.86 4.56 4.69 1.88 8.45 3.216 4.56 1.61 11.93 3.754t17.03 5.1l3.48 1.075q.53 0 1.61.27t1.61.27l16.9 3.22q2.41.27 7.78 1.474 5.37 1.203 13.68 3.36 8.58 2.14 14.75 3.08t9.92.94q1.88 0 3.48-.54-2.418-10.73-2.418-22.53 0-31.38 14.214-58.47t39.696-42.91q25.75-16.096 56.595-16.096 42.91 0 80.192 35.13 41.84-5.63 75.9-32.45-11.53 42.11-48.54 68.66 16.896-2.95 32.32-6.974 15.422-4.024 29.37-9.39-8.317 17.7-21.46 30.31-13.145 12.61-32.99 24.95v7.24q0 1.61-.267 5.365-.266 3.755-.27 5.63h.54q0 33.26-6.57 64.64-6.57 31.38-18.77 60.21-12.2 28.83-29.77 54.584-17.57 25.753-39.293 47.47-21.723 21.715-47.34 39.02-25.617 17.307-54.44 29.5-28.823 12.195-60.22 18.778-31.397 6.583-64.37 6.57-43.716 0-87.434-13.944-44.525-13.946-82.34-37.01z" fill="#008ad0"/></svg>